<svg width="28" height="28" viewBox="0 0 28 28" fill="none" xmlns="http://www.w3.org/2000/svg">
<path d="M26.1875 8.375C25.9389 8.375 25.7004 8.47377 25.5246 8.64959C25.3488 8.8254 25.25 9.06386 25.25 9.3125V24.3125C25.25 24.5611 25.1512 24.7996 24.9754 24.9754C24.7996 25.1512 24.5611 25.25 24.3125 25.25H3.6875C3.43886 25.25 3.2004 25.1512 3.02459 24.9754C2.84877 24.7996 2.75 24.5611 2.75 24.3125V3.6875C2.75 3.43886 2.84877 3.2004 3.02459 3.02459C3.2004 2.84877 3.43886 2.75 3.6875 2.75H18.6875C18.9361 2.75 19.1746 2.65123 19.3504 2.47541C19.5262 2.2996 19.625 2.06114 19.625 1.8125C19.625 1.56386 19.5262 1.3254 19.3504 1.14959C19.1746 0.973772 18.9361 0.875 18.6875 0.875H3.6875C2.94158 0.875 2.22621 1.17132 1.69876 1.69876C1.17132 2.22621 0.875 2.94158 0.875 3.6875V24.3125C0.875 25.0584 1.17132 25.7738 1.69876 26.3012C2.22621 26.8287 2.94158 27.125 3.6875 27.125H24.3125C25.0584 27.125 25.7738 26.8287 26.3012 26.3012C26.8287 25.7738 27.125 25.0584 27.125 24.3125V9.3125C27.125 9.06386 27.0262 8.8254 26.8504 8.64959C26.6746 8.47377 26.4361 8.375 26.1875 8.375Z" fill="#F5CB5C"/>
<path d="M7.16555 9.58441C6.98902 9.40788 6.74959 9.3087 6.49993 9.3087C6.25027 9.3087 6.01084 9.40788 5.8343 9.58441C5.65777 9.76095 5.55859 10.0004 5.55859 10.25C5.55859 10.3737 5.58294 10.4961 5.63025 10.6103C5.67756 10.7245 5.74689 10.8283 5.8343 10.9157L13.3343 18.4157C13.4219 18.5025 13.5258 18.5713 13.64 18.6179C13.7542 18.6646 13.8765 18.6882 13.9999 18.6875H14.0656C14.1975 18.6777 14.3259 18.64 14.4422 18.577C14.5585 18.514 14.6602 18.427 14.7406 18.3219L26.9281 2.38441C27.062 2.1869 27.1155 1.94575 27.0778 1.71011C27.0401 1.47447 26.914 1.26209 26.7251 1.11624C26.5362 0.970397 26.2988 0.90207 26.0613 0.925188C25.8238 0.948306 25.604 1.06113 25.4468 1.24066L13.9062 16.3344L7.16555 9.58441Z" fill="#F5CB5C"/>
</svg>
