<svg width="604" height="240" viewBox="0 0 604 240" fill="none" xmlns="http://www.w3.org/2000/svg">
<path fill-rule="evenodd" clip-rule="evenodd" d="M49.619 1.90405C23.3198 1.90405 2 23.2238 2 49.5231V152.38C2 178.68 23.3197 199.999 49.619 199.999H411.313L531.823 237.965C533.66 238.544 535.097 236.343 533.829 234.894L503.401 200.123C503.364 200.08 503.324 200.039 503.283 199.999H554.381C580.68 199.999 602 178.68 602 152.38V49.5231C602 23.2238 580.68 1.90405 554.381 1.90405H49.619Z" fill="#242423" fill-opacity="0.7"/>
<path d="M411.313 199.999L411.743 198.637L411.533 198.571H411.313V199.999ZM531.823 237.965L531.394 239.328L531.394 239.328L531.823 237.965ZM533.829 234.894L532.754 235.835L532.754 235.835L533.829 234.894ZM503.401 200.123L504.476 199.182L504.476 199.182L503.401 200.123ZM503.283 199.999V198.571H499.718L502.296 201.033L503.283 199.999ZM3.42857 49.5231C3.42857 24.0128 24.1088 3.33262 49.619 3.33262V0.475481C22.5308 0.475481 0.571429 22.4349 0.571429 49.5231H3.42857ZM3.42857 152.38V49.5231H0.571429V152.38H3.42857ZM49.619 198.571C24.1087 198.571 3.42857 177.891 3.42857 152.38H0.571429C0.571429 179.468 22.5308 201.428 49.619 201.428V198.571ZM411.313 198.571H49.619V201.428H411.313V198.571ZM532.252 236.603L411.743 198.637L410.884 201.362L531.394 239.328L532.252 236.603ZM532.754 235.835C532.855 235.95 532.878 236.046 532.881 236.12C532.884 236.207 532.859 236.311 532.794 236.409C532.73 236.508 532.645 236.573 532.564 236.605C532.496 236.632 532.398 236.649 532.252 236.603L531.394 239.328C534.608 240.341 537.123 236.489 534.904 233.954L532.754 235.835ZM502.326 201.064L532.754 235.835L534.904 233.954L504.476 199.182L502.326 201.064ZM502.296 201.033C502.307 201.043 502.317 201.053 502.326 201.064L504.476 199.182C504.41 199.106 504.341 199.034 504.269 198.966L502.296 201.033ZM554.381 198.571H503.283V201.428H554.381V198.571ZM600.571 152.38C600.571 177.891 579.891 198.571 554.381 198.571V201.428C581.469 201.428 603.429 179.468 603.429 152.38H600.571ZM600.571 49.5231V152.38H603.429V49.5231H600.571ZM554.381 3.33262C579.891 3.33262 600.571 24.0128 600.571 49.5231H603.429C603.429 22.4348 581.469 0.475481 554.381 0.475481V3.33262ZM49.619 3.33262H554.381V0.475481H49.619V3.33262Z" fill="#D8D3CF"/>
</svg>
