<svg width="262" height="162" viewBox="0 0 262 162" fill="none" xmlns="http://www.w3.org/2000/svg">
<path fill-rule="evenodd" clip-rule="evenodd" d="M51.4105 1C23.5696 1 1 23.5695 1 51.4105V85.7952C1 113.636 23.5696 136.206 51.4105 136.206H179.69C179.853 136.682 180.2 137.114 180.758 137.391L227.727 160.698C229.504 161.58 231.281 159.701 230.315 157.962L218.603 136.881C218.267 136.277 217.657 135.873 216.983 135.804C241.805 132.663 261 111.471 261 85.7952V51.4105C261 23.5695 238.43 1 210.589 1H51.4105Z" fill="#242423" fill-opacity="0.7"/>
<path d="M179.69 136.206L180.636 135.882L180.404 135.206H179.69V136.206ZM180.758 137.391L180.314 138.287L180.314 138.287L180.758 137.391ZM227.727 160.698L228.172 159.802L228.172 159.802L227.727 160.698ZM230.315 157.962L229.44 158.447L229.44 158.447L230.315 157.962ZM218.603 136.881L219.477 136.396L219.477 136.396L218.603 136.881ZM216.983 135.804L216.857 134.812L216.881 136.799L216.983 135.804ZM2 51.4105C2 24.1218 24.1218 2 51.4105 2V0C23.0173 0 0 23.0173 0 51.4105H2ZM2 85.7952V51.4105H0V85.7952H2ZM51.4105 135.206C24.1218 135.206 2 113.084 2 85.7952H0C0 114.188 23.0173 137.206 51.4105 137.206V135.206ZM179.69 135.206H51.4105V137.206H179.69V135.206ZM181.203 136.495C180.882 136.336 180.714 136.11 180.636 135.882L178.744 136.53C178.992 137.254 179.519 137.892 180.314 138.287L181.203 136.495ZM228.172 159.802L181.203 136.495L180.314 138.287L227.283 161.594L228.172 159.802ZM229.44 158.447C229.94 159.347 229.05 160.238 228.172 159.802L227.283 161.594C229.958 162.921 232.621 160.055 231.189 157.476L229.44 158.447ZM217.729 137.367L229.44 158.447L231.189 157.476L219.477 136.396L217.729 137.367ZM216.881 136.799C217.225 136.834 217.549 137.044 217.729 137.367L219.477 136.396C218.985 135.51 218.089 134.912 217.084 134.809L216.881 136.799ZM260 85.7952C260 110.96 241.186 131.733 216.857 134.812L217.108 136.796C242.424 133.592 262 111.981 262 85.7952H260ZM260 51.4105V85.7952H262V51.4105H260ZM210.589 2C237.878 2 260 24.1218 260 51.4105H262C262 23.0173 238.983 0 210.589 0V2ZM51.4105 2H210.589V0H51.4105V2Z" fill="#D8D3CF"/>
</svg>
