<svg width="15" height="14" viewBox="0 0 15 14" fill="none" xmlns="http://www.w3.org/2000/svg">
<path d="M6.87548 14C5.44696 14.001 4.05367 13.5483 2.88946 12.705C1.72529 11.8617 0.847942 10.6697 0.379685 9.29481C-0.0885715 7.91989 -0.124657 6.43036 0.276683 5.03373C0.677908 3.63696 1.49658 2.40236 2.61861 1.50165C3.74064 0.600914 5.11039 0.0789974 6.53717 0.00825217C7.96391 -0.0623786 9.3769 0.321779 10.5794 1.10726C10.6537 1.15051 10.7075 1.22306 10.7279 1.30786C10.7484 1.39266 10.7336 1.48226 10.6873 1.55577C10.641 1.62917 10.5671 1.67998 10.4829 1.69628C10.3986 1.71258 10.3116 1.69287 10.2421 1.64184C9.07351 0.880009 7.68932 0.536237 6.30771 0.66461C4.92615 0.793088 3.62591 1.38649 2.61188 2.35115C1.59784 3.31581 0.928192 4.59689 0.708091 5.99232C0.487971 7.38781 0.730155 8.81832 1.39637 10.0579C2.06269 11.2976 3.11507 12.276 4.38762 12.8389C5.66012 13.4018 7.08039 13.517 8.4245 13.1666C9.76842 12.8161 10.9596 12.0196 11.8101 10.903C12.6605 9.78647 13.122 8.41313 13.1216 6.99978V6.36345C13.1043 6.18778 13.2302 6.03105 13.4027 6.01349C13.5751 5.99592 13.7289 6.12407 13.7462 6.29985V6.99978C13.7462 8.85633 13.0223 10.6369 11.7337 11.9495C10.4452 13.2622 8.6975 13.9997 6.87528 13.9997L6.87548 14Z" fill="#F5CB5C"/>
<path d="M7.81272 8.43168C7.73032 8.43051 7.65169 8.3962 7.59407 8.33623L4.78324 5.4726C4.66079 5.34785 4.66079 5.14554 4.78324 5.0208C4.90569 4.89605 5.10427 4.89605 5.22671 5.0208L7.81272 7.6363L14.465 0.890682C14.5875 0.765931 14.786 0.765931 14.9085 0.890682C15.0309 1.01543 15.0309 1.21774 14.9085 1.34248L8.03748 8.34255C7.97725 8.40179 7.89632 8.43386 7.81266 8.43162L7.81272 8.43168Z" fill="#F5CB5C"/>
</svg>
