<svg width="46" height="46" viewBox="0 0 46 46" fill="none" xmlns="http://www.w3.org/2000/svg">
<path d="M22.9994 0.916748C18.6317 0.916748 14.3621 2.21191 10.7305 4.63846C7.09893 7.06501 4.26845 10.514 2.59702 14.5492C0.925584 18.5844 0.48826 23.0246 1.34035 27.3083C2.19244 31.5921 4.29567 35.527 7.38408 38.6154C10.4725 41.7038 14.4074 43.807 18.6911 44.6591C22.9749 45.5112 27.4151 45.0739 31.4503 43.4024C35.4855 41.731 38.9344 38.9005 41.361 35.2689C43.7875 31.6373 45.0827 27.3678 45.0827 23.0001C45.0772 17.1449 42.7488 11.5311 38.6085 7.3909C34.4683 3.25067 28.8545 0.922264 22.9994 0.916748ZM22.9994 42.5834C19.1261 42.5834 15.3399 41.4349 12.1194 39.283C8.89898 37.1312 6.38893 34.0727 4.90672 30.4943C3.4245 26.9159 3.03669 22.9784 3.79231 19.1796C4.54794 15.3808 6.41307 11.8914 9.15185 9.15257C11.8906 6.4138 15.38 4.54866 19.1788 3.79304C22.9776 3.03741 26.9152 3.42522 30.4936 4.90744C34.072 6.38966 37.1305 8.8997 39.2823 12.1202C41.4342 15.3406 42.5827 19.1269 42.5827 23.0001C42.5772 28.1922 40.5122 33.1701 36.8408 36.8415C33.1694 40.5129 28.1915 42.5779 22.9994 42.5834ZM31.4369 25.9167C31.5518 26.0344 31.6424 26.1735 31.7035 26.3262C31.7647 26.4788 31.7951 26.642 31.7932 26.8065C31.7913 26.9709 31.757 27.1334 31.6922 27.2845C31.6275 27.4357 31.5337 27.5727 31.416 27.6876C31.2984 27.8025 31.1593 27.8931 31.0066 27.9542C30.8539 28.0154 30.6907 28.0459 30.5263 28.0439C30.3619 28.042 30.1994 28.0077 30.0482 27.943C29.8971 27.8783 29.7601 27.7844 29.6452 27.6667L22.9994 20.9167L16.3327 27.7084C16.229 27.8662 16.0909 27.9984 15.9287 28.0952C15.7666 28.1919 15.5846 28.2507 15.3965 28.267C15.2084 28.2834 15.019 28.2569 14.8426 28.1896C14.6662 28.1223 14.5073 28.0159 14.3779 27.8785C14.2485 27.741 14.152 27.5759 14.0955 27.3958C14.039 27.2156 14.024 27.025 14.0517 26.8382C14.0795 26.6515 14.1491 26.4734 14.2555 26.3174C14.3619 26.1614 14.5023 26.0316 14.666 25.9376L22.3119 18.2917C22.4978 18.104 22.7385 17.98 22.9994 17.9376C23.1628 17.9388 23.3244 17.9725 23.4746 18.0369C23.6249 18.1013 23.7608 18.195 23.8744 18.3126L31.4369 25.9167Z" fill="#F5CB5C"/>
</svg>
