<svg width="45" height="45" viewBox="0 0 45 45" fill="none" xmlns="http://www.w3.org/2000/svg">
<path d="M22.0833 0C17.7157 0 13.4461 1.29517 9.8145 3.72171C6.18292 6.14826 3.35244 9.59721 1.681 13.6324C0.00956841 17.6676 -0.427755 22.1078 0.424335 26.3916C1.27643 30.6753 3.37966 34.6102 6.46807 37.6986C9.55648 40.787 13.4914 42.8903 17.7751 43.7423C22.0588 44.5944 26.4991 44.1571 30.5343 42.4857C34.5695 40.8142 38.0184 37.9838 40.445 34.3522C42.8715 30.7206 44.1667 26.451 44.1667 22.0833C44.1612 16.2282 41.8328 10.6144 37.6925 6.47415C33.5523 2.33392 27.9385 0.00551595 22.0833 0ZM22.0833 41.6667C18.2101 41.6667 14.4239 40.5181 11.2034 38.3663C7.98296 36.2144 5.47292 33.1559 3.9907 29.5776C2.50849 25.9992 2.12067 22.0616 2.8763 18.2628C3.63193 14.464 5.49706 10.9746 8.23584 8.23583C10.9746 5.49705 14.464 3.63192 18.2628 2.87629C22.0616 2.12066 25.9992 2.50848 29.5776 3.99069C33.1559 5.47291 36.2144 7.98295 38.3663 11.2034C40.5181 14.4239 41.6667 18.2101 41.6667 22.0833C41.6612 27.2755 39.5962 32.2534 35.9248 35.9248C32.2534 39.5961 27.2755 41.6612 22.0833 41.6667ZM30.5208 25C30.6358 25.1176 30.7264 25.2568 30.7875 25.4094C30.8486 25.5621 30.8791 25.7253 30.8772 25.8897C30.8752 26.0542 30.8409 26.2166 30.7762 26.3678C30.7115 26.519 30.6177 26.6559 30.5 26.7708C30.3824 26.8857 30.2432 26.9764 30.0906 27.0375C29.9379 27.0986 29.7747 27.1291 29.6103 27.1272C29.4458 27.1252 29.2834 27.0909 29.1322 27.0262C28.981 26.9615 28.8441 26.8676 28.7292 26.75L22.0833 20L15.4167 26.7917C15.313 26.9494 15.1748 27.0817 15.0127 27.1784C14.8506 27.2752 14.6686 27.3339 14.4805 27.3503C14.2924 27.3667 14.103 27.3402 13.9266 27.2729C13.7502 27.2056 13.5913 27.0992 13.4619 26.9617C13.3325 26.8242 13.2359 26.6592 13.1794 26.479C13.1229 26.2989 13.108 26.1082 13.1357 25.9215C13.1634 25.7347 13.2331 25.5566 13.3395 25.4007C13.4459 25.2447 13.5862 25.1148 13.75 25.0208L21.3958 17.375C21.5818 17.1872 21.8225 17.0632 22.0833 17.0208C22.2468 17.022 22.4084 17.0558 22.5586 17.1202C22.7089 17.1846 22.8448 17.2783 22.9583 17.3958L30.5208 25Z" fill="#4CA638"/>
</svg>
