<svg width="191" height="50" viewBox="0 0 191 50" fill="none" xmlns="http://www.w3.org/2000/svg">
<path d="M67.322 4.72256C66.7247 6.5014 65.1453 9.96547 63.9303 12.1708C62.2396 15.2292 59.9109 18.6621 58.0885 20.805C56.5901 22.5734 53.8565 25.1741 53.5123 25.1741C53.3604 25.1741 53.3604 25.1637 53.5629 24.0714C53.7755 22.9167 53.8059 19.1614 53.6136 17.6842C53.2795 15.1252 52.7631 13.0551 52.1556 11.8067C51.8013 11.089 51.0723 9.98628 50.9508 9.98628C50.8091 9.98628 50.7787 10.3504 50.7079 12.4309C50.637 14.9587 50.1409 19.2654 49.746 20.753C49.7055 20.9194 49.6144 21.3459 49.5435 21.6892C48.7336 25.6734 46.9922 30.3234 44.7851 34.3908C42.8614 37.9485 41.2719 40.3515 37.5461 45.3344C36.5944 46.6035 36.4122 46.8844 36.5033 46.9676C36.5843 47.0612 40.8062 44.3773 42.4565 43.181C42.7096 43.0042 43.1854 42.6609 43.5195 42.4216C44.0966 42.0055 45.4938 40.9237 46.9112 39.8002C50.7079 36.7834 55.4967 31.9774 58.1999 28.4405C60.164 25.8815 61.3689 24.113 62.3509 22.3134C63.8595 19.5567 64.8719 17.3929 65.5907 15.3436C66.8259 11.8379 67.3524 9.39333 67.7675 5.25309C67.8181 4.68095 67.8991 4.01518 67.9295 3.76551C68.051 2.9229 67.7979 3.3286 67.322 4.72256Z" fill="#75C5F0"/>
<path d="M59.597 5.60687C58.8174 6.1166 58.0783 7.06324 57.4506 8.32196C56.2053 10.8082 56.0838 13.2736 57.1469 14.3659C57.8151 15.0525 58.5137 15.0004 59.5464 14.1994C60.2753 13.6377 60.822 12.9303 61.4295 11.7444C62.4926 9.6951 62.7558 7.60418 62.1382 6.16861C61.8446 5.48204 61.4396 5.20117 60.7208 5.20117C60.2956 5.20117 60.1032 5.27399 59.597 5.60687Z" fill="#75C5F0"/>
<path d="M39.7528 14.3141C39.9047 15.2919 39.9452 17.6949 39.8338 18.8808C39.6111 21.159 39.0441 23.8741 38.3861 25.7882C37.7482 27.6398 36.8674 29.1274 36.4118 29.1274C36.3105 29.1274 35.7942 28.7737 35.2677 28.3472C34.7413 27.9207 33.9617 27.359 33.5365 27.0989C31.8761 26.0898 29.1323 24.9247 28.5553 24.9872C28.2718 25.0184 28.2718 25.0184 28.9602 25.7986C31.6837 28.8569 33.2327 32.7267 33.658 37.5535C33.8807 40.1542 33.6883 44.3256 33.1821 47.4152C33.0606 48.1954 33.1315 48.1226 35.4297 44.9082C40.3198 38.0632 42.861 32.0817 43.2761 26.4227C43.5799 22.3449 42.4763 17.9446 40.3097 14.647C39.8035 13.8668 39.6719 13.7939 39.7528 14.3141Z" fill="#4CA638"/>
<path d="M34.1247 14.8337C33.5071 15.0314 32.5656 15.9676 32.191 16.7686C32.0391 17.0911 31.8366 17.7881 31.7455 18.3082C31.5936 19.2028 31.5936 19.3381 31.7556 20.2951C32.2112 23.0622 34.0842 24.6018 35.8459 23.676C36.6659 23.2495 37.2228 22.5421 37.6683 21.3458C37.891 20.7632 37.9416 20.472 37.9416 19.6085C37.9416 18.3706 37.7999 17.6841 37.324 16.675C36.6254 15.1978 35.3194 14.4488 34.1247 14.8337Z" fill="#4CA638"/>
<path d="M71.7654 23.5512C70.0746 24.113 67.5739 26.6512 66.5412 28.867C65.5996 30.8955 65.6401 32.175 66.6728 32.7264C68.6066 33.7562 73.3144 29.1583 73.9522 25.6214C74.2661 23.9153 73.3347 23.0311 71.7654 23.5512Z" fill="#60B494"/>
<path d="M75.8461 26.0065C75.8359 26.0585 75.5018 26.4954 75.107 26.9636C72.0798 30.6045 69.2045 33.4132 65.9444 35.9098C64.0005 37.4078 64.0714 37.3558 62.8666 38.1256C60.7607 39.4571 59.4344 40.1853 59.1813 40.1333C59.0699 40.1125 59.161 39.946 59.5255 39.5195C61.0239 37.7511 63.2513 33.9229 64.1119 31.6239C64.7497 29.9387 65.2357 27.4525 65.0737 26.7139C65.0028 26.3394 64.932 26.4018 64.6282 27.1508C63.9195 28.9192 63.393 29.7931 61.8541 31.884C60.3355 33.9333 57.2273 37.1685 54.5544 39.4779C49.1379 44.1695 43.6403 47.3735 40.0563 47.9456L39.5703 48.0185L39.9753 48.1433C40.9574 48.4554 43.9036 48.7258 46.2018 48.7258C48.824 48.7258 50.0288 48.601 52.4486 48.1017C55.9516 47.3839 59.5964 45.8235 63.0994 43.5349C68.0806 40.2893 72.2519 34.932 75.3398 27.775C76.0283 26.173 76.1194 25.9025 75.9878 25.9025C75.9271 25.9025 75.8663 25.9441 75.8461 26.0065Z" fill="#60B494"/>
<path d="M15.931 28.3988C14.3516 28.5028 12.9241 28.7109 7.73026 29.5535C7.03167 29.6575 5.98886 29.824 5.40164 29.9072C4.04497 30.1153 3.88298 30.1465 3.88298 30.2609C3.88298 30.3129 4.14622 30.4169 4.4702 30.4793C4.78406 30.5418 5.64463 30.7602 6.38371 30.9475C11.2333 32.2478 15.5564 34.3075 17.7737 36.3984C18.452 37.0434 19.1101 37.8964 18.9987 38.0108C18.9684 38.042 18.5634 38.0733 18.0977 38.0733C16.093 38.0733 14.3111 38.3749 12.5394 39.0199C9.84626 40.0081 7.38603 41.891 3.25527 46.1353C2.26308 47.1547 1.45312 48.0286 1.45312 48.091C1.45312 48.2054 1.54424 48.1846 3.37676 47.7997C9.988 46.3849 15.8602 46.3641 22.4106 47.7061C24.2533 48.091 26.7034 48.6943 28.2322 49.152C28.7182 49.2977 29.1839 49.4121 29.275 49.4121C29.4066 49.4121 29.4167 49.1624 29.3661 47.3524C29.1434 39.6441 27.9487 34.4948 25.7315 31.6652C24.7595 30.4273 23.3623 29.4183 21.9551 28.9294C20.5174 28.4404 18.1989 28.2324 15.931 28.3988Z" fill="#007BC2"/>
<path d="M7.5273 33.7044C6.10988 33.8916 4.02425 34.6926 2.90044 35.4832C2.07024 36.0658 1.03755 37.1476 0.784441 37.7094C-0.0558849 39.5298 1.36153 40.8094 4.03438 40.6429C6.55535 40.4765 9.23832 39.2802 10.7064 37.6574C11.3948 36.8876 11.6783 36.2634 11.6783 35.5248C11.6783 35.0151 11.6378 34.9111 11.3239 34.547C10.676 33.8084 9.1877 33.4755 7.5273 33.7044Z" fill="#007BC2"/>
<path d="M79.4038 34.6797C78.5667 34.9162 77.4865 35.7786 76.8789 36.6967C76.1902 37.7678 75.9742 38.7137 76.0552 40.4108C76.1227 42.0383 76.5683 43.1094 77.5675 44.097C78.4587 44.9455 79.2013 45.3489 80.187 45.4741C82.9955 45.8497 85.2369 44.1944 85.831 41.3149C86.4251 38.4077 84.9668 35.4587 82.5499 34.7214C81.7938 34.4989 80.1465 34.4711 79.4038 34.6797ZM82.0773 36.2655C82.8064 36.5715 83.306 37.114 83.7381 38.0599C84.0757 38.7693 84.1297 39.0615 84.1297 40.0213C84.1297 40.995 84.0757 41.2593 83.7111 41.9965C82.3474 44.8203 79.1338 44.5978 78.0401 41.607C77.473 40.0491 77.8915 37.893 78.9582 36.8497C79.7549 36.0707 81.0646 35.8204 82.0773 36.2655Z" fill="#1D1616"/>
<path d="M92.452 34.6726C89.4814 35.6324 88.1582 39.569 89.7245 42.8101C90.9262 45.2723 94.0048 46.2599 96.3677 44.9384C97.2724 44.4376 98.2715 43.2692 98.6361 42.2954C99.0817 41.127 99.1492 39.2213 98.7711 38.0806C97.988 35.6881 96.4082 34.4779 94.0993 34.4918C93.5052 34.4918 92.7625 34.5752 92.452 34.6726ZM95.6521 36.4809C97.934 38.025 97.745 42.3511 95.355 43.5752C92.8706 44.8549 90.4536 42.4067 90.9532 39.1378C91.1017 38.1224 91.5473 37.3156 92.29 36.6479C92.9516 36.0775 93.1541 36.0219 94.2748 36.0775C94.9094 36.1054 95.247 36.2027 95.6521 36.4809Z" fill="#1D1616"/>
<path d="M105.209 34.7906C103.858 35.3748 103.143 36.1121 102.508 37.6005C102.089 38.5742 101.995 40.5216 102.319 41.6345C103.102 44.4443 105.546 46.0162 108.125 45.3902C109.745 45.0147 110.866 44.0688 111.568 42.5108C112.581 40.2712 112.108 37.364 110.461 35.7782C109.489 34.8462 108.787 34.568 107.247 34.5124C106.14 34.4707 105.857 34.5124 105.209 34.7906ZM108.26 36.2651C108.962 36.5989 109.597 37.2944 109.975 38.1569C110.38 39.1028 110.394 40.7998 110.002 41.7179C108.733 44.5695 105.708 44.6808 104.304 41.9127C104.007 41.3284 103.953 41.0363 103.939 40.0348C103.939 38.7133 104.169 37.9621 104.83 37.0997C105.627 36.0703 107.099 35.7087 108.26 36.2651Z" fill="#1D1616"/>
<path d="M119.776 35.8813C119.384 36.0065 119.155 36.549 119.29 37.0776C119.357 37.3419 119.492 37.4671 119.776 37.5366C120.154 37.6062 120.181 37.6618 120.181 38.2043C120.181 39.4006 119.411 43.0868 119.074 43.518C118.992 43.6154 118.641 43.7406 118.277 43.7823L117.615 43.8797V45.2429C117.615 46.7452 117.75 47.0374 118.412 47.0374C118.952 47.0374 119.222 46.7591 119.263 46.1332L119.303 45.5768H122.476H125.649L125.69 46.1332C125.757 46.8565 125.919 47.0374 126.527 47.0374C127.269 47.0374 127.351 46.8426 127.31 45.2847L127.269 43.9075L126.419 43.7823L125.555 43.6432L125.595 40.8612C125.609 39.3171 125.649 37.9678 125.676 37.8426C125.717 37.7314 125.919 37.5644 126.135 37.481C126.473 37.3419 126.527 37.2584 126.527 36.7855C126.527 35.8117 126.608 35.8396 123.192 35.8117C121.504 35.7978 119.965 35.8257 119.776 35.8813ZM123.232 37.5784H123.691V40.6247V43.6572L123.165 43.7545C122.881 43.7963 122.274 43.7963 121.842 43.7545L121.045 43.6711L121.409 42.3079C121.612 41.5567 121.882 40.2352 122.004 39.3589C122.26 37.4671 122.287 37.3836 122.557 37.4949C122.679 37.5366 122.976 37.5784 123.232 37.5784Z" fill="#1D1616"/>
<path d="M159.136 35.8677C158.623 35.9373 158.394 36.2433 158.394 36.8415C158.394 37.37 158.731 37.5787 159.568 37.5787C159.973 37.5787 160.027 37.6204 159.946 37.8152C159.609 38.6498 157.988 43.2958 157.988 43.421C157.988 43.5045 157.772 43.6714 157.516 43.7688C156.773 44.1026 156.571 44.6869 157.043 45.2015C157.3 45.4797 157.448 45.5076 158.907 45.5076C160.689 45.5076 160.824 45.4519 160.824 44.673C160.824 44.1026 160.5 43.6992 160.041 43.6992C159.852 43.6992 159.744 43.6158 159.744 43.4488C159.744 42.9063 159.933 42.8368 161.675 42.7672L163.376 42.6838L163.524 43.0733C163.727 43.6158 163.619 43.8105 163.092 43.8662C162.512 43.9218 162.282 44.4921 162.593 45.0624C162.795 45.438 162.795 45.438 164.551 45.4797C166.441 45.5215 166.684 45.4519 166.833 44.8121C166.927 44.3808 166.495 43.741 166.076 43.6714C165.833 43.6297 165.59 43.0733 164.551 40.0826C163.862 38.1351 163.227 36.3963 163.146 36.2433C163.065 36.0764 162.795 35.9095 162.566 35.8538C162.12 35.7704 159.825 35.7704 159.136 35.8677ZM161.904 38.0795C161.904 38.1908 162.093 38.8445 162.309 39.5261C162.539 40.2077 162.714 40.8337 162.714 40.9033C162.714 41.0006 162.309 41.0563 161.634 41.0563C161.04 41.0563 160.554 41.0424 160.554 41.0145C160.554 40.9172 161.486 38.1212 161.567 37.996C161.688 37.7874 161.904 37.8291 161.904 38.0795Z" fill="#1D1616"/>
<path d="M130.538 38.0934C129.701 38.3856 128.662 39.3454 128.283 40.1661C128.027 40.6947 127.986 40.959 128.04 41.8631C128.121 43.1568 128.432 43.8662 129.269 44.6174C130.093 45.3685 130.93 45.6467 132.348 45.6467C133.887 45.6467 134.63 45.3824 135.521 44.4783C136.587 43.4072 136.898 42.0718 136.439 40.5138C136.169 39.5818 135.386 38.6916 134.454 38.2604C133.522 37.8431 131.497 37.7457 130.538 38.0934ZM133.414 39.8044C134.103 40.1661 134.414 40.7781 134.414 41.7658C134.427 43.0872 133.536 43.9775 132.226 43.9775C131.43 43.9775 130.795 43.588 130.43 42.8647C130.133 42.2943 130.093 41.3345 130.363 40.8059C130.579 40.3886 131.214 39.7349 131.524 39.6236C131.983 39.4566 132.915 39.5401 133.414 39.8044Z" fill="#1D1616"/>
<path d="M171.1 38.0097C170.924 38.0793 170.614 38.2601 170.411 38.4131C169.939 38.7609 169.898 38.7609 169.844 38.3714C169.803 38.0932 169.722 38.0654 168.872 38.0236C168.21 37.9958 167.859 38.0375 167.63 38.2045C167.062 38.58 167.279 39.6651 167.913 39.6651H168.251V43.3513V47.0375H167.805C167.562 47.0375 167.252 47.121 167.13 47.2044C166.806 47.4548 166.711 48.1642 166.941 48.4842C167.116 48.7346 167.36 48.7624 169.088 48.818C171.424 48.8876 171.964 48.7624 172.099 48.1364C172.166 47.8582 172.112 47.6078 171.977 47.3853C171.788 47.0792 171.653 47.0375 170.951 47.0375H170.141V45.9108C170.141 45.2987 170.182 44.8119 170.249 44.8397C171.194 45.3405 171.505 45.4239 172.436 45.4239C173.301 45.4239 173.557 45.3683 174.084 45.0483C175.339 44.2972 175.947 43.1148 175.947 41.4734C175.947 39.9433 175.204 38.747 173.854 38.121C173.26 37.8428 171.667 37.7733 171.1 38.0097ZM172.842 39.7068C173.017 39.8042 173.314 40.0963 173.49 40.3606C173.76 40.7779 173.8 40.9726 173.76 41.7099C173.692 42.7253 173.409 43.2261 172.666 43.6017C171.397 44.2555 169.939 42.8227 170.209 41.1674C170.276 40.8057 170.479 40.4301 170.803 40.0685C171.248 39.5955 171.397 39.526 171.91 39.526C172.234 39.526 172.652 39.6094 172.842 39.7068Z" fill="#1D1616"/>
<path d="M138.071 38.4133C137.774 39.0115 137.923 39.4844 138.49 39.6652L138.962 39.8322L138.922 41.7935C138.881 43.4349 138.841 43.7688 138.679 43.7827C138.233 43.8105 138.179 43.8522 138.031 44.1861C137.801 44.6869 137.828 44.9094 138.139 45.2294C138.368 45.4658 138.584 45.5076 139.84 45.5076C140.623 45.5076 141.379 45.4519 141.514 45.3685C141.825 45.2015 141.987 44.506 141.798 44.1444C141.717 43.9913 141.474 43.8383 141.244 43.7966C140.853 43.7131 140.839 43.6714 140.839 43.0037V42.3082H142.135H143.418L143.378 43.0315C143.337 43.6714 143.297 43.7688 143 43.8383C142.527 43.9496 142.338 44.5617 142.608 45.0624C142.797 45.438 142.837 45.438 144.377 45.4797C146.186 45.5215 146.416 45.4102 146.348 44.5478C146.321 44.1304 146.227 44.0192 145.862 43.8522L145.416 43.6436L145.457 41.6961C145.497 39.86 145.511 39.7348 145.768 39.6931C146.348 39.5818 146.591 38.6637 146.159 38.2047C145.984 38.0238 145.673 37.996 144.377 38.0238C142.837 38.0656 142.797 38.0656 142.608 38.4411C142.338 38.928 142.527 39.554 143 39.6652C143.229 39.7209 143.351 39.8739 143.418 40.1938C143.459 40.4303 143.472 40.6668 143.432 40.7085C143.391 40.7502 142.797 40.7781 142.095 40.7781H140.839V40.3051C140.839 39.8878 140.893 39.8043 141.312 39.6652C141.73 39.5261 141.784 39.4566 141.784 39.0254C141.784 38.0377 141.69 37.996 139.894 37.996H138.287L138.071 38.4133Z" fill="#1D1616"/>
<path d="M177.757 38.149C177.716 38.2325 177.635 38.9419 177.608 39.7209C177.541 41.0563 177.554 41.1815 177.824 41.4597C178.122 41.7657 178.581 41.8352 178.918 41.6127C179.053 41.5292 179.148 41.1676 179.188 40.6111L179.256 39.7348L179.904 39.6931L180.538 39.6513V41.6683V43.6992H180.16C179.647 43.6992 178.891 43.9357 178.756 44.1444C178.554 44.4921 178.648 45.0763 178.945 45.285C179.188 45.4658 179.688 45.5076 181.524 45.5076C182.834 45.5076 183.914 45.4519 184.063 45.3685C184.387 45.1876 184.427 44.2417 184.117 43.9774C184.009 43.8801 183.604 43.7688 183.212 43.7131L182.496 43.6297L182.456 41.6405L182.415 39.6652H183.077H183.739L183.82 40.4164C183.86 40.8337 183.955 41.3067 184.049 41.4597C184.225 41.8074 184.684 41.8352 185.102 41.5292C185.372 41.3345 185.399 41.2093 185.399 39.9713C185.399 39.234 185.359 38.4829 185.318 38.302L185.237 37.996H181.538C179.04 37.996 177.824 38.0377 177.757 38.149Z" fill="#1D1616"/>
<path d="M148.455 40.9865C148.415 41.0839 148.401 41.5012 148.428 41.9046L148.469 42.6558L151.939 42.6836C155.314 42.7253 155.422 42.7114 155.557 42.4471C155.638 42.2802 155.692 41.8907 155.665 41.5707C155.625 41.0004 155.611 40.9865 155.017 40.8891C153.924 40.7083 148.523 40.7918 148.455 40.9865Z" fill="#1D1616"/>
<path d="M114.037 42.3361C113.7 42.8091 113.43 43.2542 113.43 43.3098C113.43 43.3794 113.686 43.8384 114.01 44.3253C114.51 45.1043 114.631 45.2155 115.023 45.2155C115.577 45.2294 115.577 45.0625 114.982 44.1584C114.726 43.755 114.51 43.3655 114.51 43.282C114.51 43.1151 115.212 41.9883 115.361 41.9188C115.415 41.891 115.455 41.7797 115.455 41.6684C115.455 41.5432 115.307 41.4737 115.05 41.4737C114.712 41.4737 114.55 41.6128 114.037 42.3361Z" fill="#1D1616"/>
<path d="M115.841 42.3305C115.504 42.8035 115.22 43.2347 115.193 43.2903C115.166 43.346 115.45 43.805 115.801 44.3058C116.368 45.1126 116.503 45.2239 116.881 45.2239C117.124 45.2239 117.327 45.1961 117.327 45.1543C117.327 45.1126 117.111 44.7509 116.854 44.3475C116.597 43.958 116.381 43.5129 116.381 43.3599C116.381 43.2208 116.57 42.7896 116.786 42.414C117.286 41.5794 117.286 41.4681 116.827 41.482C116.53 41.482 116.327 41.6628 115.841 42.3305Z" fill="#1D1616"/>
<path d="M186.964 41.6406C187.031 41.738 187.247 42.0997 187.45 42.4335C187.652 42.7813 187.828 43.1569 187.828 43.2821C187.828 43.4072 187.652 43.8524 187.423 44.2697C187.207 44.687 187.018 45.0626 187.018 45.1182C187.018 45.1878 187.193 45.2295 187.423 45.2295C187.747 45.2295 187.895 45.1043 188.26 44.5618C188.489 44.2001 188.773 43.8246 188.868 43.7272C189.138 43.4351 189.097 43.3099 188.354 42.364C187.787 41.6267 187.598 41.4737 187.274 41.4737C186.977 41.4737 186.896 41.5294 186.964 41.6406Z" fill="#1D1616"/>
<path d="M188.504 41.5294C188.504 41.5711 188.72 41.9606 188.976 42.4057C189.233 42.8508 189.449 43.2682 189.449 43.3377C189.449 43.4073 189.233 43.7967 188.976 44.2001C188.423 45.0487 188.409 45.1739 188.801 45.2712C189.152 45.3686 189.841 44.687 190.273 43.8107L190.543 43.2682L190.043 42.5448C189.76 42.1414 189.449 41.738 189.328 41.6407C189.139 41.4876 188.504 41.4042 188.504 41.5294Z" fill="#1D1616"/>
</svg>
