<svg width="74" height="74" viewBox="0 0 74 74" fill="none" xmlns="http://www.w3.org/2000/svg">
<g clip-path="url(#clip0_111_23587)">
<path d="M0.207031 0.210693H60.5423C64.0535 0.215144 67.4197 1.61195 69.9025 4.09478C72.3853 6.57761 73.7821 9.94377 73.7866 13.455V73.7902H13.4513C9.9401 73.7858 6.57394 72.389 4.09112 69.9062C1.60829 67.4233 0.211482 64.0572 0.207031 60.5459V0.210693Z" fill="#FE3501"/>
<path d="M60.7369 3.36412C63.3609 3.36746 65.8764 4.4113 67.7318 6.26672C69.5872 8.12214 70.6311 10.6377 70.6344 13.2616V70.6368H13.2592C10.6352 70.6335 8.1197 69.5897 6.26428 67.7343C4.40886 65.8788 3.36502 63.3633 3.36168 60.7394V3.36412H60.7369ZM60.7369 0.000488281H-0.00195312V60.7394C-0.00195312 64.2564 1.3952 67.6294 3.88214 70.1164C6.36909 72.6033 9.74211 74.0005 13.2592 74.0005H73.998V13.2616C73.998 9.74455 72.6009 6.37153 70.1139 3.88459C68.8825 2.65317 67.4206 1.67637 65.8117 1.00993C64.2028 0.343498 62.4784 0.000488281 60.7369 0.000488281Z" fill="white"/>
<path d="M21.8028 55.2944C21.3148 55.2797 20.8402 55.1306 20.4315 54.8636C20.0227 54.5965 19.6956 54.2218 19.4861 53.7808C19.1338 53.113 18.9625 52.3646 18.989 51.61C19.0156 50.8554 19.2391 50.1209 19.6375 49.4795C21.3782 46.797 24.7586 44.5392 29.4257 42.9414L29.5812 42.8868L29.6569 42.7396C31.2326 39.592 32.6116 36.3497 33.7858 33.0313L33.853 32.8505L33.7521 32.6824C32.9157 31.3987 32.2487 30.0123 31.7676 28.5577C30.2708 23.6342 31.5321 19.787 33.6344 18.9209C33.9546 18.7838 34.2994 18.7137 34.6477 18.7149C35.3147 18.7237 35.9558 18.9748 36.4515 19.4212C36.9105 19.8358 37.2983 20.323 37.5993 20.8634C38.5117 22.52 38.0576 26.405 36.3379 31.7952C36.3085 31.9003 36.2707 32.0012 36.2412 32.1021C36.2118 32.203 36.1655 32.325 36.1361 32.4259L36.0857 32.6067L36.1908 32.7665L36.2959 32.9178L36.3884 33.0482C38.2971 35.6931 40.4056 38.1881 42.6952 40.5112L42.8171 40.6416H42.9979H44.335C44.9951 40.6416 45.5963 40.6416 46.1177 40.6878C50.81 40.9611 53.8793 42.0879 54.7581 43.8665C54.9542 44.3025 55.042 44.7794 55.0142 45.2567C54.9864 45.734 54.8437 46.1975 54.5983 46.6078C54.3004 47.1677 53.8749 47.6498 53.3564 48.015C52.8378 48.3801 52.2406 48.6183 51.613 48.7101C51.4429 48.7319 51.2716 48.7431 51.1001 48.7437C49.5276 48.7437 47.6313 47.865 45.7729 46.2715L45.7015 46.2126C45.7015 46.2126 45.5795 46.0991 45.4113 45.9435C44.8353 45.4179 43.6412 44.3205 42.1234 42.8027L41.9973 42.6724H41.8123C40.0764 42.7483 38.3475 42.9379 36.6365 43.24C34.7717 43.5233 32.9307 43.9449 31.1285 44.5013L30.9603 44.5518L30.8804 44.7074C30.0942 46.263 29.2449 47.7683 28.3577 49.181C25.7383 53.2846 23.594 55.2944 21.8028 55.2944ZM27.0038 46.0696C24.3592 47.331 22.4419 48.8362 21.3151 50.5853C21.0978 50.9402 20.9788 51.3465 20.9703 51.7626C20.9689 52.0802 21.0409 52.3939 21.1805 52.6792C21.3698 53.0996 21.601 53.2972 21.828 53.2972H21.8617C22.1266 53.2636 23.6192 52.8516 26.7221 47.9238C27.0038 47.5034 27.2645 47.0829 27.5126 46.6625L28.2063 45.5104L27.0038 46.0696ZM47.0385 44.6863C47.6187 45.2161 49.6159 46.7171 51.1506 46.7171H51.3818C51.6981 46.659 51.9963 46.5271 52.252 46.332C52.5077 46.1369 52.7138 45.8842 52.8534 45.5945C52.9341 45.4668 52.9838 45.3219 52.9984 45.1714C53.013 45.021 52.9921 44.8693 52.9375 44.7284C52.5591 43.8875 50.2508 42.912 45.9832 42.664H44.8395L46.0294 43.7782C46.6181 44.329 46.8703 44.5854 47.0469 44.7032L47.0385 44.6863ZM34.963 35.5667C34.2399 37.4419 33.4074 39.397 32.495 41.369L32.1418 42.1384L32.9827 41.9366C34.2441 41.6254 35.5054 41.3774 36.7668 41.1839C37.6077 41.0494 38.4865 40.9359 39.3904 40.8518L40.1977 40.7845L39.6469 40.1665C38.9153 39.3676 37.9651 38.2996 37.0149 37.1434L35.2195 34.8982L34.963 35.5667ZM34.1894 20.897C33.3485 21.5908 32.474 24.0925 33.6596 27.9775C33.812 28.4742 33.9974 28.9602 34.2146 29.4322L34.6771 30.4161L34.9799 29.3692C35.7619 26.632 36.5398 23.1086 35.8208 21.843C35.5937 21.4226 35.127 20.712 34.6225 20.712H34.202L34.1894 20.897Z" fill="white"/>
</g>
<defs>
<clipPath id="clip0_111_23587">
<rect width="74" height="74" fill="white"/>
</clipPath>
</defs>
</svg>
