<svg width="40" height="40" viewBox="0 0 40 40" fill="none" xmlns="http://www.w3.org/2000/svg">
<path d="M22.3457 18.125C21.9145 18.125 21.5645 18.475 21.5645 18.9062C21.5645 19.3375 21.9145 19.6875 22.3457 19.6875C22.777 19.6875 23.127 19.3375 23.127 18.9062C23.127 18.475 22.777 18.125 22.3457 18.125Z" fill="white"/>
<path d="M19.2207 13.4375C18.7895 13.4375 18.4395 13.7875 18.4395 14.2188C18.4395 14.65 18.7895 15 19.2207 15C19.652 15 20.002 14.65 20.002 14.2188C20.002 13.7875 19.652 13.4375 19.2207 13.4375Z" fill="white"/>
<path d="M16.877 33.3594C16.4457 33.3594 16.0957 33.7094 16.0957 34.1406C16.0957 34.5719 16.4457 34.9219 16.877 34.9219C17.3082 34.9219 17.6582 34.5719 17.6582 34.1406C17.6582 33.7094 17.3082 33.3594 16.877 33.3594Z" fill="white"/>
<path d="M34.0475 25.3077C34.0734 25.1768 34.0651 25.0437 34.026 24.9202C33.8237 22.0889 32.785 19.4209 31.0149 17.1938C29.3564 15.1072 27.178 13.5535 24.688 12.675V4.55367C25.5975 4.23125 26.2505 3.36234 26.2505 2.34375C26.2505 1.05141 25.1991 0 23.9068 0H16.0943C14.8019 0 13.7505 1.05141 13.7505 2.34375C13.7505 3.36234 14.4036 4.23117 15.313 4.55367V12.6751C12.8188 13.5549 10.6378 15.1118 8.97848 17.2031C7.21434 19.4266 6.17895 22.088 5.97613 24.9089C5.93121 25.043 5.92434 25.1827 5.95176 25.3147C5.94262 25.5163 5.93793 25.725 5.93793 25.9376C5.93793 33.6916 12.2464 40 20.0004 40C27.7545 40 34.0629 33.6916 34.0629 25.9375C34.0629 25.727 34.0568 25.5165 34.0475 25.3077ZM16.3236 13.9866C16.6516 13.8859 16.8754 13.583 16.8754 13.2398V4.6875H17.6567C18.0881 4.6875 18.4379 4.33773 18.4379 3.90625C18.4379 3.47477 18.0881 3.125 17.6567 3.125H16.0942C15.6634 3.125 15.3129 2.77453 15.3129 2.34375C15.3129 1.91297 15.6634 1.5625 16.0942 1.5625H23.9067C24.3375 1.5625 24.6879 1.91297 24.6879 2.34375C24.6879 2.77453 24.3375 3.125 23.9067 3.125H22.3442C21.9128 3.125 21.5629 3.47477 21.5629 3.90625C21.5629 4.33773 21.9128 4.6875 22.3442 4.6875H23.1254V13.2398C23.1254 13.583 23.3493 13.8859 23.6772 13.9866C28.2053 15.378 31.5469 19.2524 32.3261 23.8568C28.2064 22.182 23.6562 22.384 19.6412 24.4625C17.6611 25.4879 15.5477 26.0078 13.3599 26.0078C11.3509 26.0078 9.40449 25.5681 7.56199 24.7002C8.05309 19.7297 11.5189 15.463 16.3236 13.9866ZM20.0004 38.4375C13.2578 38.4375 7.74582 33.0709 7.50934 26.3849C9.37082 27.1622 11.3704 27.5703 13.3598 27.5703C15.7658 27.5703 18.1863 26.9755 20.3596 25.85C24.209 23.8573 28.607 23.7869 32.4961 25.639C32.4984 25.7384 32.5004 25.838 32.5004 25.9375C32.5004 32.83 26.893 38.4375 20.0004 38.4375Z" fill="white"/>
<path d="M28.224 28.5604C27.8263 28.3921 27.3682 28.5777 27.1998 28.975C25.9709 31.8757 23.1456 33.7501 20.002 33.7501C19.5705 33.7501 19.2207 34.0998 19.2207 34.5313C19.2207 34.9628 19.5705 35.3126 20.002 35.3126C23.7743 35.3126 27.1644 33.0641 28.6385 29.5845C28.8068 29.1872 28.6212 28.7287 28.224 28.5604Z" fill="white"/>
<path d="M16.0957 18.125C14.8034 18.125 13.752 19.1764 13.752 20.4688C13.752 21.7611 14.8034 22.8125 16.0957 22.8125C17.388 22.8125 18.4395 21.7611 18.4395 20.4688C18.4395 19.1764 17.388 18.125 16.0957 18.125ZM16.0957 21.25C15.6649 21.25 15.3145 20.8995 15.3145 20.4688C15.3145 20.038 15.6649 19.6875 16.0957 19.6875C16.5265 19.6875 16.877 20.038 16.877 20.4688C16.877 20.8995 16.5265 21.25 16.0957 21.25Z" fill="white"/>
</svg>
