<svg width="40" height="40" viewBox="0 0 40 40" fill="none" xmlns="http://www.w3.org/2000/svg">
<g clip-path="url(#clip0_245_14469)">
<path d="M33.0494 10.4679L24.75 5.41631V2.1875C24.75 2.03003 24.6874 1.87901 24.5761 1.76766C24.4647 1.65631 24.3137 1.59375 24.1562 1.59375H19.4062C19.2488 1.59375 19.0978 1.65631 18.9864 1.76766C18.8751 1.87901 18.8125 2.03003 18.8125 2.1875V5.42403C17.9011 6.03993 17.1541 6.86938 16.6366 7.84011C16.1192 8.81084 15.847 9.89338 15.8438 10.9934V12.875L12.0437 10.025C11.941 9.94792 11.816 9.90625 11.6875 9.90625H3.96875C3.81128 9.90625 3.66026 9.96881 3.54891 10.0802C3.43756 10.1915 3.375 10.3425 3.375 10.5V12.875C3.37583 13.0235 3.43268 13.1661 3.53418 13.2744C3.63569 13.3828 3.77435 13.4488 3.92244 13.4592C3.76608 14.5502 3.18522 15.5352 2.30625 16.2L1.83125 16.5563C1.73156 16.631 1.65791 16.7353 1.62076 16.8542C1.5836 16.9732 1.58481 17.1008 1.62422 17.219C1.66363 17.3372 1.73923 17.4401 1.84033 17.5129C1.94142 17.5858 2.06288 17.625 2.1875 17.625H2.78125C3.83822 17.6231 4.86441 17.269 5.69764 16.6186C6.53087 15.9683 7.12362 15.0589 7.38222 14.034L8.41237 16.4375H8.125C7.96753 16.4375 7.8165 16.5001 7.70516 16.6114C7.59381 16.7228 7.53125 16.8738 7.53125 17.0312V19.4062C7.53125 19.5637 7.59381 19.7147 7.70516 19.8261C7.8165 19.9374 7.96753 20 8.125 20H8.71875V20.7505C8.71873 20.7715 8.7129 20.7921 8.7019 20.8101C8.69089 20.828 8.67515 20.8425 8.65641 20.852C8.31846 21.021 8.03423 21.2807 7.83558 21.602C7.63693 21.9234 7.53171 22.2938 7.53171 22.6716C7.53171 23.0494 7.63693 23.4197 7.83558 23.7411C8.03423 24.0625 8.31846 24.3222 8.65641 24.4911C8.67527 24.5007 8.69112 24.5153 8.70222 24.5333C8.71332 24.5514 8.71925 24.5721 8.71934 24.5933C8.71888 24.7197 8.68586 24.8438 8.62346 24.9537C8.56106 25.0637 8.47139 25.1557 8.36309 25.2208L7.56509 25.6994C7.01267 26.0331 6.55548 26.5035 6.23757 27.0651C5.91967 27.6268 5.75175 28.2609 5.75 28.9062V37.8125C5.75 37.97 5.81256 38.121 5.92391 38.2323C6.03525 38.3437 6.18628 38.4062 6.34375 38.4062H16.4375C16.595 38.4062 16.746 38.3437 16.8573 38.2323C16.9687 38.121 17.0312 37.97 17.0312 37.8125V37.7971C17.5421 38.19 18.168 38.4041 18.8125 38.4062H35.4375C36.2246 38.4053 36.9791 38.0922 37.5357 37.5357C38.0922 36.9791 38.4053 36.2246 38.4062 35.4375V20C38.4002 18.0862 37.9049 16.2058 36.9673 14.5374C36.0297 12.869 34.681 11.4682 33.0494 10.4679ZM20 2.78125H23.5625V5.15625H20V2.78125ZM15.8438 29.5V34.8438H6.9375V29.5H15.8438ZM17.0312 27.125H37.2188V34.25H17.0312V27.125ZM15.8438 22.6511C15.4031 21.6936 14.8446 20.7948 14.1813 19.9757C14.314 19.9502 14.4338 19.8795 14.5204 19.7757C14.607 19.672 14.655 19.5414 14.6562 19.4062V17.0312C14.6562 16.8738 14.5937 16.7228 14.4823 16.6114C14.371 16.5001 14.22 16.4375 14.0625 16.4375H13.4688V15.6781L15.8438 14.886V22.6511ZM8.71875 18.8125V17.625H13.4688V18.8125H8.71875ZM3.96875 16.235C4.60607 15.4403 5.00487 14.4811 5.11884 13.4688H6.29209C6.18565 14.0947 5.91427 14.681 5.5059 15.1672C5.09753 15.6535 4.56693 16.0221 3.96875 16.235ZM8.07987 12.6411C8.0339 12.5338 7.95735 12.4425 7.85977 12.3785C7.7622 12.3145 7.64793 12.2807 7.53125 12.2812H4.5625V11.0938H11.4898L15.1746 13.8577L12.6874 14.6889C12.5695 14.7282 12.4669 14.8034 12.394 14.9041C12.3212 15.0048 12.2817 15.1257 12.2812 15.25V16.4375H9.70378L8.07987 12.6411ZM8.17903 26.7171L8.97762 26.2421C9.26095 26.0701 9.49521 25.8281 9.65785 25.5393C9.8205 25.2505 9.90604 24.9247 9.90625 24.5933C9.90698 24.3515 9.84002 24.1144 9.71294 23.9087C9.58587 23.703 9.40375 23.537 9.18722 23.4295C9.04643 23.3591 8.92802 23.251 8.84527 23.1171C8.76251 22.9832 8.71867 22.829 8.71867 22.6716C8.71867 22.5142 8.76251 22.3599 8.84527 22.2261C8.92802 22.0922 9.04643 21.984 9.18722 21.9137C9.40371 21.8062 9.5858 21.6403 9.71287 21.4348C9.83995 21.2292 9.90694 20.9922 9.90625 20.7505V20H12.6132C14.6904 22.1469 15.8493 25.0188 15.8438 28.0061V28.3125H7.01172C7.09086 27.9829 7.23449 27.6722 7.43433 27.3984C7.63417 27.1245 7.88627 26.893 8.17606 26.7171H8.17903ZM6.9375 37.2188V36.0312H15.8438V37.2188H6.9375ZM35.4375 37.2188H18.8125C18.3401 37.2188 17.887 37.0311 17.553 36.697C17.2189 36.363 17.0312 35.9099 17.0312 35.4375H37.2188C37.2188 35.9099 37.0311 36.363 36.697 36.697C36.363 37.0311 35.9099 37.2188 35.4375 37.2188ZM37.2188 25.9375H17.0312V10.9934C17.0339 10.0677 17.2681 9.15736 17.7125 8.34527C18.1569 7.53318 18.7973 6.84513 19.5755 6.34375H23.99L32.4319 11.4827C33.8897 12.3765 35.0948 13.6283 35.9326 15.119C36.7704 16.6098 37.2131 18.29 37.2188 20V25.9375Z" fill="white"/>
<path d="M31.7491 12.7925L29.6769 11.4744C29.3089 11.2407 28.8849 11.1101 28.4492 11.0962C28.0135 11.0823 27.5821 11.1858 27.2 11.3956C26.8179 11.6055 26.4991 11.9141 26.2771 12.2892C26.055 12.6643 25.9377 13.0922 25.9375 13.5281V17.625C25.9401 18.5422 26.3043 19.4214 26.951 20.0719L30.6157 23.7365C30.9362 24.0589 31.3175 24.3145 31.7375 24.4885C32.1575 24.6624 32.6079 24.7513 33.0625 24.75H35.4375C35.595 24.75 35.746 24.6875 35.8573 24.5761C35.9687 24.4648 36.0312 24.3137 36.0312 24.1563V20.5938C36.0354 19.0374 35.6447 17.5055 34.8958 16.1411C34.1469 14.7768 33.0643 13.6247 31.7491 12.7925ZM34.8438 23.5625H33.0625C32.7639 23.5635 32.468 23.5051 32.1921 23.3909C31.9162 23.2766 31.6657 23.1087 31.4552 22.8969L27.7906 19.2323C27.366 18.8049 27.1268 18.2275 27.125 17.625V13.5281C27.1254 13.3051 27.1856 13.0863 27.2994 12.8944C27.4132 12.7026 27.5763 12.5448 27.7718 12.4374C27.9673 12.3301 28.188 12.2772 28.411 12.2842C28.6339 12.2912 28.8509 12.3578 29.0392 12.4772L31.1114 13.7959C32.2576 14.521 33.2011 15.5249 33.8538 16.7138C34.5065 17.9026 34.8471 19.2375 34.8438 20.5938V23.5625Z" fill="white"/>
<path d="M21.7812 9.3125C20.1187 9.3125 18.8125 11.1383 18.8125 13.4688C18.8125 15.7992 20.1187 17.625 21.7812 17.625C23.4437 17.625 24.75 15.7992 24.75 13.4688C24.75 11.1383 23.4437 9.3125 21.7812 9.3125ZM21.7812 16.4375C20.8158 16.4375 20 15.0778 20 13.4688C20 11.8597 20.8158 10.5 21.7812 10.5C22.7467 10.5 23.5625 11.8597 23.5625 13.4688C23.5625 15.0778 22.7467 16.4375 21.7812 16.4375Z" fill="white"/>
</g>
<defs>
<clipPath id="clip0_245_14469">
<rect width="38" height="38" fill="white" transform="translate(1 1)"/>
</clipPath>
</defs>
</svg>
