<svg width="40" height="40" viewBox="0 0 40 40" fill="none" xmlns="http://www.w3.org/2000/svg">
<g clip-path="url(#clip0_245_14396)">
<path d="M14.375 17.8968V12.6875C14.375 12.377 14.1236 12.125 13.8125 12.125H13.25V9.38056C13.25 8.77081 13.4975 8.17344 13.9289 7.74144C14.0639 7.60644 14.2158 7.49731 14.375 7.40112V9.3125C14.375 9.42331 14.4082 9.53244 14.4695 9.62469L15.5945 11.3122L16.5305 10.6884L15.5 9.14206V7.06925C15.5231 7.06869 15.545 7.0625 15.5681 7.0625H17.75H20C20.3111 7.0625 20.5625 6.8105 20.5625 6.5V3.125C20.5625 2.8145 20.3111 2.5625 20 2.5625H17.75H8.1875C8.10031 2.5625 8.01369 2.58275 7.93606 2.62156L5.68606 3.74656C5.49538 3.84219 5.375 4.03681 5.375 4.25V7.625C5.375 7.86744 5.52969 8.08175 5.75975 8.15881L8.75 9.15556V12.125H8.1875C7.87644 12.125 7.625 12.377 7.625 12.6875V17.8968C4.64881 19.2018 2.5625 22.1724 2.5625 25.625V36.875C2.5625 37.1855 2.81394 37.4375 3.125 37.4375H18.875C19.1861 37.4375 19.4375 37.1855 19.4375 36.875V25.625C19.4375 22.1724 17.3512 19.2018 14.375 17.8968ZM19.4375 5.9375H18.3125V3.6875H19.4375V5.9375ZM9.49025 8.21619L6.5 7.21944V4.59763L8.32025 3.6875H17.1875V5.9375H15.5681C14.6478 5.9375 13.7832 6.29581 13.1336 6.94606C12.4833 7.59688 12.125 8.46144 12.125 9.38056V12.125H9.875V8.75C9.875 8.50756 9.72031 8.29325 9.49025 8.21619ZM13.25 13.25V14.375H8.75V13.25H13.25ZM8.75 15.5H13.25V17.5014C12.5322 17.3023 11.7802 17.1875 11 17.1875C10.2198 17.1875 9.46775 17.3023 8.75 17.5014V15.5ZM18.3125 36.3125H3.6875V25.625C3.6875 21.593 6.968 18.3125 11 18.3125C15.032 18.3125 18.3125 21.593 18.3125 25.625V36.3125Z" fill="white"/>
<path d="M36.875 11H17.75C17.4389 11 17.1875 11.252 17.1875 11.5625V14.9375C17.1875 15.248 17.4389 15.5 17.75 15.5H18.5274L19.4971 17.4389C19.5922 17.6296 19.7868 17.75 20 17.75H24.5V19.4375C24.5 19.748 24.7514 20 25.0625 20H25.625V35.75C25.625 36.6804 26.3821 37.4375 27.3125 37.4375C28.2429 37.4375 29 36.6804 29 35.75V20H29.5625C29.8736 20 30.125 19.748 30.125 19.4375V17.75H34.625C34.8382 17.75 35.0328 17.6296 35.1284 17.4389L36.0976 15.5H36.875C37.1861 15.5 37.4375 15.248 37.4375 14.9375V11.5625C37.4375 11.252 37.1861 11 36.875 11ZM27.875 35.75C27.875 36.0599 27.623 36.3125 27.3125 36.3125C27.002 36.3125 26.75 36.0599 26.75 35.75V20H27.875V35.75ZM29 18.875H28.4375H26.1875H25.625V17.75H29V18.875ZM34.2774 16.625H29.5625H25.0625H20.3476L19.7851 15.5H34.8399L34.2774 16.625ZM36.3125 14.375H18.3125V12.125H36.3125V14.375Z" fill="white"/>
<path d="M31.25 6.5C32.4909 6.5 33.5 7.50912 33.5 8.75C33.5 9.0605 33.7514 9.3125 34.0625 9.3125C34.3736 9.3125 34.625 9.0605 34.625 8.75C34.625 7.50912 35.6341 6.5 36.875 6.5C37.1861 6.5 37.4375 6.248 37.4375 5.9375C37.4375 5.627 37.1861 5.375 36.875 5.375C35.6341 5.375 34.625 4.36587 34.625 3.125C34.625 2.8145 34.3736 2.5625 34.0625 2.5625C33.7514 2.5625 33.5 2.8145 33.5 3.125C33.5 4.36587 32.4909 5.375 31.25 5.375C30.9389 5.375 30.6875 5.627 30.6875 5.9375C30.6875 6.248 30.9389 6.5 31.25 6.5ZM34.0625 4.98856C34.3122 5.36431 34.6357 5.68775 35.0114 5.9375C34.6357 6.18725 34.3122 6.51069 34.0625 6.88644C33.8127 6.51069 33.4893 6.18725 33.1136 5.9375C33.4893 5.68775 33.8127 5.36431 34.0625 4.98856Z" fill="white"/>
<path d="M21.6875 3.125H22.8125V4.25H21.6875V3.125Z" fill="white"/>
<path d="M23.9375 3.125H25.0625V4.25H23.9375V3.125Z" fill="white"/>
<path d="M21.6875 5.375H22.8125V6.5H21.6875V5.375Z" fill="white"/>
<path d="M23.9375 5.375H25.0625V6.5H23.9375V5.375Z" fill="white"/>
</g>
<defs>
<clipPath id="clip0_245_14396">
<rect width="36" height="36" fill="white" transform="translate(2 2)"/>
</clipPath>
</defs>
</svg>
