<svg width="40" height="40" viewBox="0 0 40 40" fill="none" xmlns="http://www.w3.org/2000/svg">
<path d="M27.7501 25.7705C27.4514 25.7705 27.1534 25.7972 26.8603 25.8502C25.657 22.9125 22.7771 20.9644 19.5774 20.9644C16.798 20.9644 14.3506 22.4129 12.9504 24.5947C12.0749 24.185 11.0994 23.9547 10.0706 23.9547C6.3108 23.9547 3.25195 27.0135 3.25195 30.7733C3.25195 34.5332 6.3108 37.592 10.0706 37.592C12.0814 37.592 13.8911 36.7166 15.1402 35.3275C16.4043 36.1938 17.9326 36.7015 19.5774 36.7015C21.5058 36.7015 23.3367 36.0079 24.7744 34.7407C25.6315 35.3804 26.6742 35.7289 27.7501 35.7289C30.4957 35.7289 32.7293 33.4952 32.7293 30.7497C32.7293 28.0041 30.4957 25.7705 27.7501 25.7705ZM10.0706 36.7326C6.78466 36.7326 4.11133 34.0593 4.11133 30.7733C4.11133 27.4874 6.78467 24.814 10.0706 24.814C10.9456 24.814 11.7762 25.0051 12.5254 25.3453C12.0032 26.3971 11.7089 27.5812 11.7089 28.8329C11.7089 31.2179 12.7756 33.3582 14.4568 34.8024C13.3669 35.988 11.8043 36.7326 10.0706 36.7326ZM27.7501 34.8695C26.7527 34.8695 25.7896 34.5074 25.0385 33.8498C24.8701 33.7024 24.6169 33.7089 24.4563 33.8646C23.1415 35.1399 21.4088 35.8421 19.5774 35.8421C15.7125 35.8421 12.5682 32.6978 12.5682 28.8329C12.5682 24.9681 15.7125 21.8237 19.5774 21.8237C22.5414 21.8237 25.1972 23.7002 26.186 26.4931C26.2606 26.7037 26.484 26.8219 26.7003 26.7652C27.0422 26.6754 27.3954 26.6299 27.7501 26.6299C30.0217 26.6299 31.8699 28.478 31.8699 30.7497C31.8699 33.0214 30.0218 34.8695 27.7501 34.8695Z" fill="white"/>
<path d="M19.5783 23.196C16.4701 23.196 13.9414 25.7247 13.9414 28.833C13.9414 29.0703 14.1338 29.2627 14.3711 29.2627C14.6084 29.2627 14.8008 29.0703 14.8008 28.833C14.8008 26.1986 16.944 24.0554 19.5783 24.0554C19.8156 24.0554 20.008 23.863 20.008 23.6257C20.008 23.3884 19.8156 23.196 19.5783 23.196Z" fill="white"/>
<path d="M32.4049 11.8671C33.536 11.8671 34.4563 10.9469 34.4563 9.81575C34.4563 8.68464 33.536 7.7644 32.4049 7.7644C31.2738 7.7644 30.3535 8.68462 30.3535 9.81575C30.3535 10.9469 31.2738 11.8671 32.4049 11.8671ZM32.4049 8.62378C33.0622 8.62378 33.5969 9.1585 33.5969 9.81575C33.5969 10.473 33.0622 11.0077 32.4049 11.0077C31.7476 11.0077 31.2129 10.473 31.2129 9.81575C31.2129 9.1585 31.7476 8.62378 32.4049 8.62378Z" fill="white"/>
<path d="M8.11405 19.0029C7.03773 19.0029 6.16211 19.8785 6.16211 20.9549C6.16211 22.0312 7.03772 22.9068 8.11405 22.9068C9.19038 22.9068 10.066 22.0312 10.066 20.9549C10.066 19.8785 9.19036 19.0029 8.11405 19.0029ZM8.11405 22.0474C7.51161 22.0474 7.02148 21.5573 7.02148 20.9549C7.02148 20.3524 7.51159 19.8623 8.11405 19.8623C8.7165 19.8623 9.20661 20.3524 9.20661 20.9549C9.20661 21.5573 8.71648 22.0474 8.11405 22.0474Z" fill="white"/>
<path d="M11.3608 19.6635C12.1606 19.6635 12.8114 19.0127 12.8114 18.2128C12.8114 17.4129 12.1606 16.7622 11.3608 16.7622C10.5609 16.7622 9.91016 17.4129 9.91016 18.2128C9.91014 19.0127 10.5609 19.6635 11.3608 19.6635ZM11.3608 17.6216C11.6868 17.6216 11.952 17.8868 11.952 18.2128C11.952 18.5389 11.6868 18.8041 11.3608 18.8041C11.0348 18.8041 10.7695 18.5389 10.7695 18.2128C10.7695 17.8868 11.0348 17.6216 11.3608 17.6216Z" fill="white"/>
<path d="M11.266 15.5894C14.7803 15.5894 17.6395 12.7303 17.6395 9.21592C17.6395 5.70162 14.7804 2.84253 11.266 2.84253C7.75167 2.84253 4.89258 5.70162 4.89258 9.21592C4.89259 12.7302 7.75169 15.5894 11.266 15.5894ZM11.266 3.7019C14.3065 3.7019 16.7801 6.17547 16.7801 9.21592C16.7801 12.2564 14.3065 14.73 11.266 14.73C8.22555 14.73 5.75195 12.2564 5.75195 9.21592C5.75195 6.17545 8.22556 3.7019 11.266 3.7019Z" fill="white"/>
<path d="M7.79102 9.2158C7.79102 7.29991 9.34972 5.74121 11.2657 5.74121C11.503 5.74121 11.6953 5.54882 11.6953 5.31152C11.6953 5.07423 11.503 4.88184 11.2657 4.88184C8.87586 4.88184 6.93164 6.82604 6.93164 9.2158C6.93164 9.4531 7.12403 9.64549 7.36133 9.64549C7.59863 9.64549 7.79102 9.4531 7.79102 9.2158Z" fill="white"/>
<path d="M25.5753 10.2955C27.2688 10.2955 28.6466 8.91771 28.6466 7.22418C28.6466 5.53064 27.2688 4.15283 25.5753 4.15283C23.8817 4.15283 22.5039 5.53064 22.5039 7.22418C22.5039 8.91771 23.8817 10.2955 25.5753 10.2955ZM25.5753 5.01222C26.795 5.01222 27.7873 6.00449 27.7873 7.22419C27.7873 8.44389 26.795 9.43616 25.5753 9.43616C24.3555 9.43616 23.3633 8.44389 23.3633 7.22419C23.3633 6.00449 24.3555 5.01222 25.5753 5.01222Z" fill="white"/>
<path d="M16.0293 16.695C16.0293 17.9214 17.027 18.9191 18.2534 18.9191C19.4797 18.9191 20.4774 17.9214 20.4774 16.695C20.4774 15.4687 19.4797 14.4709 18.2534 14.4709C17.027 14.4709 16.0293 15.4687 16.0293 16.695ZM18.2534 15.3303C19.0059 15.3303 19.6181 15.9425 19.6181 16.695C19.6181 17.4475 19.0059 18.0597 18.2534 18.0597C17.5009 18.0597 16.8887 17.4475 16.8887 16.695C16.8887 15.9425 17.5009 15.3303 18.2534 15.3303Z" fill="white"/>
<path d="M27.5 23.2089C27.5 24.0798 28.2086 24.7884 29.0795 24.7884C29.9504 24.7884 30.659 24.0798 30.659 23.2089C30.659 22.338 29.9504 21.6294 29.0795 21.6294C28.2086 21.6294 27.5 22.338 27.5 23.2089ZM29.7996 23.2089C29.7996 23.606 29.4766 23.929 29.0795 23.929C28.6824 23.929 28.3594 23.606 28.3594 23.2089C28.3594 22.8118 28.6824 22.4888 29.0795 22.4888C29.4766 22.4888 29.7996 22.8118 29.7996 23.2089Z" fill="white"/>
<path d="M25.4531 16.4451C25.4531 18.7645 27.3401 20.6515 29.6595 20.6515C31.9788 20.6515 33.8658 18.7645 33.8658 16.4451C33.8658 14.1257 31.9788 12.2388 29.6594 12.2388C27.34 12.2388 25.4531 14.1258 25.4531 16.4451ZM29.6594 13.0981C31.505 13.0981 33.0064 14.5996 33.0064 16.4451C33.0064 18.2906 31.505 19.7921 29.6594 19.7921C27.8139 19.7921 26.3125 18.2906 26.3125 16.4451C26.3125 14.5996 27.8139 13.0981 29.6594 13.0981Z" fill="white"/>
<path d="M34.2749 20.7747C32.9107 20.7747 31.8008 21.8845 31.8008 23.2488C31.8008 24.613 32.9107 25.7229 34.2749 25.7229C35.6391 25.7229 36.749 24.613 36.749 23.2488C36.749 21.8845 35.6391 20.7747 34.2749 20.7747ZM34.2749 24.8635C33.3845 24.8635 32.6602 24.1391 32.6602 23.2488C32.6602 22.3584 33.3845 21.634 34.2749 21.634C35.1653 21.634 35.8896 22.3584 35.8896 23.2488C35.8896 24.1391 35.1653 24.8635 34.2749 24.8635Z" fill="white"/>
<line x1="8.44024" y1="0.76295" x2="29.4402" y2="39.763" stroke="white"/>
</svg>
