<svg width="40" height="40" viewBox="0 0 40 40" fill="none" xmlns="http://www.w3.org/2000/svg">
<g clip-path="url(#clip0_373_37029)">
<path d="M23.927 27.3867C24.1452 27.5504 24.449 27.5354 24.65 27.351L31.45 21.1176C31.6807 20.9061 31.6962 20.5476 31.4846 20.3169C31.273 20.0863 30.9145 20.0708 30.6839 20.2824L24.2307 26.1967L22.3403 24.78C22.0899 24.5922 21.7347 24.643 21.547 24.8933C21.3592 25.1437 21.4099 25.4989 21.6603 25.6867L23.927 27.3867Z" fill="white"/>
<path d="M5.56667 10.5C6.36779 10.5581 7.13649 10.84 7.78517 11.3137C8.11535 11.5579 8.41066 11.846 8.66293 12.17C6.48467 16.0023 5.25727 19.6324 5.02947 22.9616C4.80852 26.3046 5.94829 29.5949 8.18977 32.0849C10.3022 34.4694 13.3004 35.8827 16.4841 35.9949C16.6172 35.9994 16.7498 36.0011 16.8807 36.0011C20.0275 35.9981 23.0442 34.7453 25.2674 32.5184C27.3025 32.8275 29.3815 32.4142 31.1437 31.3505L35.1297 35.3359C36.0221 36.1733 37.4181 36.1511 38.2835 35.2858C39.1489 34.4204 39.171 33.0244 38.3336 32.1319L34.3482 28.146C36.0107 25.344 36.0402 21.865 34.4254 19.0352C32.8107 16.2054 29.8005 14.4609 26.5424 14.4667C26.4659 14.4667 26.3917 14.4763 26.3157 14.478C24.0775 10.0147 21.1697 5.92007 17.6933 2.33603C17.4802 2.12077 17.1899 1.99976 16.887 2H16.8796C16.5803 2.00245 16.2945 2.12494 16.0863 2.34C14.6813 3.78354 13.3664 5.31208 12.1491 6.91697C11.4928 5.56351 11.1784 4.06982 11.2333 2.56667C11.2333 2.25371 10.9796 2 10.6667 2C10.3537 2 10.1 2.25371 10.1 2.56667C10.1 9.23577 5.75933 9.36667 5.56667 9.36667C5.25371 9.36667 5 9.62037 5 9.93333C5 10.2463 5.25371 10.5 5.56667 10.5ZM37.534 32.9326C37.9455 33.3797 37.9312 34.0718 37.5015 34.5015C37.0718 34.9312 36.3797 34.9456 35.9326 34.534L32.0997 30.7011C32.698 30.236 33.236 29.698 33.7011 29.0997L37.534 32.9326ZM34.4842 23.5424C34.4842 26.7549 32.5491 29.651 29.5811 30.8803C26.6132 32.1096 23.197 31.43 20.9255 29.1583C18.654 26.8867 17.9747 23.4704 19.2042 20.5026C20.4337 17.5347 23.3299 15.5998 26.5424 15.6C30.9267 15.605 34.4795 19.1581 34.4842 23.5424ZM16.8892 3.13617C20.1779 6.52938 22.9481 10.3891 25.1104 14.5908C20.9324 15.2536 17.7681 18.7176 17.4848 22.9383C17.2016 27.1591 19.8747 31.0148 23.9267 32.23C21.8813 34.0142 19.2346 34.9548 16.522 34.8616C13.6465 34.7593 10.9388 33.482 9.03127 31.3278C6.99476 29.0657 5.95921 26.0764 6.15997 23.0392C6.3651 20.0404 7.4412 16.7622 9.3401 13.2869C9.87887 14.5544 10.1381 15.9232 10.1 17.3C10.1 17.613 10.3537 17.8667 10.6667 17.8667C10.9796 17.8667 11.2333 17.613 11.2333 17.3C11.2333 10.623 15.5842 10.5 15.7667 10.5C16.0796 10.5 16.3333 10.2463 16.3333 9.93333C16.3333 9.62037 16.0796 9.36667 15.7667 9.36667C14.9655 9.30859 14.1968 9.02664 13.5482 8.55293C13.2866 8.35791 13.0472 8.13483 12.8342 7.88767C14.0823 6.21828 15.4368 4.63115 16.8892 3.13617ZM10.6667 6.35427C10.8889 7.0068 11.2075 7.6224 11.6119 8.18063C11.6205 8.19535 11.6299 8.20955 11.6402 8.22313C12.1744 8.94748 12.8737 9.5338 13.6802 9.93333C12.2336 10.6705 11.1467 11.9614 10.6667 13.5124C10.4631 12.9218 10.181 12.3612 9.828 11.8458C9.8092 11.8103 9.78638 11.777 9.76 11.7467C9.21893 10.9769 8.49491 10.3537 7.65313 9.93333C9.09973 9.19619 10.1867 7.90527 10.6667 6.35427Z" fill="white"/>
<path d="M15.3021 32.0423C9.5805 31.0019 8.98777 24.8791 8.96737 24.619C8.94124 24.306 8.66635 24.0735 8.35339 24.0997C8.04042 24.1258 7.8079 24.4007 7.83403 24.7136C7.84027 24.7856 8.51404 31.9602 15.0976 33.157C15.1316 33.1633 15.1661 33.1665 15.2007 33.1666C15.494 33.1666 15.7388 32.9427 15.765 32.6506C15.7912 32.3585 15.5902 32.0946 15.3016 32.0423H15.3021Z" fill="white"/>
</g>
<defs>
<clipPath id="clip0_373_37029">
<rect width="34" height="34" fill="white" transform="translate(5 2)"/>
</clipPath>
</defs>
</svg>
