<svg width="40" height="40" viewBox="0 0 40 40" fill="none" xmlns="http://www.w3.org/2000/svg">
<path d="M11.875 26.25C13.482 26.25 15.0529 25.7735 16.389 24.8807C17.7252 23.9879 18.7666 22.719 19.3815 21.2343C19.9965 19.7497 20.1574 18.116 19.8439 16.5399C19.5304 14.9638 18.7565 13.5161 17.6202 12.3798C16.4839 11.2435 15.0362 10.4696 13.4601 10.1561C11.884 9.84262 10.2503 10.0035 8.7657 10.6185C7.28105 11.2334 6.0121 12.2748 5.11931 13.611C4.22652 14.9471 3.75 16.518 3.75 18.125C3.75248 20.2791 4.6093 22.3443 6.1325 23.8675C7.65569 25.3907 9.72088 26.2475 11.875 26.25ZM11.875 11.25C13.2347 11.25 14.564 11.6532 15.6945 12.4086C16.8251 13.1641 17.7063 14.2378 18.2267 15.4941C18.747 16.7503 18.8832 18.1326 18.6179 19.4662C18.3526 20.7999 17.6978 22.0249 16.7364 22.9864C15.7749 23.9478 14.5499 24.6026 13.2162 24.8679C11.8826 25.1332 10.5003 24.997 9.24405 24.4767C7.98781 23.9563 6.91408 23.0751 6.15865 21.9445C5.40321 20.814 5 19.4847 5 18.125C5.00215 16.3023 5.72717 14.5549 7.01602 13.266C8.30486 11.9772 10.0523 11.2522 11.875 11.25Z" fill="white"/>
<path d="M7.5 18.125C7.50132 16.9651 7.96268 15.8531 8.78287 15.0329C9.60305 14.2127 10.7151 13.7513 11.875 13.75C12.0408 13.75 12.1997 13.6842 12.3169 13.5669C12.4342 13.4497 12.5 13.2908 12.5 13.125C12.5 12.9592 12.4342 12.8003 12.3169 12.6831C12.1997 12.5658 12.0408 12.5 11.875 12.5C10.3837 12.5018 8.95403 13.095 7.89953 14.1495C6.84504 15.204 6.25182 16.6337 6.25 18.125C6.25 18.2908 6.31585 18.4497 6.43306 18.5669C6.55027 18.6842 6.70924 18.75 6.875 18.75C7.04076 18.75 7.19973 18.6842 7.31694 18.5669C7.43415 18.4497 7.5 18.2908 7.5 18.125Z" fill="white"/>
<path d="M26.875 23.125C25.268 23.125 23.6971 23.6015 22.361 24.4943C21.0248 25.3871 19.9834 26.656 19.3685 28.1407C18.7535 29.6253 18.5926 31.259 18.9061 32.8351C19.2196 34.4112 19.9935 35.8589 21.1298 36.9952C22.2661 38.1315 23.7138 38.9054 25.2899 39.2189C26.866 39.5324 28.4997 39.3715 29.9843 38.7565C31.469 38.1416 32.7379 37.1002 33.6307 35.764C34.5235 34.4279 35 32.857 35 31.25C34.9975 29.0959 34.1407 27.0307 32.6175 25.5075C31.0943 23.9843 29.0291 23.1275 26.875 23.125ZM26.875 38.125C25.5153 38.125 24.186 37.7218 23.0555 36.9664C21.9249 36.2109 21.0437 35.1372 20.5233 33.8809C20.003 32.6247 19.8668 31.2424 20.1321 29.9088C20.3974 28.5751 21.0522 27.3501 22.0136 26.3886C22.9751 25.4272 24.2001 24.7724 25.5338 24.5071C26.8674 24.2418 28.2497 24.378 29.506 24.8983C30.7622 25.4187 31.8359 26.2999 32.5914 27.4305C33.3468 28.561 33.75 29.8903 33.75 31.25C33.7479 33.0727 33.0228 34.8201 31.734 36.109C30.4451 37.3978 28.6977 38.1228 26.875 38.125Z" fill="white"/>
<path d="M26.875 25.625C25.3837 25.6268 23.954 26.22 22.8995 27.2745C21.845 28.329 21.2518 29.7587 21.25 31.25C21.25 31.4158 21.3158 31.5747 21.4331 31.6919C21.5503 31.8092 21.7092 31.875 21.875 31.875C22.0408 31.875 22.1997 31.8092 22.3169 31.6919C22.4342 31.5747 22.5 31.4158 22.5 31.25C22.5013 30.0901 22.9627 28.9781 23.7829 28.1579C24.6031 27.3377 25.7151 26.8763 26.875 26.875C27.0408 26.875 27.1997 26.8092 27.3169 26.6919C27.4342 26.5747 27.5 26.4158 27.5 26.25C27.5 26.0842 27.4342 25.9253 27.3169 25.8081C27.1997 25.6908 27.0408 25.625 26.875 25.625Z" fill="white"/>
<path d="M23.125 9.375C23.9903 9.375 24.8362 9.11841 25.5556 8.63768C26.2751 8.15695 26.8358 7.47367 27.167 6.67424C27.4981 5.87481 27.5847 4.99515 27.4159 4.14648C27.2471 3.29781 26.8304 2.51826 26.2186 1.90641C25.6067 1.29455 24.8272 0.877877 23.9785 0.709066C23.1299 0.540256 22.2502 0.626896 21.4508 0.958029C20.6513 1.28916 19.9681 1.84992 19.4873 2.56938C19.0066 3.28885 18.75 4.13471 18.75 5C18.7513 6.15992 19.2127 7.27195 20.0329 8.09213C20.8531 8.91232 21.9651 9.37368 23.125 9.375ZM23.125 1.875C23.7431 1.875 24.3473 2.05828 24.8612 2.40166C25.3751 2.74504 25.7756 3.2331 26.0121 3.80412C26.2486 4.37513 26.3105 5.00347 26.19 5.60966C26.0694 6.21585 25.7717 6.77267 25.3347 7.20971C24.8977 7.64675 24.3408 7.94438 23.7347 8.06496C23.1285 8.18553 22.5001 8.12365 21.9291 7.88713C21.3581 7.6506 20.87 7.25006 20.5267 6.73616C20.1833 6.22225 20 5.61807 20 5C20.001 4.1715 20.3306 3.37723 20.9164 2.79139C21.5022 2.20555 22.2965 1.87599 23.125 1.875Z" fill="white"/>
<path d="M21.875 5C21.875 4.66848 22.0067 4.35054 22.2411 4.11612C22.4755 3.8817 22.7935 3.75 23.125 3.75C23.2908 3.75 23.4497 3.68415 23.5669 3.56694C23.6842 3.44973 23.75 3.29076 23.75 3.125C23.75 2.95924 23.6842 2.80027 23.5669 2.68306C23.4497 2.56585 23.2908 2.5 23.125 2.5C22.462 2.5 21.8261 2.76339 21.3572 3.23223C20.8884 3.70107 20.625 4.33696 20.625 5C20.625 5.16576 20.6908 5.32473 20.8081 5.44194C20.9253 5.55915 21.0842 5.625 21.25 5.625C21.4158 5.625 21.5747 5.55915 21.6919 5.44194C21.8092 5.32473 21.875 5.16576 21.875 5Z" fill="white"/>
<path d="M17.5 31.875C17.5 31.0097 17.2434 30.1638 16.7627 29.4444C16.2819 28.7249 15.5987 28.1642 14.7992 27.833C13.9998 27.5019 13.1201 27.4153 12.2715 27.5841C11.4228 27.7529 10.6433 28.1696 10.0314 28.7814C9.41956 29.3933 9.00288 30.1728 8.83407 31.0215C8.66526 31.8701 8.7519 32.7498 9.08303 33.5492C9.41416 34.3487 9.97492 35.0319 10.6944 35.5127C11.4138 35.9934 12.2597 36.25 13.125 36.25C14.2849 36.2487 15.3969 35.7873 16.2171 34.9671C17.0373 34.1469 17.4987 33.0349 17.5 31.875ZM13.125 35C12.5069 35 11.9027 34.8167 11.3888 34.4733C10.8749 34.13 10.4744 33.6419 10.2379 33.0709C10.0014 32.4999 9.93947 31.8715 10.06 31.2653C10.1806 30.6592 10.4783 30.1023 10.9153 29.6653C11.3523 29.2283 11.9092 28.9306 12.5153 28.81C13.1215 28.6895 13.7499 28.7514 14.3209 28.9879C14.8919 29.2244 15.38 29.6249 15.7233 30.1388C16.0667 30.6527 16.25 31.2569 16.25 31.875C16.249 32.7035 15.9195 33.4978 15.3336 34.0836C14.7478 34.6694 13.9535 34.999 13.125 35Z" fill="white"/>
<path d="M13.125 29.375C12.462 29.375 11.8261 29.6384 11.3572 30.1072C10.8884 30.5761 10.625 31.212 10.625 31.875C10.625 32.0408 10.6908 32.1997 10.8081 32.3169C10.9253 32.4342 11.0842 32.5 11.25 32.5C11.4158 32.5 11.5747 32.4342 11.6919 32.3169C11.8092 32.1997 11.875 32.0408 11.875 31.875C11.875 31.5435 12.0067 31.2255 12.2411 30.9911C12.4755 30.7567 12.7935 30.625 13.125 30.625C13.2908 30.625 13.4497 30.5592 13.5669 30.4419C13.6842 30.3247 13.75 30.1658 13.75 30C13.75 29.8342 13.6842 29.6753 13.5669 29.5581C13.4497 29.4408 13.2908 29.375 13.125 29.375Z" fill="white"/>
<path d="M25 16.25C25 17.3625 25.3299 18.4501 25.948 19.3751C26.5661 20.3001 27.4446 21.0211 28.4724 21.4468C29.5002 21.8726 30.6312 21.984 31.7224 21.7669C32.8135 21.5499 33.8158 21.0141 34.6025 20.2275C35.3891 19.4408 35.9249 18.4385 36.1419 17.3474C36.359 16.2562 36.2476 15.1252 35.8218 14.0974C35.3961 13.0696 34.6751 12.1911 33.7501 11.573C32.8251 10.9549 31.7375 10.625 30.625 10.625C29.1337 10.6268 27.704 11.22 26.6495 12.2745C25.595 13.329 25.0018 14.7587 25 16.25ZM30.625 11.875C31.4903 11.875 32.3362 12.1316 33.0556 12.6123C33.7751 13.0931 34.3358 13.7763 34.667 14.5758C34.9981 15.3752 35.0847 16.2549 34.9159 17.1035C34.7471 17.9522 34.3304 18.7317 33.7186 19.3436C33.1067 19.9554 32.3272 20.3721 31.4785 20.5409C30.6299 20.7097 29.7502 20.6231 28.9508 20.292C28.1513 19.9608 27.4681 19.4001 26.9873 18.6806C26.5066 17.9612 26.25 17.1153 26.25 16.25C26.2513 15.0901 26.7127 13.9781 27.5329 13.1579C28.3531 12.3377 29.4651 11.8763 30.625 11.875Z" fill="white"/>
<path d="M28.125 16.875C28.2908 16.875 28.4497 16.8092 28.5669 16.6919C28.6842 16.5747 28.75 16.4158 28.75 16.25C28.75 15.7527 28.9475 15.2758 29.2992 14.9242C29.6508 14.5725 30.1277 14.375 30.625 14.375C30.7908 14.375 30.9497 14.3092 31.0669 14.1919C31.1842 14.0747 31.25 13.9158 31.25 13.75C31.25 13.5842 31.1842 13.4253 31.0669 13.3081C30.9497 13.1908 30.7908 13.125 30.625 13.125C29.7965 13.126 29.0022 13.4556 28.4164 14.0414C27.8306 14.6272 27.501 15.4215 27.5 16.25C27.5 16.4158 27.5658 16.5747 27.6831 16.6919C27.8003 16.8092 27.9592 16.875 28.125 16.875Z" fill="white"/>
<path d="M15 8.75C15.3708 8.75 15.7334 8.64003 16.0417 8.43401C16.35 8.22798 16.5904 7.93514 16.7323 7.59253C16.8742 7.24992 16.9113 6.87292 16.839 6.50921C16.7666 6.14549 16.588 5.8114 16.3258 5.54918C16.0636 5.28695 15.7295 5.10838 15.3658 5.03603C15.0021 4.96368 14.6251 5.00081 14.2825 5.14273C13.9399 5.28464 13.647 5.52496 13.441 5.83331C13.235 6.14165 13.125 6.50416 13.125 6.875C13.125 7.37228 13.3225 7.8492 13.6742 8.20083C14.0258 8.55246 14.5027 8.75 15 8.75ZM15 6.25C15.1236 6.25 15.2445 6.28666 15.3472 6.35533C15.45 6.42401 15.5301 6.52162 15.5774 6.63582C15.6247 6.75003 15.6371 6.87569 15.613 6.99693C15.5889 7.11817 15.5294 7.22953 15.4419 7.31694C15.3545 7.40435 15.2432 7.46388 15.1219 7.48799C15.0007 7.51211 14.875 7.49973 14.7608 7.45243C14.6466 7.40512 14.549 7.32501 14.4803 7.22223C14.4117 7.11945 14.375 6.99861 14.375 6.875C14.375 6.70924 14.4408 6.55027 14.5581 6.43306C14.6753 6.31585 14.8342 6.25 15 6.25Z" fill="white"/>
<path d="M24.375 12.5C24.375 12.1292 24.265 11.7666 24.059 11.4583C23.853 11.15 23.5601 10.9096 23.2175 10.7677C22.8749 10.6258 22.4979 10.5887 22.1342 10.661C21.7705 10.7334 21.4364 10.912 21.1742 11.1742C20.912 11.4364 20.7334 11.7705 20.661 12.1342C20.5887 12.4979 20.6258 12.8749 20.7677 13.2175C20.9096 13.5601 21.15 13.853 21.4583 14.059C21.7666 14.265 22.1292 14.375 22.5 14.375C22.9973 14.375 23.4742 14.1775 23.8258 13.8258C24.1775 13.4742 24.375 12.9973 24.375 12.5ZM21.875 12.5C21.875 12.3764 21.9117 12.2556 21.9803 12.1528C22.049 12.05 22.1466 11.9699 22.2608 11.9226C22.375 11.8753 22.5007 11.8629 22.6219 11.887C22.7432 11.9111 22.8545 11.9707 22.9419 12.0581C23.0294 12.1455 23.0889 12.2568 23.113 12.3781C23.1371 12.4993 23.1247 12.625 23.0774 12.7392C23.0301 12.8534 22.95 12.951 22.8472 13.0197C22.7445 13.0883 22.6236 13.125 22.5 13.125C22.3342 13.125 22.1753 13.0592 22.0581 12.9419C21.9408 12.8247 21.875 12.6658 21.875 12.5Z" fill="white"/>
<path d="M23.125 23.125C23.4958 23.125 23.8584 23.015 24.1667 22.809C24.475 22.603 24.7154 22.3101 24.8573 21.9675C24.9992 21.6249 25.0363 21.2479 24.964 20.8842C24.8916 20.5205 24.713 20.1864 24.4508 19.9242C24.1886 19.662 23.8545 19.4834 23.4908 19.411C23.1271 19.3387 22.7501 19.3758 22.4075 19.5177C22.0649 19.6596 21.772 19.9 21.566 20.2083C21.36 20.5166 21.25 20.8792 21.25 21.25C21.25 21.7473 21.4475 22.2242 21.7992 22.5758C22.1508 22.9275 22.6277 23.125 23.125 23.125ZM23.125 20.625C23.2486 20.625 23.3694 20.6617 23.4722 20.7303C23.575 20.799 23.6551 20.8966 23.7024 21.0108C23.7497 21.125 23.7621 21.2507 23.738 21.3719C23.7139 21.4932 23.6543 21.6045 23.5669 21.6919C23.4795 21.7794 23.3682 21.8389 23.2469 21.863C23.1257 21.8871 23 21.8747 22.8858 21.8274C22.7716 21.7801 22.674 21.7 22.6053 21.5972C22.5367 21.4945 22.5 21.3736 22.5 21.25C22.5 21.0842 22.5658 20.9253 22.6831 20.8081C22.8003 20.6908 22.9592 20.625 23.125 20.625Z" fill="white"/>
<path d="M6.875 26.25C6.50416 26.25 6.14165 26.36 5.83331 26.566C5.52496 26.772 5.28464 27.0649 5.14273 27.4075C5.00081 27.7501 4.96368 28.1271 5.03603 28.4908C5.10838 28.8545 5.28695 29.1886 5.54918 29.4508C5.8114 29.713 6.14549 29.8916 6.50921 29.964C6.87292 30.0363 7.24992 29.9992 7.59253 29.8573C7.93514 29.7154 8.22798 29.475 8.43401 29.1667C8.64003 28.8584 8.75 28.4958 8.75 28.125C8.75 27.6277 8.55246 27.1508 8.20083 26.7992C7.8492 26.4475 7.37228 26.25 6.875 26.25ZM6.875 28.75C6.75139 28.75 6.63055 28.7133 6.52777 28.6447C6.42499 28.576 6.34488 28.4784 6.29758 28.3642C6.25027 28.25 6.23789 28.1243 6.26201 28.0031C6.28613 27.8818 6.34565 27.7705 6.43306 27.6831C6.52047 27.5956 6.63183 27.5361 6.75307 27.512C6.87431 27.4879 6.99997 27.5003 7.11418 27.5476C7.22838 27.5949 7.32599 27.675 7.39467 27.7778C7.46335 27.8806 7.5 28.0014 7.5 28.125C7.5 28.2908 7.43415 28.4497 7.31694 28.5669C7.19973 28.6842 7.04076 28.75 6.875 28.75Z" fill="white"/>
<path d="M17.5 35.625C17.1292 35.625 16.7666 35.735 16.4583 35.941C16.15 36.147 15.9096 36.4399 15.7677 36.7825C15.6258 37.1251 15.5887 37.5021 15.661 37.8658C15.7334 38.2295 15.912 38.5636 16.1742 38.8258C16.4364 39.088 16.7705 39.2666 17.1342 39.339C17.4979 39.4113 17.8749 39.3742 18.2175 39.2323C18.5601 39.0904 18.853 38.85 19.059 38.5417C19.265 38.2334 19.375 37.8708 19.375 37.5C19.375 37.0027 19.1775 36.5258 18.8258 36.1742C18.4742 35.8225 17.9973 35.625 17.5 35.625ZM17.5 38.125C17.3764 38.125 17.2556 38.0883 17.1528 38.0197C17.05 37.951 16.9699 37.8534 16.9226 37.7392C16.8753 37.625 16.8629 37.4993 16.887 37.3781C16.9111 37.2568 16.9707 37.1455 17.0581 37.0581C17.1455 36.9706 17.2568 36.9111 17.3781 36.887C17.4993 36.8629 17.625 36.8753 17.7392 36.9226C17.8534 36.9699 17.951 37.05 18.0197 37.1528C18.0883 37.2556 18.125 37.3764 18.125 37.5C18.125 37.6658 18.0592 37.8247 17.9419 37.9419C17.8247 38.0592 17.6658 38.125 17.5 38.125Z" fill="white"/>
</svg>
