<svg width="86" height="86" viewBox="0 0 86 86" fill="none" xmlns="http://www.w3.org/2000/svg">
<path fill-rule="evenodd" clip-rule="evenodd" d="M51.7249 37.0491L54.5691 36.3499H54.5638C54.7597 36.3023 54.9663 36.3923 55.0722 36.5671C55.39 37.1073 55.6654 37.6528 55.8932 38.1931C56.1209 38.7333 56.3222 39.3106 56.4864 39.9144C56.5394 40.1104 56.4599 40.3223 56.2851 40.4282L53.8011 41.9747C53.9547 42.997 53.96 44.0298 53.8223 45.052L56.3275 46.5668C56.5023 46.6727 56.587 46.8845 56.5341 47.0805C56.2269 48.2563 55.7661 49.3898 55.1623 50.4491C55.0616 50.6291 54.8551 50.7192 54.6538 50.6715L51.799 50.0094C51.476 50.4491 51.1476 50.8357 50.8033 51.1853C50.459 51.5348 50.0724 51.8685 49.6381 52.1969L50.3372 55.0411C50.3849 55.237 50.2948 55.4436 50.1201 55.5495C49.5798 55.8673 49.0343 56.1427 48.4941 56.3705C47.9538 56.5982 47.3765 56.7995 46.7727 56.9637C46.5767 57.0166 46.3649 56.9372 46.259 56.7624L44.7124 54.2784C43.6902 54.432 42.6574 54.4373 41.6352 54.2996L40.1204 56.8048C40.0144 56.9796 39.8026 57.0643 39.6066 57.0113C38.4308 56.7042 37.2974 56.2434 36.2381 55.6396C36.058 55.5389 35.968 55.3324 36.0156 55.1311L36.6777 52.2763C36.2381 51.9532 35.8514 51.6249 35.5019 51.2806C35.1523 50.931 34.8186 50.5497 34.4903 50.1154L31.6461 50.8145C31.4501 50.8622 31.2435 50.7721 31.1376 50.5974C30.8198 50.0571 30.5444 49.5116 30.3167 48.9713C30.0889 48.4311 29.8876 47.8538 29.7235 47.25C29.6705 47.054 29.7499 46.8422 29.9247 46.7362L32.4088 45.1897C32.2552 44.1675 32.2499 43.1347 32.3876 42.1125L29.8824 40.5977C29.7076 40.4917 29.6228 40.2799 29.6758 40.0839C29.983 38.9081 30.4438 37.7747 31.0476 36.7154C31.1482 36.5353 31.3548 36.4453 31.556 36.4929L34.4108 37.155C34.7339 36.7154 35.0623 36.3287 35.4065 35.9792C35.7508 35.6296 36.1375 35.2959 36.5718 34.9676L35.8726 32.1234C35.825 31.9274 35.915 31.7208 36.0898 31.6149C37.165 30.9846 38.2348 30.5344 39.4424 30.2008C39.6384 30.1478 39.8503 30.2272 39.9562 30.402L41.5027 32.8861C42.525 32.7325 43.5578 32.7272 44.58 32.8649L46.0948 30.3596C46.2007 30.1849 46.4125 30.1001 46.6085 30.1531C47.7843 30.4603 48.9178 30.9211 49.9771 31.5249C50.1571 31.6255 50.2472 31.8321 50.1995 32.0333L49.5375 34.8881C49.9771 35.2112 50.3637 35.5396 50.7133 35.8838C51.0628 36.2334 51.3965 36.6147 51.7249 37.0491ZM53.0543 41.3551L55.5065 39.8297V39.8244C55.3688 39.3795 55.2152 38.9558 55.0458 38.5479C54.8763 38.1401 54.675 37.7323 54.4526 37.3245L51.6454 38.0183C51.4601 38.0607 51.2694 37.9918 51.1582 37.8382C50.798 37.3404 50.4379 36.9166 50.0618 36.5406C49.6805 36.1698 49.2514 35.815 48.7483 35.4654C48.5947 35.3595 48.5205 35.1688 48.5629 34.9834L49.2197 32.171C48.4252 31.742 47.5778 31.403 46.7092 31.1488L45.2156 33.617C45.1202 33.7811 44.9295 33.8659 44.7442 33.8341C43.6213 33.6487 42.4826 33.654 41.3597 33.8553C41.1691 33.8871 40.9837 33.8023 40.8831 33.6434L39.3577 31.1912C38.4679 31.4613 37.6681 31.795 36.8578 32.2452L37.5516 35.0523C37.594 35.2377 37.5251 35.4283 37.3715 35.5396C36.8737 35.8997 36.4446 36.2599 36.0739 36.6359C35.7031 37.0173 35.3483 37.4463 34.9987 37.9494C34.8928 38.103 34.7021 38.1772 34.5167 38.1348L31.7043 37.4781C31.2753 38.2778 30.9363 39.12 30.6821 39.9886L33.1503 41.4822C33.3144 41.5775 33.3992 41.7682 33.3674 41.9536C33.182 43.0764 33.1873 44.2151 33.3886 45.338C33.4204 45.5287 33.3356 45.714 33.1767 45.8147L30.7245 47.34C30.8622 47.7849 31.0158 48.2087 31.1853 48.6165C31.3548 49.0243 31.556 49.4321 31.7785 49.84L34.5856 49.1514C34.771 49.1091 34.9616 49.1779 35.0729 49.3315C35.433 49.8294 35.7879 50.2531 36.1692 50.6291C36.5506 50.9999 36.9796 51.3547 37.4827 51.7043C37.6363 51.8102 37.7105 52.0009 37.6681 52.1863L37.0114 54.9987C37.8058 55.4277 38.6533 55.7667 39.5219 56.0209L41.0155 53.5528C41.1108 53.3886 41.3015 53.3038 41.4869 53.3356C42.6097 53.521 43.7484 53.5157 44.8713 53.3144C45.062 53.2826 45.2473 53.3674 45.348 53.5263L46.8733 55.9785C47.7631 55.7084 48.5576 55.3747 49.3733 54.9245L48.6794 52.1174C48.6371 51.9321 48.7059 51.7414 48.8595 51.6302C49.3574 51.27 49.7864 50.9098 50.1571 50.5338C50.5279 50.1525 50.8828 49.7234 51.2323 49.2203C51.3382 49.0667 51.5289 48.9925 51.7143 49.0349L54.5267 49.6917C54.9557 48.8972 55.2947 48.0498 55.5489 47.1811L53.0808 45.6875C52.9166 45.5922 52.8318 45.4015 52.8636 45.2162C53.049 44.0933 53.0437 42.9546 52.8424 41.8317C52.8107 41.6411 52.8954 41.4557 53.0543 41.3551ZM36.5228 46.3655C34.9922 42.7268 36.7029 38.5215 40.3363 36.9908C43.9749 35.4601 48.1803 37.1709 49.711 40.8042C51.2417 44.4429 49.5309 48.6483 45.8975 50.1789C42.2589 51.7096 38.0535 49.9988 36.5228 46.3655ZM37.3756 46C38.7103 49.1673 42.3701 50.6556 45.5374 49.3209C48.7047 47.9862 50.193 44.3264 48.8583 41.1591C47.5235 37.9918 43.8637 36.5035 40.6964 37.8382C37.5292 39.1729 36.0409 42.8328 37.3756 46Z" fill="url(#paint0_linear_898_574)"/>
<path d="M47.9874 10H37.3946C34.9082 10 32.8926 12.0156 32.8926 14.502C32.8926 16.9883 34.9082 19.004 37.3946 19.004H47.9874C50.4738 19.004 52.4894 16.9883 52.4894 14.502C52.4894 12.0156 50.4738 10 47.9874 10Z" stroke="#D8D3CF" stroke-width="1.05929" stroke-miterlimit="10"/>
<path d="M47.9874 67.9958H37.3946C34.9082 67.9958 32.8926 70.0115 32.8926 72.4978C32.8926 74.9842 34.9082 76.9998 37.3946 76.9998H47.9874C50.4738 76.9998 52.4894 74.9842 52.4894 72.4978C52.4894 70.0115 50.4738 67.9958 47.9874 67.9958Z" stroke="#D8D3CF" stroke-width="1.05929" stroke-miterlimit="10"/>
<path d="M73.4113 38.8655H62.8184C60.332 38.8655 58.3164 40.8811 58.3164 43.3675C58.3164 45.8538 60.332 47.8694 62.8184 47.8694H73.4113C75.8976 47.8694 77.9132 45.8538 77.9132 43.3675C77.9132 40.8811 75.8976 38.8655 73.4113 38.8655Z" stroke="#D8D3CF" stroke-width="1.05929" stroke-miterlimit="10"/>
<path d="M23.0949 38.8655H12.502C10.0156 38.8655 8 40.8811 8 43.3675C8 45.8538 10.0156 47.8694 12.502 47.8694H23.0949C25.5812 47.8694 27.5968 45.8538 27.5968 43.3675C27.5968 40.8811 25.5812 38.8655 23.0949 38.8655Z" stroke="#D8D3CF" stroke-width="1.05929" stroke-miterlimit="10"/>
<path d="M29.7158 14.502H17.7988V34.5384" stroke="#D8D3CF" stroke-width="1.05929" stroke-miterlimit="10"/>
<path d="M13.4668 31.027L14.2454 30.3066L17.7993 34.1307L21.3532 30.3066L22.1318 31.027L17.7993 35.6878L13.4668 31.027Z" fill="#D8D3CF"/>
<path d="M29.4502 72.2332H17.5332V52.1968" stroke="#D8D3CF" stroke-width="1.05929" stroke-miterlimit="10"/>
<path d="M21.8662 55.7085L21.0876 56.4288L17.5337 52.6048L13.9797 56.4288L13.2012 55.7085L17.5337 51.0476L21.8662 55.7085Z" fill="#D8D3CF"/>
<path d="M55.9316 14.502H67.8486V34.5384" stroke="#D8D3CF" stroke-width="1.05929" stroke-miterlimit="10"/>
<path d="M63.5176 31.027L64.2962 30.3066L67.8501 34.1307L71.404 30.3066L72.1826 31.027L67.8501 35.6878L63.5176 31.027Z" fill="#D8D3CF"/>
<path d="M56.4648 72.2332H68.3818V52.1968" stroke="#D8D3CF" stroke-width="1.05929" stroke-miterlimit="10"/>
<path d="M72.7158 55.7085L71.9372 56.4288L68.3833 52.6048L64.8294 56.4288L64.0508 55.7085L68.3833 51.0476L72.7158 55.7085Z" fill="#D8D3CF"/>
<defs>
<linearGradient id="paint0_linear_898_574" x1="55.633" y1="32.8801" x2="26.4857" y2="50.9339" gradientUnits="userSpaceOnUse">
<stop stop-color="#F5CB5C"/>
<stop offset="1" stop-color="#EB5E28"/>
</linearGradient>
</defs>
</svg>
