<svg width="86" height="86" viewBox="0 0 86 86" fill="none" xmlns="http://www.w3.org/2000/svg">
<path d="M71.6989 35.0586L63.3203 32.6057V40.5714L71.6989 37.7106V35.0586Z" fill="#242423" stroke="#D8D3CF" stroke-width="0.971429" stroke-linecap="round" stroke-linejoin="round"/>
<path d="M12.168 34.9665L20.5465 32.2271V41.1205L12.168 37.9293V34.9665Z" fill="#242423" stroke="#D8D3CF" stroke-width="0.971429" stroke-linecap="round" stroke-linejoin="round"/>
<path fill-rule="evenodd" clip-rule="evenodd" d="M18.2754 68.2281V10.4573H51.4205L51.61 10.6176L65.6374 22.5516V68.2281H18.2754ZM65.3458 22.6002L51.2989 22.5127L51.2601 10.4573L65.3458 22.6002Z" fill="#242423"/>
<path d="M18.2754 10.4573V9.97156C18.0071 9.97156 17.7897 10.189 17.7897 10.4573H18.2754ZM18.2754 68.2281H17.7897C17.7897 68.4964 18.0071 68.7138 18.2754 68.7138V68.2281ZM51.4205 10.4573L51.7343 10.0865C51.6466 10.0123 51.5354 9.97156 51.4205 9.97156V10.4573ZM51.61 10.6176L51.9247 10.2476L51.9237 10.2468L51.61 10.6176ZM65.6374 22.5516H66.1231C66.1231 22.4091 66.0606 22.2739 65.9521 22.1816L65.6374 22.5516ZM65.6374 68.2281V68.7138C65.9056 68.7138 66.1231 68.4964 66.1231 68.2281H65.6374ZM51.2989 22.5127L50.8132 22.5143C50.8141 22.7808 51.0295 22.9968 51.2959 22.9984L51.2989 22.5127ZM65.3458 22.6002L65.3428 23.0859C65.5463 23.0871 65.7291 22.9613 65.8006 22.7707C65.8721 22.5801 65.8171 22.3652 65.6629 22.2323L65.3458 22.6002ZM51.2601 10.4573L51.5772 10.0894C51.4332 9.96522 51.2298 9.93656 51.057 10.0161C50.8842 10.0956 50.7738 10.2687 50.7744 10.4589L51.2601 10.4573ZM17.7897 10.4573V68.2281H18.7611V10.4573H17.7897ZM51.4205 9.97156H18.2754V10.943H51.4205V9.97156ZM51.9237 10.2468L51.7343 10.0865L51.1068 10.8281L51.2962 10.9883L51.9237 10.2468ZM65.9521 22.1816L51.9247 10.2476L51.2952 10.9875L65.3227 22.9215L65.9521 22.1816ZM66.1231 68.2281V22.5516H65.1517V68.2281H66.1231ZM18.2754 68.7138H65.6374V67.7424H18.2754V68.7138ZM51.2959 22.9984L65.3428 23.0859L65.3488 22.1145L51.302 22.027L51.2959 22.9984ZM50.7744 10.4589L50.8132 22.5143L51.7847 22.5112L51.7458 10.4557L50.7744 10.4589ZM65.6629 22.2323L51.5772 10.0894L50.9429 10.8252L65.0287 22.9681L65.6629 22.2323Z" fill="#D8D3CF"/>
<path d="M11.834 74.086L71.6983 73.7071V35.1123L12.1108 73.9306C12.0088 73.9986 11.8728 73.9257 11.8728 73.7994L11.834 35.0588L71.3243 73.3283" fill="#242423"/>
<path d="M11.834 74.086L71.6983 73.7071V35.1123L12.1108 73.9306C12.0088 73.9986 11.8728 73.9257 11.8728 73.7994L11.834 35.0588L71.3243 73.3283" stroke="#D8D3CF" stroke-width="0.971429" stroke-linecap="round" stroke-linejoin="round"/>
<path d="M42.1424 54.3853L70.9064 73.3621C71.3435 73.4738 71.2755 73.707 71.0958 73.707L13.9369 74.0761C13.6504 74.0761 12.3535 73.8624 12.5915 73.707L42.1472 54.3853H42.1424Z" fill="#242423" stroke="#D8D3CF" stroke-width="0.971429" stroke-miterlimit="10"/>
<path d="M47.3959 25.8155C45.2004 25.8204 43.3304 27.0055 42.291 28.7492L31.2604 28.7735C31.1293 28.7735 31.003 28.8221 30.9059 28.9095L28.3073 31.3041C28.0887 31.5081 28.1081 31.9064 28.3413 32.1007L31.8627 35.015C32.0667 35.185 32.3921 35.1704 32.5767 34.9907L33.7667 33.7667L35.015 34.9858C35.2141 35.1801 35.5687 35.1801 35.763 34.9858L36.953 33.7618L38.2013 34.9761C38.3033 35.0732 38.4393 35.1315 38.5801 35.1315L42.4464 35.1218C43.5636 36.8558 45.487 38.0361 47.6776 38.0312C51.0436 38.0215 53.7199 35.2772 53.6421 31.9112C53.6276 28.4724 50.4753 25.6552 47.391 25.8204L47.3959 25.8155ZM47.5707 30.0947C46.5556 30.1092 45.7347 30.9495 45.7493 31.9647C45.7639 32.9798 46.6041 33.8007 47.6193 33.7861C48.6344 33.7715 49.4553 32.9312 49.4407 31.9161C49.4261 30.901 48.5859 30.0801 47.5707 30.0947Z" stroke="url(#paint0_linear_898_572)" stroke-width="0.971429" stroke-miterlimit="10"/>
<defs>
<linearGradient id="paint0_linear_898_572" x1="52.7748" y1="27.0597" x2="38.4557" y2="45.5632" gradientUnits="userSpaceOnUse">
<stop stop-color="#F5CB5C"/>
<stop offset="1" stop-color="#EB5E28"/>
</linearGradient>
</defs>
</svg>
