<svg width="86" height="86" viewBox="0 0 86 86" fill="none" xmlns="http://www.w3.org/2000/svg">
<path fill-rule="evenodd" clip-rule="evenodd" d="M30.5549 15.8462C30.136 16.3222 29.8086 17.1094 29.8086 18.4228C29.8086 21.113 30.6563 22.0242 31.3054 22.3487C31.6545 22.5233 32.0106 22.5637 32.2881 22.5571C32.3088 22.5566 32.329 22.5559 32.3486 22.5549V22.5364H32.5475C32.5728 22.5329 32.5958 22.5293 32.6161 22.5258C32.6544 22.5191 32.683 22.5129 32.7004 22.5089L32.7175 22.5047L32.7174 22.5047L32.7168 22.5049C32.7167 22.5049 32.7166 22.505 32.7254 22.5364H39.2335C39.1995 22.467 39.1689 22.3966 39.1417 22.3251C38.9013 21.694 38.9497 21.0545 39.0939 20.5138C39.238 19.9732 39.4864 19.498 39.6916 19.1644C39.7174 19.1226 39.7426 19.0827 39.767 19.045L34.6507 15.324C34.6154 15.3125 34.5661 15.297 34.5046 15.279C34.3637 15.2379 34.1605 15.1843 33.916 15.1361C33.422 15.0388 32.7845 14.9689 32.1625 15.0537C31.5444 15.138 30.9744 15.3695 30.5549 15.8462ZM32.3123 23.5725C32.4227 23.5699 32.523 23.5621 32.6106 23.5521H39.9662V23.4488C40.1878 23.6334 40.4494 23.8031 40.754 23.9555L41.2082 23.047C40.5369 22.7114 40.2275 22.3222 40.0909 21.9636C39.9504 21.5949 39.9655 21.1869 40.0752 20.7755C40.185 20.3639 40.381 19.9821 40.5566 19.6967C40.6434 19.5558 40.7226 19.4425 40.7792 19.3655C40.7963 19.3422 40.8113 19.3223 40.8238 19.3061L40.8365 19.298C40.8853 19.2673 40.9621 19.2221 41.065 19.1706C41.2711 19.0675 41.5798 18.9407 41.9759 18.8559C42.7409 18.6919 43.8553 18.6788 45.2217 19.3346L45.2447 19.3655C45.3013 19.4425 45.3805 19.5558 45.4672 19.6967C45.6428 19.9821 45.8388 20.3639 45.9486 20.7755C46.0583 21.1869 46.0734 21.5949 45.933 21.9636C45.7964 22.3222 45.4869 22.7114 44.8156 23.047L45.2699 23.9555C45.5746 23.8031 45.8364 23.6332 46.0581 23.4484V23.5521H53.4133C53.5009 23.5621 53.6012 23.5699 53.7115 23.5725C54.1005 23.5818 54.6332 23.5269 55.1727 23.2572C56.3011 22.693 57.2309 21.3189 57.2309 18.4228C57.2309 16.9431 56.8599 15.8894 56.2314 15.1752C55.6035 14.4616 54.777 14.1535 53.9985 14.0474C53.224 13.9418 52.4649 14.0306 51.9115 14.1396C51.6322 14.1946 51.3991 14.256 51.2344 14.3041C51.1519 14.3282 51.0863 14.3491 51.0403 14.3643C51.0172 14.3719 50.9991 14.3781 50.9861 14.3826L50.9707 14.388L50.9659 14.3897L50.9643 14.3903L50.9637 14.3905C50.9635 14.3906 50.9633 14.3907 51.1368 14.868L50.9633 14.3907L50.896 14.4152L50.8381 14.4573L45.4964 18.3422C43.9847 17.6591 42.6987 17.6622 41.7631 17.8627C41.2704 17.9683 40.8808 18.1272 40.6108 18.2622C40.5706 18.2823 40.533 18.3019 40.498 18.3207L35.1857 14.4573L35.1279 14.4152L35.0606 14.3907L34.887 14.868C35.0606 14.3907 35.0604 14.3906 35.0601 14.3905L35.0595 14.3903L35.0579 14.3897L35.0532 14.388L35.0377 14.3826C35.0248 14.3781 35.0066 14.3719 34.9836 14.3643C34.9375 14.3491 34.8719 14.3282 34.7894 14.3041C34.6248 14.256 34.3916 14.1946 34.1123 14.1396C33.559 14.0306 32.7999 13.9418 32.0253 14.0474C31.2469 14.1535 30.4204 14.4616 29.7924 15.1752C29.1639 15.8894 28.793 16.9431 28.793 18.4228C28.793 21.3189 29.7228 22.693 30.8511 23.2572C31.3907 23.5269 31.9233 23.5818 32.3123 23.5725ZM53.4764 22.5364C53.4511 22.5329 53.4281 22.5293 53.4077 22.5258C53.3695 22.5191 53.3408 22.5129 53.3235 22.5089L53.3063 22.5047L53.3065 22.5047L53.307 22.5049C53.3072 22.5049 53.3073 22.505 53.2984 22.5364H46.7903C46.8243 22.467 46.8549 22.3966 46.8821 22.3251C47.1226 21.694 47.0742 21.0545 46.93 20.5138C46.7858 19.9732 46.5375 19.498 46.3322 19.1644C46.3065 19.1226 46.2813 19.0827 46.2568 19.045L51.3731 15.324C51.4085 15.3125 51.4578 15.297 51.5193 15.279C51.6601 15.2379 51.8634 15.1843 52.1078 15.1361C52.6019 15.0388 53.2393 14.9689 53.8613 15.0537C54.4794 15.138 55.0495 15.3695 55.469 15.8462C55.8879 16.3222 56.2152 17.1094 56.2152 18.4228C56.2152 21.113 55.3676 22.0242 54.7185 22.3487C54.3693 22.5233 54.0132 22.5637 53.7357 22.5571C53.7151 22.5566 53.6951 22.5559 53.6756 22.5549V22.5364H53.4764Z" fill="url(#paint0_linear_898_576)"/>
<path d="M13.3027 33.4043H72.7199V69.4609C72.7199 70.8625 71.5824 72.0001 70.1807 72.0001H15.8419C14.4403 72.0001 13.3027 70.8625 13.3027 69.4609V33.4043Z" stroke="#D8D3CF" stroke-width="1.01568" stroke-miterlimit="10"/>
<path d="M74.4448 33.1502H11.5743C10.7059 33.1502 10 32.4443 10 31.5759V25.0806C10 24.2122 10.7059 23.5063 11.5743 23.5063H74.4397C75.3081 23.5063 76.014 24.2122 76.014 25.0806V31.5759C76.014 32.4443 75.3081 33.1502 74.4397 33.1502H74.4448Z" stroke="#D8D3CF" stroke-width="1.01568" stroke-miterlimit="10"/>
<path d="M38.9473 71.7459V33.1501" stroke="#D8D3CF" stroke-width="1.01568" stroke-miterlimit="10"/>
<path d="M47.2793 33.4043V71.7462" stroke="#D8D3CF" stroke-width="1.01568" stroke-miterlimit="10"/>
<defs>
<linearGradient id="paint0_linear_898_576" x1="56.2614" y1="15.0154" x2="45.9353" y2="33.2857" gradientUnits="userSpaceOnUse">
<stop stop-color="#F5CB5C"/>
<stop offset="1" stop-color="#EB5E28"/>
</linearGradient>
</defs>
</svg>
