<svg width="86" height="86" viewBox="0 0 86 86" fill="none" xmlns="http://www.w3.org/2000/svg">
<path d="M45.1944 75.6231C63.0396 75.6231 77.506 61.1568 77.506 43.3116C77.506 25.4664 63.0396 11 45.1944 11C27.3492 11 12.8828 25.4664 12.8828 43.3116C12.8828 61.1568 27.3492 75.6231 45.1944 75.6231Z" stroke="#D8D3CF" stroke-width="1.05714" stroke-miterlimit="10"/>
<path d="M44.9982 70.4009C59.8862 70.4009 71.9553 58.3317 71.9553 43.4437C71.9553 28.5557 59.8862 16.4866 44.9982 16.4866C30.1101 16.4866 18.041 28.5557 18.041 43.4437C18.041 58.3317 30.1101 70.4009 44.9982 70.4009Z" stroke="#D8D3CF" stroke-width="1.05714" stroke-miterlimit="10"/>
<path d="M45.5273 16.7507V20.9793" stroke="#D8D3CF" stroke-width="1.05714" stroke-miterlimit="10"/>
<path d="M45.5273 65.908V70.1365" stroke="#D8D3CF" stroke-width="1.05714" stroke-miterlimit="10"/>
<path d="M56.7539 62.9534L58.6145 66.7485" stroke="#D8D3CF" stroke-width="1.05714" stroke-miterlimit="10"/>
<path d="M34.3 62.9534L32.4395 66.7485" stroke="#D8D3CF" stroke-width="1.05714" stroke-miterlimit="10"/>
<path d="M64.9453 54.6389L68.3916 57.0915" stroke="#D8D3CF" stroke-width="1.05714" stroke-miterlimit="10"/>
<path d="M22.1328 29.7961L25.5791 32.2487" stroke="#D8D3CF" stroke-width="1.05714" stroke-miterlimit="10"/>
<path d="M68.3916 29.7961L64.9453 32.2487" stroke="#D8D3CF" stroke-width="1.05714" stroke-miterlimit="10"/>
<path d="M31.9102 20.1389L33.7707 23.9341" stroke="#D8D3CF" stroke-width="1.05714" stroke-miterlimit="10"/>
<path d="M58.6145 20.1389L56.7539 23.9341" stroke="#D8D3CF" stroke-width="1.05714" stroke-miterlimit="10"/>
<path d="M67.7285 43.708H71.9571" stroke="#D8D3CF" stroke-width="1.05714" stroke-miterlimit="10"/>
<path d="M45.5289 47.408C47.2804 47.408 48.7003 45.9881 48.7003 44.2366C48.7003 42.4851 47.2804 41.0652 45.5289 41.0652C43.7773 41.0652 42.3574 42.4851 42.3574 44.2366C42.3574 45.9881 43.7773 47.408 45.5289 47.408Z" stroke="#D8D3CF" stroke-width="1.05714" stroke-miterlimit="10"/>
<path d="M61.0502 59.3696L47.2598 50.1143C47.2598 50.1143 45.5683 45.595 50.7853 45.9544L61.0502 59.3749V59.3696Z" stroke="#D8D3CF" stroke-width="1.05714" stroke-linecap="round" stroke-linejoin="round"/>
<path d="M45.5299 24.6794L47.7869 38.8874C47.7869 38.8874 45.9263 42.5716 43.0879 38.9984L45.5299 24.6794Z" stroke="#D8D3CF" stroke-width="1.05714" stroke-linecap="round" stroke-linejoin="round"/>
<path d="M19.8929 62.7364C26.4611 62.7364 31.7857 57.4118 31.7857 50.8435C31.7857 44.2753 26.4611 38.9507 19.8929 38.9507C13.3246 38.9507 8 44.2753 8 50.8435C8 57.4118 13.3246 62.7364 19.8929 62.7364Z" fill="#242423" stroke="url(#paint0_linear_898_573)" stroke-width="1.05714" stroke-miterlimit="10" stroke-linecap="square"/>
<path d="M20.4505 44.4681V46.5147H19.444V44.4681H20.4505ZM20.3297 55.4261V57.2178H19.3299V55.4261H20.3297ZM21.6718 53.3056C21.6718 53.0372 21.6114 52.7956 21.4906 52.5809C21.3699 52.3662 21.1708 52.1693 20.8934 51.9904C20.6161 51.8115 20.2447 51.6459 19.7795 51.4938C19.2158 51.3194 18.7282 51.1069 18.3166 50.8563C17.9095 50.6058 17.5941 50.2949 17.3705 49.9236C17.1513 49.5523 17.0417 49.1027 17.0417 48.5748C17.0417 48.0246 17.1602 47.5504 17.3973 47.1522C17.6344 46.7541 17.9699 46.4476 18.4039 46.2329C18.8378 46.0182 19.3478 45.9108 19.9338 45.9108C20.3901 45.9108 20.7972 45.9801 21.1551 46.1188C21.513 46.253 21.815 46.4543 22.061 46.7227C22.3115 46.9912 22.5017 47.32 22.6314 47.7092C22.7656 48.0984 22.8327 48.548 22.8327 49.058H21.598C21.598 48.7582 21.5622 48.4831 21.4906 48.2326C21.4191 47.9821 21.3117 47.7651 21.1685 47.5817C21.0254 47.3938 20.8509 47.2506 20.6451 47.1522C20.4393 47.0493 20.2022 46.9979 19.9338 46.9979C19.558 46.9979 19.2471 47.0627 19.0011 47.1925C18.7595 47.3222 18.5806 47.5056 18.4643 47.7427C18.3479 47.9754 18.2898 48.246 18.2898 48.5547C18.2898 48.841 18.3479 49.0915 18.4643 49.3062C18.5806 49.521 18.7774 49.7156 19.0548 49.89C19.3366 50.06 19.7236 50.2278 20.2157 50.3933C20.7928 50.5767 21.2826 50.7937 21.6852 51.0442C22.0879 51.2903 22.3943 51.5945 22.6046 51.9568C22.8148 52.3147 22.92 52.7599 22.92 53.2922C22.92 53.8693 22.7902 54.3569 22.5307 54.7551C22.2713 55.1487 21.9067 55.4485 21.437 55.6543C20.9672 55.86 20.417 55.9629 19.7862 55.9629C19.4059 55.9629 19.0302 55.9115 18.6589 55.8086C18.2876 55.7057 17.952 55.5379 17.6523 55.3053C17.3526 55.0682 17.1132 54.7573 16.9343 54.3726C16.7553 53.9834 16.6659 53.5069 16.6659 52.9433H17.914C17.914 53.3235 17.9677 53.6389 18.0751 53.8894C18.1869 54.1355 18.3345 54.3323 18.5179 54.4799C18.7014 54.6231 18.9027 54.726 19.1219 54.7886C19.3456 54.8468 19.567 54.8759 19.7862 54.8759C20.1888 54.8759 20.5288 54.8132 20.8062 54.688C21.088 54.5582 21.3027 54.3748 21.4504 54.1377C21.598 53.9006 21.6718 53.6233 21.6718 53.3056Z" fill="url(#paint1_linear_898_573)"/>
<defs>
<linearGradient id="paint0_linear_898_573" x1="30.9748" y1="41.3768" x2="5.19197" y2="57.3466" gradientUnits="userSpaceOnUse">
<stop stop-color="#F5CB5C"/>
<stop offset="1" stop-color="#EB5E28"/>
</linearGradient>
<linearGradient id="paint1_linear_898_573" x1="23.655" y1="46.842" x2="14.0217" y2="51.6155" gradientUnits="userSpaceOnUse">
<stop stop-color="#F5CB5C"/>
<stop offset="1" stop-color="#EB5E28"/>
</linearGradient>
</defs>
</svg>
