<svg width="86" height="86" viewBox="0 0 86 86" fill="none" xmlns="http://www.w3.org/2000/svg">
<path fill-rule="evenodd" clip-rule="evenodd" d="M22.737 25.6399L25.4099 24.9793C25.5934 24.9304 25.7892 25.016 25.887 25.1811C26.1867 25.6888 26.4436 26.2026 26.6577 26.7103C26.8718 27.2179 27.0553 27.7623 27.2143 28.3311C27.2632 28.5146 27.1898 28.7104 27.0247 28.8143L24.6882 30.2701C24.8289 31.2304 24.835 32.2029 24.7065 33.1632L27.0614 34.5883C27.2265 34.6862 27.306 34.888 27.2571 35.0715C26.9635 36.1786 26.5354 37.2429 25.9665 38.2399C25.8687 38.405 25.6791 38.4907 25.4894 38.4478L22.8043 37.824C22.4985 38.2399 22.1926 38.6008 21.8685 38.931C21.5443 39.2552 21.1834 39.5733 20.7736 39.8791L21.4342 42.552C21.4831 42.7355 21.3975 42.9312 21.2324 43.0291C20.7247 43.3288 20.2109 43.5857 19.7032 43.7998C19.1956 44.0139 18.6512 44.1974 18.0824 44.3564C17.8989 44.4053 17.7031 44.3319 17.5992 44.1668L16.1434 41.8303C15.1831 41.971 14.2106 41.9771 13.2503 41.8486L11.8252 44.2035C11.7273 44.3686 11.5255 44.4481 11.342 44.3992C10.2349 44.1056 9.1706 43.6713 8.17361 43.1086C8.00847 43.0108 7.92284 42.8211 7.96565 42.6315L8.58954 39.9464C8.17361 39.6406 7.81274 39.3347 7.48245 39.0106C7.15216 38.6864 6.84022 38.3255 6.53439 37.9157L3.86148 38.5763C3.67798 38.6252 3.48225 38.5396 3.38439 38.3744C3.08468 37.8668 2.82779 37.353 2.61371 36.8453C2.39963 36.3376 2.21002 35.7933 2.05711 35.2244C2.00818 35.0409 2.08157 34.8452 2.24672 34.7412L4.58322 33.2855C4.44254 32.3252 4.43643 31.3527 4.56487 30.3924L2.21002 28.9673C2.04487 28.8694 1.96536 28.6676 2.01429 28.4841C2.30788 27.377 2.73604 26.3127 3.30487 25.3157C3.40274 25.1506 3.59235 25.0649 3.78196 25.1077L6.46711 25.7316C6.77293 25.3157 7.07876 24.9548 7.40293 24.6245C7.72711 24.3004 8.08798 23.9823 8.49779 23.6765L7.83721 21.0036C7.78827 20.8201 7.8739 20.6243 8.03905 20.5265C9.04827 19.9332 10.0514 19.5111 11.1891 19.1992C11.3725 19.1503 11.5683 19.2237 11.6723 19.3888L13.128 21.7253C14.0883 21.5846 15.0608 21.5785 16.0211 21.707L17.4462 19.3521C17.5441 19.187 17.7459 19.1074 17.9294 19.1564C19.0365 19.45 20.1008 19.8842 21.0978 20.447C21.2629 20.5448 21.3486 20.7344 21.3058 20.9241L20.6819 23.6092C21.0978 23.915 21.4587 24.2208 21.789 24.545C22.1192 24.8692 22.4312 25.2301 22.737 25.6399ZM26.284 28.2558C26.1557 27.8345 26.0091 27.4314 25.8503 27.0528C25.6913 26.6736 25.5078 26.2882 25.2937 25.9029L22.6575 26.5512C22.4862 26.5941 22.3027 26.5268 22.1988 26.38C21.8624 25.909 21.5259 25.5053 21.1712 25.1567C20.8103 24.8019 20.4127 24.4716 19.9357 24.1413C19.7889 24.0435 19.7155 23.86 19.7583 23.6887L20.376 21.0403C19.6237 20.6366 18.8347 20.3185 18.0151 20.08L16.6083 22.4042C16.5104 22.5572 16.3392 22.6367 16.1618 22.6061C15.1036 22.4287 14.0332 22.4348 12.9812 22.6244C12.8038 22.6611 12.6264 22.5816 12.5347 22.4287L11.1034 20.1228C10.2655 20.3736 9.51925 20.6916 8.75468 21.1137L9.40303 23.7499C9.44585 23.9211 9.37857 24.1046 9.23177 24.2086C8.7608 24.545 8.35711 24.8814 8.00847 25.2362C7.65371 25.5971 7.32342 25.9946 6.99313 26.4717C6.89526 26.6185 6.71177 26.6919 6.54051 26.6491L3.89206 26.0313C3.48837 26.7837 3.17031 27.5727 2.93177 28.3923L5.25604 29.7991C5.40895 29.897 5.48847 30.0682 5.45788 30.2456C5.28051 31.3038 5.28662 32.3742 5.47623 33.4262C5.51293 33.6036 5.43342 33.7809 5.28051 33.8727L2.97458 35.3101C3.10303 35.7321 3.24371 36.1358 3.40886 36.515C3.574 36.8942 3.7575 37.2796 3.97157 37.6649L6.60779 37.0166C6.77905 36.9738 6.96254 37.041 7.06653 37.1878C7.40293 37.6527 7.73934 38.0564 8.0941 38.405C8.45497 38.7598 8.85255 39.0901 9.32963 39.4204C9.47643 39.5182 9.54983 39.7017 9.50701 39.873L8.88925 42.5214C9.64158 42.9251 10.4306 43.2432 11.2502 43.4817L12.657 41.1575C12.7549 41.0045 12.9261 40.925 13.1035 40.9556C14.1617 41.133 15.2321 41.1269 16.2841 40.9373C16.4615 40.9006 16.6389 40.9801 16.7306 41.133L18.1619 43.4389C18.9998 43.1881 19.746 42.8701 20.5106 42.448L19.8623 39.8118C19.8194 39.6406 19.8867 39.4571 20.0335 39.3531C20.5045 39.0167 20.9082 38.6803 21.2568 38.3255C21.6116 37.9646 21.9419 37.5671 22.2722 37.09C22.37 36.9432 22.5535 36.8698 22.7248 36.9126L25.3732 37.5304C25.7769 36.778 26.095 35.989 26.3335 35.1694L24.0092 33.7626C23.8563 33.6647 23.7768 33.4935 23.8074 33.3161C23.9848 32.2579 23.9787 31.1875 23.7891 30.1355C23.7524 29.9581 23.8319 29.7808 23.9848 29.689L26.284 28.2558ZM79.0091 25.64L81.682 24.9794C81.8655 24.9305 82.0612 25.0161 82.1591 25.1812C82.4588 25.6889 82.7157 26.2027 82.9297 26.7104C83.1438 27.218 83.3273 27.7624 83.4863 28.3312C83.5353 28.5147 83.4619 28.7105 83.2967 28.8144L80.9602 30.2702C81.1009 31.2305 81.107 32.203 80.9786 33.1633L83.3334 34.5884C83.4986 34.6863 83.5781 34.8881 83.5292 35.0716C83.2356 36.1787 82.8074 37.243 82.2386 38.24C82.1407 38.4051 81.9511 38.4908 81.7615 38.4479L79.0763 37.8241C78.7705 38.24 78.4647 38.6009 78.1405 38.9312C77.8163 39.2553 77.4555 39.5734 77.0457 39.8792L77.7062 42.5521C77.7552 42.7356 77.6696 42.9313 77.5044 43.0292C76.9967 43.3289 76.4829 43.5858 75.9753 43.7999C75.4676 44.014 74.9232 44.1975 74.3544 44.3565C74.1709 44.4054 73.9752 44.332 73.8712 44.1669L72.4155 41.8304C71.4552 41.9711 70.4827 41.9772 69.5224 41.8487L68.0972 44.2036C67.9994 44.3687 67.7975 44.4482 67.614 44.3993C66.5069 44.1057 65.4427 43.6714 64.4457 43.1087C64.2805 43.0109 64.1949 42.8212 64.2377 42.6316L64.8616 39.9465C64.4457 39.6407 64.0848 39.3348 63.7545 39.0107C63.4242 38.6865 63.1123 38.3256 62.8064 37.9158L60.1335 38.5764C59.95 38.6253 59.7543 38.5397 59.6564 38.3745C59.3567 37.8669 59.0998 37.3531 58.8858 36.8454C58.6717 36.3378 58.4821 35.7934 58.3292 35.2245C58.2802 35.0411 58.3536 34.8453 58.5188 34.7413L60.8553 33.2856C60.7146 32.3253 60.7085 31.3528 60.8369 30.3925L58.4821 28.9674C58.3169 28.8695 58.2374 28.6677 58.2863 28.4842C58.5799 27.3771 59.0081 26.3128 59.5769 25.3158C59.6748 25.1507 59.8644 25.065 60.054 25.1078L62.7392 25.7317C63.045 25.3158 63.3508 24.9549 63.675 24.6246C63.9992 24.3005 64.36 23.9824 64.7698 23.6766L64.1093 21.0037C64.0603 20.8202 64.146 20.6244 64.3111 20.5266C65.3203 19.9333 66.3234 19.5112 67.4611 19.1993C67.6446 19.1504 67.8403 19.2238 67.9443 19.3889L69.4 21.7254C70.3603 21.5847 71.3328 21.5786 72.2931 21.7071L73.7183 19.3522C73.8162 19.1871 74.018 19.1076 74.2015 19.1565C75.3086 19.4501 76.3729 19.8843 77.3698 20.4471C77.535 20.5449 77.6206 20.7345 77.5778 20.9242L76.9539 23.6093C77.3698 23.9151 77.7307 24.221 78.061 24.5451C78.3913 24.8693 78.7032 25.2302 79.0091 25.64ZM82.5561 28.2559C82.4277 27.8346 82.2812 27.4315 82.1224 27.0529C81.9633 26.6737 81.7798 26.2883 81.5658 25.903L78.9296 26.5513C78.7583 26.5942 78.5748 26.5269 78.4708 26.3801C78.1344 25.9091 77.798 25.5054 77.4432 25.1568C77.0824 24.802 76.6848 24.4717 76.2077 24.1414C76.0609 24.0436 75.9875 23.8601 76.0303 23.6888L76.6481 21.0404C75.8958 20.6367 75.1067 20.3186 74.2871 20.0801L72.8803 22.4043C72.7825 22.5573 72.6112 22.6368 72.4338 22.6062C71.3757 22.4288 70.3053 22.4349 69.2532 22.6245C69.0759 22.6612 68.8985 22.5817 68.8067 22.4288L67.3755 20.1229C66.5375 20.3737 65.7913 20.6917 65.0267 21.1138L65.6751 23.75C65.7179 23.9212 65.6506 24.1047 65.5038 24.2087C65.0328 24.5451 64.6292 24.8815 64.2805 25.2363C63.9258 25.5972 63.5955 25.9947 63.2652 26.4718C63.1673 26.6186 62.9838 26.692 62.8126 26.6492L60.1641 26.0314C59.7604 26.7838 59.4424 27.5728 59.2038 28.3924L61.5281 29.7992C61.681 29.8971 61.7605 30.0683 61.7299 30.2457C61.5526 31.3039 61.5587 32.3743 61.7483 33.4263C61.785 33.6037 61.7055 33.7811 61.5526 33.8728L59.2466 35.3102C59.3751 35.7322 59.5158 36.1359 59.6809 36.5151C59.8461 36.8944 60.0295 37.2797 60.2436 37.665L62.8798 37.0167C63.0511 36.9739 63.2346 37.0412 63.3386 37.1879C63.675 37.6528 64.0114 38.0565 64.3661 38.4051C64.727 38.7599 65.1246 39.0902 65.6017 39.4205C65.7485 39.5183 65.8219 39.7018 65.7791 39.8731L65.1613 42.5215C65.9136 42.9252 66.7027 43.2433 67.5223 43.4818L68.9291 41.1576C69.0269 41.0046 69.1982 40.9251 69.3756 40.9557C70.4337 41.1331 71.5041 41.127 72.5562 40.9374C72.7335 40.9007 72.9109 40.9802 73.0027 41.1331L74.4339 43.439C75.2719 43.1882 76.0181 42.8702 76.7827 42.4481L76.1343 39.8119C76.0915 39.6407 76.1588 39.4572 76.3056 39.3532C76.7765 39.0168 77.1802 38.6804 77.5289 38.3256C77.8836 37.9647 78.2139 37.5672 78.5442 37.0901C78.6421 36.9433 78.8256 36.8699 78.9968 36.9127L81.6453 37.5305C82.049 36.7781 82.367 35.9891 82.6056 35.1695L80.2813 33.7627C80.1284 33.6648 80.0489 33.4936 80.0795 33.3162C80.2568 32.258 80.2507 31.1877 80.0611 30.1356C80.0244 29.9582 80.1039 29.7809 80.2568 29.6891L82.5561 28.2559ZM64.7143 34.3986C63.2708 30.9795 64.8795 27.0282 68.2986 25.5847C71.7177 24.1412 75.669 25.7499 77.1125 29.169C78.556 32.5881 76.9473 36.5394 73.5282 37.9829C70.1091 39.4264 66.1578 37.8177 64.7143 34.3986ZM65.5156 34.0622C66.7756 37.0348 70.2131 38.4355 73.1918 37.1816C76.1644 35.9216 77.5712 32.478 76.3112 29.5054C75.0512 26.5328 71.6076 25.126 68.635 26.386C65.6624 27.646 64.2617 31.0835 65.5156 34.0622ZM12.0265 25.5847C8.60741 27.0282 6.99876 30.9795 8.44226 34.3986C9.88576 37.8177 13.837 39.4264 17.2561 37.9829C20.6753 36.5394 22.2839 32.5881 20.8404 29.169C19.3969 25.7499 15.4457 24.1412 12.0265 25.5847ZM16.9197 37.1816C13.941 38.4355 10.5035 37.0348 9.24352 34.0622C7.98964 31.0835 9.39032 27.646 12.3629 26.386C15.3356 25.126 18.7792 26.5328 20.0392 29.5054C21.2992 32.478 19.8924 35.9216 16.9197 37.1816Z" fill="url(#paint0_linear_898_571)"/>
<path d="M34.9458 43.1942V34.1723C34.9458 34.1723 33.0436 32.9796 31.9609 30.4963V19.7741C31.9609 19.7741 34.4075 12.8257 39.8329 12H42.4569" stroke="#D8D3CF" stroke-width="1.46378" stroke-miterlimit="10"/>
<path d="M49.9802 43.1942V34.1723C49.9802 34.1723 51.9314 32.9796 53.0446 30.4963V19.7741C53.0446 19.7741 50.5368 12.8257 44.9647 12H42.2734" stroke="#D8D3CF" stroke-width="1.46378" stroke-miterlimit="10"/>
<path d="M34.9482 42.7478C34.9482 42.7478 25.4432 45.0231 20.0117 53.0052V66.4921" stroke="#D8D3CF" stroke-width="1.46378" stroke-miterlimit="10"/>
<path d="M50.1523 42.7478C50.1523 42.7478 59.6574 45.0231 65.0889 53.0052V66.4921" stroke="#D8D3CF" stroke-width="1.46378" stroke-miterlimit="10"/>
<path d="M38.916 42.7478C38.916 42.7478 39.02 44.7479 40.647 45.5736H42.5492" stroke="#D8D3CF" stroke-width="1.46378" stroke-miterlimit="10"/>
<path d="M46.184 42.7478C46.184 42.7478 46.08 44.7479 44.453 45.5736H42.5508" stroke="#D8D3CF" stroke-width="1.46378" stroke-miterlimit="10"/>
<path d="M44.7248 54.3814L44.2172 45.9834L40.9204 46.1241L39.5625 70.6146L42.5535 75.0001L45.5383 70.8898L44.994 57.409" stroke="#D8D3CF" stroke-width="1.46378" stroke-miterlimit="10"/>
<path d="M56.3984 59.3357V66.4859" stroke="#D8D3CF" stroke-width="1.46378" stroke-miterlimit="10"/>
<path d="M29.4238 59.3357V66.4859" stroke="#D8D3CF" stroke-width="1.46378" stroke-miterlimit="10"/>
<defs>
<linearGradient id="paint0_linear_898_571" x1="80.7634" y1="21.7197" x2="56.276" y2="70.6607" gradientUnits="userSpaceOnUse">
<stop stop-color="#F5CB5C"/>
<stop offset="1" stop-color="#EB5E28"/>
</linearGradient>
</defs>
</svg>
