<svg width="86" height="86" viewBox="0 0 86 86" fill="none" xmlns="http://www.w3.org/2000/svg">
<path d="M21.5188 62.6065C21.5188 62.6065 20.9745 58.7964 18.253 57.7078M18.253 57.7078L25.3289 41.9233C25.3289 41.9233 26.9618 39.7461 23.696 38.1132C20.4302 36.4803 9 31.0374 9 31.0374V55.0898L14.443 58.2521C14.443 58.2521 16.6201 59.3407 18.253 57.7078ZM28.0504 41.9233C28.0504 41.9233 38.392 34.8474 44.9235 40.2904M44.9235 40.2904C44.9235 40.2904 47.1007 39.7461 49.8222 39.7461C52.5437 39.7461 60.523 43.284 60.523 43.284M44.9235 40.2904C44.9235 40.2904 38.392 44.6447 31.8604 44.1005C31.8604 44.1005 31.3161 45.6408 31.8604 47.3172C31.8604 47.3172 34.0376 50.632 36.7591 50.632C36.7591 50.632 38.9363 49.5434 41.6578 49.5434C41.6578 49.5434 43.8349 49.5434 44.9235 50.3599C46.0121 51.1763 64.5182 63.1508 64.5182 63.1508C64.5182 63.1508 65.0625 64.9688 64.5182 66.237C63.9739 67.5052 62.341 69.1381 61.2524 69.1381C60.1638 69.1381 52.5437 64.2394 52.5437 64.2394M66.6954 59.3407C66.6954 59.3407 64.1698 61.2512 64.6161 63.5645M47.4872 74.7606C47.4872 74.7606 46.6489 77.0848 41.9789 77.1936M60.1638 71.3152C60.1638 71.3152 57.4423 74.581 54.7209 72.9481L46.5564 68.0495M54.3562 73.1386C54.3562 73.1386 52.8158 78.6632 45.1957 73.2203M60.0985 42.4676L68.8725 59.3407C68.8725 59.3407 69.8468 60.4293 71.8117 59.3407C73.7766 58.2521 77.5813 56.075 77.5813 56.075V32.4906L61.7967 40.2904C61.7967 40.2904 60.0332 40.8347 60.0985 42.4676ZM22.7925 69.1326C23.8538 70.0688 25.4105 69.8729 26.2705 68.6972L27.3918 67.1623C28.2517 65.9866 28.0885 64.2775 27.0271 63.3413C25.9657 62.4051 24.409 62.6011 23.549 63.7767L22.4278 65.3117C21.5678 66.4873 21.7311 68.1964 22.7925 69.1326ZM33.2419 64.6171C34.3941 65.5822 34.5458 67.2987 33.5807 68.4509L30.6553 71.9434C29.6902 73.0956 27.9738 73.2473 26.8215 72.2821C25.6693 71.317 25.5176 69.6006 26.4827 68.4483L29.4081 64.9559C30.3732 63.8036 32.0897 63.652 33.2419 64.6171ZM42.841 71.9375C43.9933 72.9027 44.1449 74.6191 43.1798 75.7713L40.4537 79.026C39.4886 80.1782 37.7721 80.3299 36.6199 79.3648C35.4676 78.3996 35.316 76.6832 36.2811 75.5309L39.0072 72.2763C39.9723 71.1241 41.6888 70.9724 42.841 71.9375ZM40.3559 65.8651C41.7007 67.0759 41.8093 69.1478 40.5984 70.4926L36.0459 75.5487C34.835 76.8936 32.7631 77.0021 31.4183 75.7913C30.0735 74.5804 29.9649 72.5085 31.1758 71.1637L35.7283 66.1076C36.9392 64.7627 39.0111 64.6542 40.3559 65.8651Z" stroke="#D8D3CF" stroke-width="1.08859" stroke-miterlimit="10"/>
<path fill-rule="evenodd" clip-rule="evenodd" d="M29.4128 20.9681C29.4128 13.3027 35.6269 7.08859 43.2924 7.08859C50.9578 7.08859 57.1719 13.3027 57.1719 20.9681C57.1719 28.6336 50.9578 34.8477 43.2924 34.8477C35.6269 34.8477 29.4128 28.6336 29.4128 20.9681ZM43.2924 6C35.0257 6 28.3242 12.7015 28.3242 20.9681C28.3242 29.2348 35.0257 35.9363 43.2924 35.9363C51.559 35.9363 58.2605 29.2348 58.2605 20.9681C58.2605 12.7015 51.559 6 43.2924 6ZM43.5744 13.894V12.1743H42.7069V13.8907C42.1532 13.9327 41.6599 14.0608 41.2271 14.275C40.6885 14.5358 40.2717 14.91 39.9769 15.3976C39.6878 15.8852 39.5432 16.4607 39.5432 17.124C39.5432 17.7987 39.6821 18.36 39.9599 18.8079C40.2434 19.2502 40.6431 19.6187 41.1591 19.9135C41.6807 20.2084 42.2987 20.472 43.0131 20.7045C43.7104 20.9483 44.2604 21.1977 44.663 21.4529C45.0712 21.7024 45.3603 21.983 45.5304 22.2948C45.7062 22.601 45.7941 22.9639 45.7941 23.3834C45.7941 23.8087 45.6864 24.1999 45.4709 24.5571C45.2555 24.9086 44.9436 25.1892 44.5354 25.399C44.1328 25.6031 43.6424 25.7052 43.0641 25.7052C42.7182 25.7052 42.3724 25.6598 42.0265 25.5691C41.6807 25.4784 41.3632 25.3253 41.074 25.1099C40.7905 24.8944 40.5609 24.6053 40.3851 24.2424C40.2094 23.8795 40.1215 23.4231 40.1215 22.8732H39.1094C39.1094 23.5762 39.2228 24.1687 39.4496 24.6506C39.6764 25.1269 39.9798 25.5096 40.3596 25.7987C40.7395 26.0879 41.1647 26.2977 41.6353 26.4281C41.9809 26.5197 42.3296 26.5777 42.6814 26.602V28.2056H43.5489V26.5963C44.0987 26.5522 44.592 26.431 45.0287 26.2325C45.59 25.9773 46.0265 25.6088 46.3384 25.1269C46.6502 24.6393 46.8061 24.0525 46.8061 23.3664C46.8061 22.6861 46.6672 22.1276 46.3894 21.691C46.1116 21.2488 45.7147 20.8802 45.1988 20.5854C44.6885 20.2906 44.0761 20.0269 43.3618 19.7945C42.6077 19.5393 42.0294 19.287 41.6268 19.0376C41.2243 18.7824 40.9464 18.4989 40.7934 18.1871C40.6403 17.8753 40.5637 17.5124 40.5637 17.0985C40.5637 16.679 40.6545 16.2934 40.8359 15.9419C41.0173 15.5904 41.298 15.3097 41.6778 15.0999C42.0577 14.8901 42.5396 14.7853 43.1236 14.7853C43.5432 14.7853 43.9117 14.859 44.2292 15.0064C44.5524 15.1481 44.8245 15.3522 45.0457 15.6187C45.2668 15.8795 45.4312 16.1857 45.5389 16.5372C45.6523 16.8887 45.709 17.2743 45.709 17.6938H46.7211C46.7211 17.0758 46.6389 16.5315 46.4744 16.061C46.31 15.5847 46.0719 15.185 45.7601 14.8618C45.4539 14.533 45.0769 14.2863 44.6289 14.1219C44.3086 14.0028 43.9571 13.9269 43.5744 13.894Z" fill="url(#paint0_linear_898_575)"/>
<defs>
<linearGradient id="paint0_linear_898_575" x1="57.2399" y1="9.05342" x2="24.7901" y2="29.1528" gradientUnits="userSpaceOnUse">
<stop stop-color="#F5CB5C"/>
<stop offset="1" stop-color="#EB5E28"/>
</linearGradient>
</defs>
</svg>
