<svg width="86" height="86" viewBox="0 0 86 86" fill="none" xmlns="http://www.w3.org/2000/svg">
<path d="M60.0143 12H11V74.05H60.0143V12Z" stroke="#D8D3CF" stroke-width="1.04286" stroke-miterlimit="10"/>
<path d="M54.2792 16.6929H17.2578V22.4286H54.2792V16.6929Z" stroke="#D8D3CF" stroke-width="1.04286" stroke-miterlimit="10"/>
<path d="M39.1582 30.7715H53.2368" stroke="#D8D3CF" stroke-width="1.04286" stroke-miterlimit="10"/>
<path d="M39.1582 35.9858H53.2368" stroke="#D8D3CF" stroke-width="1.04286" stroke-miterlimit="10"/>
<path d="M16.2148 44.3286H54.2791" stroke="#D8D3CF" stroke-width="1.04286" stroke-miterlimit="10"/>
<path d="M16.2148 50.0645H54.2791" stroke="#D8D3CF" stroke-width="1.04286" stroke-miterlimit="10"/>
<path d="M16.2148 56.3213H54.2791" stroke="#D8D3CF" stroke-width="1.04286" stroke-miterlimit="10"/>
<path d="M16.2148 64.6643H33.422" stroke="#D8D3CF" stroke-width="1.04286" stroke-miterlimit="10"/>
<path d="M16.7363 69.3572H31.3363" stroke="#D8D3CF" stroke-width="1.04286" stroke-miterlimit="10"/>
<path d="M37.5918 68.6481C37.5918 68.6481 42.4463 61.4837 42.1908 69.5189C42.1908 69.6336 42.1804 69.7535 42.1752 69.8787C42.1752 69.8787 46.4561 62.5004 50.1061 69.2634H52.7132" stroke="#D8D3CF" stroke-width="1.04286" stroke-linejoin="bevel"/>
<path fill-rule="evenodd" clip-rule="evenodd" d="M18.621 33.7542C18.621 29.9558 21.7002 26.8766 25.4986 26.8766C29.297 26.8766 32.3763 29.9558 32.3763 33.7542C32.3763 37.5527 29.297 40.6319 25.4986 40.6319C21.7002 40.6319 18.621 37.5527 18.621 33.7542ZM25.4986 25.8337C21.1243 25.8337 17.5781 29.3799 17.5781 33.7542C17.5781 38.1286 21.1243 41.6747 25.4986 41.6747C29.873 41.6747 33.4191 38.1286 33.4191 33.7542C33.4191 29.3799 29.873 25.8337 25.4986 25.8337ZM25.7363 30.7745V29.8791H25.1253V30.7713C24.8915 30.7981 24.681 30.8578 24.4939 30.9505C24.2304 31.0808 24.0267 31.2668 23.8828 31.5086C23.7389 31.7503 23.6669 32.0381 23.6669 32.3722C23.6669 32.6926 23.7334 32.9656 23.8665 33.191C24.0023 33.4164 24.1938 33.6051 24.4409 33.7572C24.6908 33.9093 24.9868 34.0383 25.329 34.1442C25.6114 34.2365 25.8368 34.337 26.0052 34.4457C26.1736 34.5543 26.2944 34.6738 26.3677 34.8041C26.4411 34.9345 26.4777 35.0812 26.4777 35.2441C26.4777 35.4369 26.4329 35.6053 26.3433 35.7492C26.2537 35.8932 26.1233 36.0045 25.9522 36.0833C25.7839 36.1593 25.5775 36.1973 25.333 36.1973C25.2 36.1973 25.0655 36.1797 24.9297 36.1444C24.7967 36.1064 24.6745 36.0439 24.5631 35.957C24.4518 35.8674 24.3621 35.7479 24.2943 35.5985C24.2291 35.4464 24.1965 35.255 24.1965 35.0241H23.4388C23.4388 35.3663 23.4931 35.6555 23.6017 35.8918C23.7104 36.1254 23.8557 36.3141 24.0376 36.4581C24.2196 36.5993 24.4232 36.7011 24.6487 36.7636C24.7835 36.8009 24.9193 36.8271 25.056 36.8421V37.619H25.663V36.8406C25.9111 36.8144 26.1352 36.7575 26.3352 36.6699C26.6203 36.545 26.8416 36.363 26.9992 36.124C27.1567 35.8823 27.2354 35.5863 27.2354 35.236C27.2354 34.9128 27.1716 34.6426 27.044 34.4253C26.9163 34.2053 26.7303 34.0206 26.4859 33.8713C26.2415 33.7192 25.9441 33.5875 25.5937 33.4761C25.295 33.3756 25.0601 33.2738 24.889 33.1706C24.7206 33.0647 24.6011 32.9466 24.5305 32.8162C24.4599 32.6858 24.4246 32.5338 24.4246 32.3599C24.4246 32.1726 24.4599 32.0083 24.5305 31.867C24.6011 31.7231 24.7098 31.6118 24.8564 31.533C25.0058 31.4542 25.1945 31.4149 25.4227 31.4149C25.5856 31.4149 25.7295 31.4461 25.8545 31.5086C25.9794 31.5683 26.0853 31.6552 26.1722 31.7693C26.2591 31.8806 26.3243 32.0123 26.3677 32.1644C26.4112 32.3165 26.4329 32.4835 26.4329 32.6655H27.1825C27.1825 32.3559 27.1417 32.0829 27.0603 31.8467C26.9815 31.6104 26.8661 31.4108 26.714 31.2478C26.5646 31.0849 26.3813 30.9627 26.1641 30.8812C26.0324 30.8302 25.8899 30.7947 25.7363 30.7745Z" fill="url(#paint0_linear_898_570)"/>
<path d="M73.51 30.41L74.3448 30.9337C75.8069 31.8508 76.2497 33.7844 75.3326 35.2465L72.8388 39.2219L66.7034 35.3732L69.1972 31.3977C70.1143 29.9357 72.0479 29.4928 73.51 30.41Z" fill="#242423"/>
<path d="M72.5024 40.3795C72.5024 40.3795 75.6309 41.9437 73.5452 45.5937C71.4595 49.2437 67.8095 54.9795 67.8095 54.9795" fill="#242423"/>
<path d="M51.6947 59.3073L51.1211 68.0152L57.7954 63.1346" fill="#242423"/>
<path d="M66.6231 35.5073L72.7231 39.3339L57.8353 63.0671C57.6829 63.3101 57.3594 63.3842 57.1165 63.2318L51.8998 59.9594C51.6569 59.807 51.5828 59.4835 51.7352 59.2406L66.6231 35.5073Z" fill="#242423"/>
<path d="M73.51 30.41L73.2329 30.8517L73.2329 30.8517L73.51 30.41ZM74.3448 30.9337L74.6219 30.492L74.6219 30.492L74.3448 30.9337ZM75.3326 35.2465L74.8908 34.9694L74.8908 34.9694L75.3326 35.2465ZM72.8388 39.2219L72.5617 39.6636L73.0034 39.9407L73.2805 39.499L72.8388 39.2219ZM66.7034 35.3732L66.2617 35.0961L65.9846 35.5378L66.4263 35.8149L66.7034 35.3732ZM69.1972 31.3977L68.7554 31.1207L68.7554 31.1207L69.1972 31.3977ZM52.215 59.3416C52.2339 59.0543 52.0163 58.806 51.7289 58.787C51.4416 58.7681 51.1933 58.9857 51.1744 59.2731L52.215 59.3416ZM51.1211 68.0152L50.6008 67.9809C50.5875 68.183 50.6924 68.3746 50.8699 68.4721C51.0474 68.5697 51.2654 68.5557 51.4289 68.4361L51.1211 68.0152ZM58.1032 63.5555C58.3356 63.3855 58.3863 63.0593 58.2163 62.8268C58.0463 62.5944 57.7201 62.5437 57.4876 62.7137L58.1032 63.5555ZM66.6231 35.5073L66.9002 35.0656L66.4584 34.7885L66.1814 35.2302L66.6231 35.5073ZM72.7231 39.3339L73.1648 39.6109L73.4419 39.1692L73.0002 38.8921L72.7231 39.3339ZM57.8353 63.0671L58.277 63.3442L58.277 63.3442L57.8353 63.0671ZM57.1165 63.2318L57.3936 62.79L57.3936 62.79L57.1165 63.2318ZM51.8998 59.9594L51.6228 60.4011L51.6228 60.4011L51.8998 59.9594ZM51.7352 59.2406L52.1769 59.5177L51.7352 59.2406ZM73.2329 30.8517L74.0677 31.3754L74.6219 30.492L73.787 29.9683L73.2329 30.8517ZM74.0677 31.3754C75.2858 32.1395 75.655 33.7513 74.8908 34.9694L75.7743 35.5236C76.8445 33.8175 76.3279 31.5621 74.6219 30.492L74.0677 31.3754ZM74.8908 34.9694L72.3971 38.9448L73.2805 39.499L75.7743 35.5236L74.8908 34.9694ZM73.1159 38.7802L66.9805 34.9315L66.4263 35.8149L72.5617 39.6636L73.1159 38.7802ZM67.1451 35.6503L69.6389 31.6748L68.7554 31.1207L66.2617 35.0961L67.1451 35.6503ZM69.6389 31.6748C70.403 30.4567 72.0148 30.0876 73.2329 30.8517L73.787 29.9683C72.081 28.8981 69.8256 29.4146 68.7554 31.1207L69.6389 31.6748ZM72.5024 40.3795C72.2692 40.8458 72.2689 40.8457 72.2687 40.8456C72.2686 40.8456 72.2684 40.8454 72.2682 40.8454C72.268 40.8452 72.2677 40.8451 72.2676 40.845C72.2672 40.8448 72.267 40.8447 72.267 40.8447C72.267 40.8447 72.2677 40.8451 72.2691 40.8458C72.2719 40.8473 72.2774 40.8502 72.2853 40.8546C72.3012 40.8634 72.3269 40.8779 72.3604 40.8985C72.4275 40.9396 72.525 41.0038 72.6376 41.0918C72.8646 41.2692 73.1424 41.5345 73.3619 41.8911C73.5788 42.2436 73.7408 42.6879 73.7408 43.2392C73.7408 43.7922 73.5777 44.486 73.0925 45.335L73.998 45.8524C74.5556 44.8765 74.7836 44.006 74.7836 43.2392C74.7836 42.4706 74.5545 41.8394 74.25 41.3446C73.948 40.8538 73.574 40.5 73.2796 40.27C73.1315 40.1543 73.0009 40.0678 72.9051 40.0092C72.8571 39.9798 72.8176 39.9572 72.7887 39.9413C72.7742 39.9333 72.7624 39.927 72.7535 39.9223C72.749 39.9199 72.7453 39.918 72.7423 39.9165C72.7408 39.9157 72.7395 39.915 72.7383 39.9145C72.7378 39.9142 72.7373 39.9139 72.7368 39.9137C72.7366 39.9136 72.7363 39.9134 72.7362 39.9134C72.7359 39.9132 72.7356 39.9131 72.5024 40.3795ZM73.0925 45.335C72.0546 47.1513 70.6249 49.491 69.4522 51.3804C68.8664 52.3242 68.3456 53.1542 67.9713 53.7482C67.7841 54.0452 67.6336 54.2832 67.53 54.4468C67.4781 54.5286 67.438 54.5919 67.4108 54.6346C67.3973 54.656 67.3869 54.6723 67.38 54.6832C67.3766 54.6886 67.3739 54.6927 67.3722 54.6955C67.3713 54.6968 67.3707 54.6978 67.3702 54.6985C67.37 54.6989 67.3699 54.6991 67.3698 54.6993C67.3697 54.6994 67.3697 54.6994 67.3696 54.6995C67.3696 54.6995 67.3696 54.6995 67.8095 54.9795C68.2494 55.2594 68.2494 55.2594 68.2495 55.2593C68.2495 55.2593 68.2496 55.2592 68.2496 55.2591C68.2497 55.2589 68.2499 55.2587 68.2501 55.2583C68.2506 55.2576 68.2513 55.2565 68.2521 55.2551C68.2539 55.2523 68.2566 55.2481 68.2601 55.2426C68.2671 55.2316 68.2775 55.2152 68.2912 55.1937C68.3185 55.1506 68.3589 55.0871 68.4109 55.0049C68.515 54.8406 68.6659 54.602 68.8536 54.3042C69.2288 53.7087 69.7509 52.8766 70.3383 51.9303C71.512 50.0393 72.9501 47.6862 73.998 45.8524L73.0925 45.335ZM51.1744 59.2731L50.6008 67.9809L51.6414 68.0495L52.215 59.3416L51.1744 59.2731ZM51.4289 68.4361L58.1032 63.5555L57.4876 62.7137L50.8133 67.5943L51.4289 68.4361ZM66.346 35.949L72.446 39.7756L73.0002 38.8921L66.9002 35.0656L66.346 35.949ZM72.2814 39.0568L57.3936 62.79L58.277 63.3442L73.1648 39.6109L72.2814 39.0568ZM57.3936 62.79L57.3936 62.79L56.8394 63.6735C57.3263 63.9789 57.9716 63.8311 58.277 63.3442L57.3936 62.79ZM57.3936 62.79L52.1769 59.5177L51.6228 60.4011L56.8394 63.6735L57.3936 62.79ZM52.1769 59.5177L52.1769 59.5177L51.2935 58.9635C50.9881 59.4504 51.1359 60.0957 51.6228 60.4011L52.1769 59.5177ZM52.1769 59.5177L67.0648 35.7844L66.1814 35.2302L51.2935 58.9635L52.1769 59.5177ZM59.184 47.3626L65.2483 51.2472L65.8108 50.3691L59.7466 46.4845L59.184 47.3626Z" fill="url(#paint1_linear_898_570)"/>
<defs>
<linearGradient id="paint0_linear_898_570" x1="32.8791" y1="27.4495" x2="15.708" y2="38.0852" gradientUnits="userSpaceOnUse">
<stop stop-color="#F5CB5C"/>
<stop offset="1" stop-color="#EB5E28"/>
</linearGradient>
<linearGradient id="paint1_linear_898_570" x1="74.9687" y1="33.8165" x2="43.0808" y2="46.6214" gradientUnits="userSpaceOnUse">
<stop stop-color="#F5CB5C"/>
<stop offset="1" stop-color="#EB5E28"/>
</linearGradient>
</defs>
</svg>
