<svg width="86" height="86" viewBox="0 0 86 86" fill="none" xmlns="http://www.w3.org/2000/svg">
<path d="M74.3742 16H12.6258C10.6233 16 9 17.6233 9 19.6258V65.6328C9 67.6352 10.6233 69.2586 12.6258 69.2586H74.3742C76.3767 69.2586 78 67.6352 78 65.6328V19.6258C78 17.6233 76.3767 16 74.3742 16Z" stroke="#D8D3CF" stroke-width="1.04943" stroke-miterlimit="10"/>
<path d="M9.26172 60.863H77.9994" stroke="#D8D3CF" stroke-width="1.04943" stroke-miterlimit="10"/>
<path d="M17.1328 65.061H62.2583" stroke="#D8D3CF" stroke-width="1.04943" stroke-miterlimit="10"/>
<path d="M49.1406 63.4866V66.6349" stroke="#D8D3CF" stroke-width="1.04943" stroke-miterlimit="10"/>
<path d="M68.5566 63.4866V66.6349" stroke="#D8D3CF" stroke-width="1.04943" stroke-miterlimit="10"/>
<path d="M71.7031 63.4866V66.6349" stroke="#D8D3CF" stroke-width="1.04943" stroke-miterlimit="10"/>
<path fill-rule="evenodd" clip-rule="evenodd" d="M32.3495 42.4979H17.1328V41.4485H32.3495V42.4979ZM32.3495 47.2206H17.1328V46.1712H32.3495V47.2206ZM17.1328 50.8936H32.3495V49.8441H17.1328V50.8936Z" fill="#D8D3CF"/>
<path fill-rule="evenodd" clip-rule="evenodd" d="M17.6588 30.6919C17.6588 26.9558 20.5512 23.8953 24.2189 23.6273V31.28V31.8048H24.7436H31.7392C31.2053 35.1883 28.276 37.7756 24.7425 37.7756C20.8303 37.7756 17.6588 34.6041 17.6588 30.6919ZM31.8261 30.6919L31.8258 30.7553H25.2683V23.6275C28.9349 23.8966 31.8261 26.9566 31.8261 30.6919ZM16.6094 30.6919C16.6094 26.2001 20.2507 22.5588 24.7425 22.5588C29.2342 22.5588 32.8755 26.2001 32.8755 30.6919C32.8755 35.1837 29.2342 38.825 24.7425 38.825C20.2507 38.825 16.6094 35.1837 16.6094 30.6919ZM52.1869 23.0242L51.8256 22.5836L51.4162 22.9798L42.4803 31.6271L43.2101 32.3812L51.7365 24.1301L59.755 33.911L60.0563 34.2786L60.4518 34.0149L69.8967 27.7183L69.3146 26.8451L60.2652 32.8781L52.1869 23.0242ZM40.2221 38.3005H40.7468H44.9445H45.4692V38.8252V50.3689V50.8936H44.9445H40.7468H40.2221V50.3689V38.8252V38.3005ZM41.2715 39.3499V49.8442H44.4198V39.3499H41.2715ZM58.5843 38.3005H58.0596V38.8252V50.3689V50.8936H58.5843H62.782H63.3067V50.3689V38.8252V38.3005H62.782H58.5843ZM59.109 49.8442V39.3499H62.2573V49.8442H59.109ZM66.4572 34.1029H66.982H71.1797H71.7044V34.6276V50.369V50.8937H71.1797H66.982H66.4572V50.369V34.6276V34.1029ZM67.5067 35.1523V49.8443H70.655V35.1523H67.5067ZM49.6665 30.9545H49.1418V31.4792V50.3689V50.8937H49.6665H53.8643H54.389V50.3689V31.4792V30.9545H53.8643H49.6665ZM50.1913 49.8442V32.0039H53.3395V49.8442H50.1913Z" fill="url(#paint0_linear_898_577)"/>
<defs>
<linearGradient id="paint0_linear_898_577" x1="69.8261" y1="25.4489" x2="36.1053" y2="66.0613" gradientUnits="userSpaceOnUse">
<stop stop-color="#F5CB5C"/>
<stop offset="1" stop-color="#EB5E28"/>
</linearGradient>
</defs>
</svg>
