<svg width="86" height="86" viewBox="0 0 86 86" fill="none" xmlns="http://www.w3.org/2000/svg">
<path d="M46.4137 55.8859C47.492 56.425 48.6188 56.8719 49.7748 57.2216L52.0043 53.4622C52.2665 53.0202 52.7668 52.787 53.272 52.8696C55.0643 53.1513 56.8808 53.127 58.6634 52.7919C59.1685 52.6948 59.6737 52.9133 59.9457 53.3505L62.2868 57.0419C63.4574 56.6582 64.526 56.1968 65.6091 55.609L64.526 51.3736C64.3997 50.8782 64.5843 50.3633 64.9971 50.0573C65.7937 49.4793 66.464 48.9013 67.0517 48.2942C67.6394 47.687 68.1931 46.9973 68.7517 46.1862C69.0431 45.7636 69.5531 45.5596 70.0534 45.6713L74.318 46.6282C74.8571 45.5499 75.304 44.423 75.6537 43.267L71.8991 41.0376C71.4571 40.7753 71.224 40.2799 71.3017 39.7748C71.5834 37.9825 71.5591 36.1659 71.224 34.3785C71.1268 33.8733 71.3454 33.373 71.7825 33.0962L75.474 30.755C75.2797 30.1673 75.066 29.599 74.8328 29.0648C74.5997 28.5305 74.3374 27.9816 74.0411 27.4376L69.8057 28.5208C69.3103 28.647 68.7905 28.4625 68.4894 28.0448C67.9114 27.253 67.3383 26.5779 66.7263 25.9902C66.1191 25.4025 65.4294 24.8439 64.6183 24.2902C64.1957 23.9988 63.9917 23.4888 64.1034 22.9885L65.0603 18.7239C63.982 18.1848 62.8551 17.7379 61.6991 17.3882L59.4697 21.1428C59.2074 21.5848 58.712 21.8179 58.202 21.7402C56.4097 21.4585 54.5931 21.4876 52.8057 21.8179C52.3005 21.915 51.8003 21.6965 51.5234 21.2593L49.1823 17.5679C48.0117 17.9516 46.9431 18.413 45.86 19.0008L46.9431 23.2362C47.0694 23.7316 46.8848 24.2513 46.4671 24.5525C45.6705 25.1305 45.0003 25.7085 44.4125 26.3156C43.8248 26.9228 43.2663 27.6125 42.7125 28.4236C42.4211 28.8462 41.9111 29.0502 41.4108 28.9385L37.1463 27.9816C36.6071 29.0599 36.1603 30.1868 35.8105 31.3428L39.5651 33.5722C40.0071 33.8345 40.2403 34.3299 40.1625 34.835C39.8808 36.6273 39.9051 38.4439 40.2403 40.2313C40.3374 40.7365 40.1188 41.2368 39.6817 41.5136L35.9903 43.8548C36.1845 44.4425 36.3983 45.0108 36.6314 45.545C36.8645 46.0793 37.1268 46.6282 37.4231 47.1722L41.6585 46.089C42.154 45.9628 42.6737 46.1473 42.9748 46.565C43.5528 47.3568 44.1308 48.0319 44.7331 48.6196C45.3403 49.2073 46.03 49.7659 46.8411 50.3196C47.2637 50.611 47.4677 51.121 47.356 51.6213L46.3991 55.8859H46.4137Z" stroke="url(#paint0_linear_898_578)" stroke-width="0.971429" stroke-miterlimit="10"/>
<path d="M54.4129 68.5L55.3844 51.5C55.3844 51.5 63.6415 41.7857 63.6415 35.4714V30.7211C63.6415 30.7211 62.6701 11.6714 40.8129 11.6714C18.9558 11.6714 16.5272 30.6142 16.5272 30.6142V40.0857L11.1844 46.6428C11.1844 46.6428 9.72723 48.5857 16.0415 50.5285V58.3C16.0415 58.3 16.0415 60.7285 19.4415 60.7285H25.7558C25.7558 60.7285 28.1844 60.7285 28.1844 63.6428V72.3857C28.1844 72.3857 28.1844 74.3285 30.1272 74.8142" fill="#242423"/>
<path d="M54.4129 68.5L55.3844 51.5C55.3844 51.5 63.6415 41.7857 63.6415 35.4714V30.7211C63.6415 30.7211 62.6701 11.6714 40.8129 11.6714C18.9558 11.6714 16.5272 30.6142 16.5272 30.6142V40.0857L11.1844 46.6428C11.1844 46.6428 9.72723 48.5857 16.0415 50.5285V58.3C16.0415 58.3 16.0415 60.7285 19.4415 60.7285H25.7558C25.7558 60.7285 28.1844 60.7285 28.1844 63.6428V72.3857C28.1844 72.3857 28.1844 74.3285 30.1272 74.8142" stroke="#D8D3CF" stroke-width="0.971429" stroke-miterlimit="10"/>
<path d="M39.667 27.4911C32.4056 27.3357 29.3164 33.0525 29.3164 33.0525C29.3164 33.0525 27.3104 35.9863 27.461 40.0031C27.6164 44.02 29.3164 45.8754 29.3164 45.8754C33.7947 51.5923 33.7947 53.4477 33.7947 53.4477H44.9079C44.9079 53.4477 44.9079 51.5923 49.3861 45.8754C49.3861 45.8754 51.0861 44.02 51.2416 40.0031C51.397 35.9863 49.3861 33.0525 49.3861 33.0525C49.3861 33.0525 46.297 27.3357 39.0356 27.4911M32.2453 56.226H46.3019M38.1176 53.6031V42.9951C38.1176 42.9951 37.8067 41.2708 35.8007 41.334C33.7947 41.3971 33.7947 43.408 33.7947 43.408C33.7947 43.408 33.7947 45.5694 35.4947 45.7248L39.5893 45.7151M40.8181 53.6031V42.9951C40.8181 42.9951 41.129 41.2708 43.135 41.334C45.141 41.3971 45.141 43.408 45.141 43.408C45.141 43.408 45.141 45.5694 43.441 45.7248L39.3464 45.7151M39.1133 22.1143V25.0285M22.1133 40.0857H25.0276M53.199 40.0857H56.1133M47.657 24.7663L46.1124 27.2337M53.8644 30.9348L51.5621 32.7223M24.3621 30.9348L26.6644 32.7223M30.5696 24.7663L32.1141 27.2337M36.4516 59.4608C36.4516 61.4037 37.8261 62.9725 39.5261 62.9725C41.2261 62.9725 42.6007 61.4037 42.6007 59.4608M33.173 53.4477H45.5344V59.0091H33.173V53.4477Z" stroke="url(#paint1_linear_898_578)" stroke-width="0.971429" stroke-miterlimit="10"/>
<defs>
<linearGradient id="paint0_linear_898_578" x1="49.7998" y1="25.2715" x2="59.7098" y2="93.3114" gradientUnits="userSpaceOnUse">
<stop stop-color="#F5CB5C"/>
<stop offset="1" stop-color="#EB5E28"/>
</linearGradient>
<linearGradient id="paint1_linear_898_578" x1="54.9541" y1="26.2817" x2="14.6637" y2="47.0486" gradientUnits="userSpaceOnUse">
<stop stop-color="#F5CB5C"/>
<stop offset="1" stop-color="#EB5E28"/>
</linearGradient>
</defs>
</svg>
