<svg width="120" height="120" viewBox="0 0 120 120" fill="none" xmlns="http://www.w3.org/2000/svg">
<g clip-path="url(#clip0_111_23145)">
<path d="M0.347468 83.564C2.19947 87.3 8.99947 98.832 21.7115 98.288C21.1855 111.02 32.7015 117.8 36.4735 119.67C36.9367 119.886 37.4421 119.998 37.9535 119.996C39.184 119.979 40.3415 119.409 41.1055 118.444C45.2201 113.425 47.4859 107.146 47.5235 100.656C50.9462 101.292 54.4201 101.613 57.9015 101.614C74.2655 101.614 92.4715 95.282 104.405 83.476C108.161 79.76 116.557 70.35 118.395 65.568C120.653 60.92 120.583 54.584 118.057 47.188C114.149 36.8876 108.001 27.5842 100.057 19.95C89.2575 9.14999 68.1155 -5.07801 54.4575 1.56199C47.8225 5.33434 41.7802 10.0646 36.5255 15.6C22.1375 30.138 15.8915 54 19.3175 72.478C12.8289 72.5268 6.55298 74.7976 1.53547 78.912C0.121922 80.0083 -0.367328 81.9241 0.347468 83.564ZM97.2215 22.778C104.737 29.979 110.56 38.758 114.271 48.482C117.005 56.482 116.575 62.82 113.071 66.332C105.555 73.836 85.6135 66.584 69.5175 50.488C53.4215 34.392 46.1595 14.444 53.6675 6.93399C61.1755 -0.576014 81.1235 6.67799 97.2215 22.778ZM39.3695 18.4C41.8253 15.9178 44.4131 13.5698 47.1215 11.366C44.8875 22.28 52.2195 38.844 66.6835 53.308C79.4395 66.064 93.8455 73.308 104.555 73.308C105.919 73.3109 107.279 73.1769 108.615 72.908C106.415 75.6049 104.073 78.1832 101.599 80.632C81.3195 100.69 44.8255 102.164 31.3355 88.672C17.8455 75.18 19.3115 38.682 39.3695 18.4ZM20.2495 76.514C21.6623 82.1348 24.5051 87.2946 28.5015 91.492C32.7011 95.4769 37.8592 98.3091 43.4755 99.714C43.7178 105.619 41.752 111.402 37.9615 115.936C33.5415 113.69 24.1255 107.514 25.9215 96.364C26.0235 95.7299 25.8148 95.0854 25.3605 94.6315C24.9061 94.1776 24.2615 93.9694 23.6275 94.072C12.4755 95.872 6.25547 86.376 4.04747 82.014C8.58268 78.2419 14.3553 76.2851 20.2495 76.522V76.514Z" fill="#007BC2"/>
<path d="M77.6484 36.6839C78.6483 36.6889 79.6375 36.4782 80.5484 36.0659L90.7264 46.2439C91.5112 47.0019 92.7586 46.9911 93.5301 46.2196C94.3015 45.4481 94.3124 44.2007 93.5544 43.4159L83.3844 33.2459C84.0837 31.57 84.1937 29.7065 83.6964 27.9599C82.9279 25.2359 81.4495 22.765 79.4124 20.7999C74.6524 16.0379 68.4404 14.7999 65.2704 17.9699C62.1004 21.1399 63.3404 27.3539 68.0984 32.1119C70.5756 34.8071 73.9957 36.4444 77.6484 36.6839ZM68.0984 20.7999C68.5859 20.3774 69.2209 20.1652 69.8644 20.2099C72.4493 20.4816 74.8426 21.6989 76.5844 23.6279C78.1057 25.0868 79.2192 26.918 79.8144 28.9399C80.2245 29.9971 80.0741 31.1897 79.4144 32.1119C78.0784 33.4479 74.1644 32.5119 70.9284 29.2839C67.6924 26.0559 66.7644 22.1239 68.0984 20.7999Z" fill="#007BC2"/>
<path d="M39.8127 78.872C40.3015 78.8602 40.7888 78.8127 41.2707 78.73C40.6369 82.9895 42.8067 87.175 46.6527 89.1121C50.4987 91.0492 55.1535 90.3009 58.1987 87.256C58.9566 86.4713 58.9458 85.2239 58.1743 84.4524C57.4028 83.6809 56.1554 83.6701 55.3707 84.428C53.2713 86.5362 49.942 86.7819 47.5559 85.0047C45.1699 83.2274 44.4519 79.9671 45.8707 77.352C49.2286 79.4606 53.5208 79.3623 56.7787 77.102C60.1837 79.462 64.6956 79.462 68.1007 77.102C72.0652 79.8389 77.4193 79.3517 80.8247 75.944C81.3569 75.4449 81.5751 74.6955 81.394 73.9887C81.2129 73.2818 80.6611 72.7297 79.9544 72.5481C79.2477 72.3664 78.4982 72.5841 77.9987 73.116C76.4824 74.6319 74.2727 75.2237 72.2017 74.6686C70.1308 74.1134 68.5134 72.4956 67.9587 70.4246C67.4041 68.3535 67.9964 66.1439 69.5127 64.628C70.2936 63.8465 70.2931 62.58 69.5117 61.799C68.7302 61.0181 67.4636 61.0185 66.6827 61.8C64.3094 64.068 60.572 64.068 58.1987 61.8C55.8564 59.457 55.8564 55.659 58.1987 53.316C58.9566 52.5313 58.9458 51.2839 58.1743 50.5124C57.4028 49.7409 56.1554 49.7301 55.3707 50.488C53.8544 52.0043 51.6445 52.5964 49.5732 52.0414C47.502 51.4865 45.8842 49.8687 45.3292 47.7974C44.7743 45.7262 45.3664 43.5163 46.8827 42C47.6406 41.2153 47.6298 39.9678 46.8583 39.1964C46.0868 38.4249 44.8394 38.4141 44.0547 39.172C40.7164 42.6096 40.2369 47.9135 42.9047 51.894C40.5643 55.3037 40.5643 59.8023 42.9047 63.212C40.6703 66.4732 40.5668 70.7445 42.6407 74.11C40.3129 75.3164 37.4763 74.915 35.5747 73.11C34.4486 71.9847 33.8159 70.458 33.8159 68.866C33.8159 67.2741 34.4486 65.7474 35.5747 64.622C36.3123 63.8333 36.2905 62.6015 35.5256 61.8392C34.7607 61.077 33.5288 61.0596 32.7427 61.8C29.8821 64.6598 29.0261 68.9611 30.5737 72.6982C32.1213 76.4352 35.7678 78.872 39.8127 78.872ZM46.8827 73.116C45.0229 71.2373 44.6119 68.3627 45.8707 66.038C47.8519 67.3328 50.2518 67.8248 52.5827 67.414C52.5001 67.896 52.4527 68.3832 52.4407 68.872C52.4444 70.7319 52.9711 72.5532 53.9607 74.128C51.636 75.3868 48.7614 74.9758 46.8827 73.116ZM63.8587 67.458C63.5301 69.773 64.0203 72.13 65.2447 74.122C62.9221 75.3194 60.0964 74.9184 58.1987 73.122C56.3159 71.2614 55.8978 68.3767 57.1747 66.058C59.1721 67.2876 61.5357 67.7826 63.8587 67.458ZM52.5447 56.092C52.4748 56.5776 52.44 57.0675 52.4407 57.558C52.4441 59.4118 52.968 61.2274 53.9527 62.798C51.6245 64.006 48.7864 63.6045 46.8847 61.798C45.0253 59.925 44.6125 57.0551 45.8687 54.734C47.8729 55.9375 50.2295 56.4169 52.5447 56.092Z" fill="#007BC2"/>
</g>
<defs>
<clipPath id="clip0_111_23145">
<rect width="120" height="120" fill="white"/>
</clipPath>
</defs>
</svg>
