<svg width="120" height="120" viewBox="0 0 120 120" fill="none" xmlns="http://www.w3.org/2000/svg">
<path d="M115.633 29.3719L108.281 14.6681V5.625C108.281 3.81563 106.809 2.34375 105 2.34375H63.75C61.9406 2.34375 60.4688 3.81563 60.4688 5.625V14.6681L53.1169 29.3719C53.0194 29.5669 52.9688 29.7825 52.9688 30V77.3438H40.7813V60.885C40.7813 55.4719 37.9294 50.5781 33.2813 47.91V42.6563H34.6875C35.4638 42.6563 36.0938 42.0263 36.0938 41.25V37.5C36.0938 34.6556 33.7819 32.3438 30.9375 32.3438H14.0625C11.2181 32.3438 8.90625 34.6556 8.90625 37.5V41.25C8.90625 42.0263 9.53625 42.6563 10.3125 42.6563H11.7188V47.91C7.07062 50.5781 4.21875 55.4719 4.21875 60.885V110.625C4.21875 114.501 7.37438 117.656 11.25 117.656H33.75C34.5863 117.656 35.4037 117.452 36.2044 117.143C37.02 117.471 37.9088 117.656 38.8406 117.656H54.9094C55.5131 117.656 56.0887 117.557 56.6494 117.414C57.1275 117.559 57.6169 117.656 58.125 117.656H110.625C113.469 117.656 115.781 115.344 115.781 112.5V30C115.781 29.7825 115.731 29.5669 115.633 29.3719ZM100.781 5.15625H105C105.259 5.15625 105.469 5.36625 105.469 5.625V13.5938H100.781V5.15625ZM93.2813 5.15625H97.9688V13.5938H93.2813V5.15625ZM85.7813 5.15625H90.4688V9.31875C89.0944 8.79375 87.4012 8.46938 85.7813 8.2725V5.15625ZM90.0863 12.1875C88.8731 12.7912 85.605 13.5938 80.625 13.5938C75.645 13.5938 72.3787 12.7912 71.1637 12.1875C72.3769 11.5838 75.645 10.7813 80.625 10.7813C85.605 10.7813 88.8713 11.5838 90.0863 12.1875ZM78.2813 5.15625H82.9688V8.03437C81.93 7.98 81.0769 7.96875 80.625 7.96875C80.1731 7.96875 79.32 7.98 78.2813 8.03437V5.15625ZM70.7813 5.15625H75.4688V8.27438C73.8488 8.46938 72.1556 8.79563 70.7813 9.32063V5.15625ZM70.7813 15.0562C74.0606 16.3106 79.215 16.4063 80.625 16.4063C82.035 16.4063 87.1912 16.3088 90.4706 15.0544V18.7238C90.2775 19.3763 86.9531 21.0938 80.625 21.0938C74.2969 21.0938 70.9744 19.3763 70.7813 18.75V15.0562ZM63.2813 5.625C63.2813 5.36625 63.4912 5.15625 63.75 5.15625H67.9688V13.5938H63.2813V5.625ZM62.7431 16.4063H67.9688V18.75C67.9688 22.2937 74.5294 23.9063 80.625 23.9063C86.7206 23.9063 93.2813 22.2937 93.2813 18.75V16.4063H104.601L98.5069 28.5938H56.6494L62.7431 16.4063ZM62.1956 80.1563L61.3519 88.5938H32.3981L31.5544 80.1563H62.1956ZM11.7188 37.5C11.7188 36.2081 12.7706 35.1563 14.0625 35.1563H30.9375C32.2294 35.1563 33.2813 36.2081 33.2813 37.5V39.8438H11.7188V37.5ZM30.4688 42.6563V47.3438H14.5313V42.6563H30.4688ZM7.03125 60.885C7.03125 56.3475 9.51 52.2712 13.5019 50.1563H31.4981C35.49 52.2712 37.9688 56.3475 37.9688 60.885V66.0938H7.03125V60.885ZM7.03125 68.9063H37.9688V77.3438H30C29.1675 77.3438 28.5187 78.0619 28.6013 78.8906L30.3225 96.0938H7.03125V68.9063ZM11.25 114.844C8.925 114.844 7.03125 112.95 7.03125 110.625V98.9063H30.6019L31.8431 111.324C31.9762 112.648 32.4694 113.848 33.2138 114.844H11.25ZM54.9094 114.844H38.8406C36.6638 114.844 34.8581 113.211 34.6425 111.047L32.6794 91.4063H61.0706L59.1075 111.047C58.8919 113.211 57.0863 114.844 54.9094 114.844ZM60.5344 114.844C61.2788 113.85 61.7737 112.648 61.905 111.324L65.1487 78.8906C65.2312 78.0619 64.5806 77.3438 63.75 77.3438H55.7813V31.4063H97.9688V112.5C97.9688 113.347 98.1938 114.137 98.5594 114.844H60.5344ZM112.969 112.5C112.969 113.792 111.917 114.844 110.625 114.844H103.125C101.833 114.844 100.781 113.792 100.781 112.5V30.3319L106.875 18.1444L112.969 30.3319V112.5Z" fill="#007BC2"/>
<path d="M85.3481 56.9062C85.0706 56.5931 84.7818 56.2931 84.4781 56.0119L85.7399 50.9662C85.9274 50.2125 85.4699 49.4494 84.7162 49.2619C83.9624 49.0744 83.1993 49.5319 83.0118 50.2856L82.0162 54.27C80.4618 53.4469 78.7218 52.9706 76.8768 52.9706C75.0318 52.9706 73.2918 53.4469 71.7374 54.27L70.7418 50.2856C70.5543 49.5319 69.7912 49.0744 69.0374 49.2619C68.2837 49.4494 67.8262 50.2144 68.0137 50.9662L69.2756 56.0119C68.9718 56.2931 68.6812 56.5931 68.4056 56.9062C64.6856 58.1681 58.9818 60.6712 59.5762 64.0406C59.8931 65.8425 61.8281 66.9919 65.3024 67.4775C65.4224 68.3475 65.6268 69.2025 65.9174 70.0369C64.8431 71.2125 64.2224 72.5831 64.2224 74.0625C64.2224 78.5306 69.7818 82.0312 76.8787 82.0312C83.9756 82.0312 89.5349 78.5306 89.5349 74.0625C89.5349 72.5812 88.9143 71.2125 87.8399 70.0369C88.1306 69.2025 88.3349 68.3475 88.4549 67.4775C91.9293 66.9919 93.8643 65.8425 94.1812 64.0425C94.7774 60.6731 89.0737 58.1681 85.3518 56.9081L85.3481 56.9062ZM65.2031 64.6181C63.1106 64.26 62.4074 63.705 62.3437 63.5644C62.3568 63.3056 63.1274 62.2162 66.0243 60.8644C65.5799 62.0381 65.3006 63.3 65.2031 64.6181ZM76.8749 55.7812C81.7856 55.7812 85.7812 60.1969 85.7812 65.625C85.7812 66.4912 85.6649 67.3406 85.4606 68.1712C83.2199 66.8794 80.2237 66.0937 76.8749 66.0937C73.5262 66.0937 70.5318 66.8794 68.2893 68.1712C68.0849 67.3406 67.9687 66.4912 67.9687 65.625C67.9687 60.1969 71.9643 55.7812 76.8749 55.7812ZM76.8749 79.2187C71.0737 79.2187 67.0312 76.5019 67.0312 74.0625C67.0312 71.6231 71.0737 68.9062 76.8749 68.9062C82.6762 68.9062 86.7187 71.6231 86.7187 74.0625C86.7187 76.5019 82.6762 79.2187 76.8749 79.2187ZM88.5468 64.6162C88.4493 63.2981 88.1699 62.0362 87.7256 60.8625C90.6243 62.2144 91.3931 63.2981 91.4099 63.54C91.3443 63.6994 90.6393 64.2562 88.5468 64.6162Z" fill="#007BC2"/>
</svg>
