<svg width="120" height="120" viewBox="0 0 120 120" fill="none" xmlns="http://www.w3.org/2000/svg">
<g clip-path="url(#clip0_111_22342)">
<path d="M117.02 91.7284C111.618 89.9342 108.076 87.2864 106.492 83.8558C105.64 82.0094 105.504 80.4135 105.484 78.9619C105.38 71.7736 101.363 61.0287 93.2052 46.1158C93.1616 46.0365 92.3623 44.9816 91.9994 44.5384C93.4413 42.7868 94.6297 41.4968 95.219 40.8745C95.7242 40.3423 95.7842 39.7065 95.6981 39.0126C95.6981 39.0126 102.265 32.5471 102.396 32.5471C104.137 32.5471 105.903 32.6381 107.641 32.5336C111.158 32.3216 114.009 29.3255 114.009 25.7942C114.009 22.8358 112.096 20.2674 109.243 19.381C108.852 19.1671 107.991 18.3116 107.774 17.9206C106.88 15.0784 104.304 13.1729 101.34 13.1729C97.6055 13.1729 94.5658 16.2019 94.5658 19.9258V24.7423C94.5658 24.8661 88.0703 31.4013 88.0703 31.4013C87.3765 31.3161 86.7406 31.3703 86.2055 31.8736C85.5445 32.4939 84.1316 33.781 82.2165 35.3274C81.5245 34.8416 80.851 34.4042 80.2171 34.0413C78.3997 33 76.5455 32.2994 74.7271 31.8281C75.99 30.389 77.1029 29.1387 77.8819 28.3065C79.5213 28.6248 81.2081 28.4226 82.6471 27.7055C86.6826 25.6965 86.8229 20.4252 83.2723 17.8326C82.0364 16.9287 80.5171 16.5126 78.9639 16.6481C78.4597 16.5077 77.339 15.7074 77.0632 15.3281C75.0494 12.4974 71.0429 11.6865 68.1639 13.6858C65.2519 15.7084 64.3674 19.6906 66.1655 22.7565C64.4226 24.5023 57.4181 31.5436 56.8829 32.0816C37.7487 35.5703 0 49.0674 0 81.3987C0 97.4487 12.7935 107.419 33.3871 107.419H101.129C113.443 107.419 120 100.7 120 95.85C120 93.9745 118.802 92.3177 117.02 91.7284ZM97.1584 27.8177C97.9839 26.9961 98.4368 25.9036 98.4368 24.7423V19.9258C98.4368 18.3368 99.7394 17.0448 101.34 17.0448C102.611 17.0448 103.716 17.8752 104.088 19.1052C104.506 20.5016 106.662 22.65 108.064 23.069C109.304 23.4406 110.138 24.5352 110.138 25.7932C110.138 27.3823 108.835 28.6742 107.235 28.6742H102.396C101.235 28.6742 100.142 29.1252 99.3194 29.9439L94.4419 34.8C93.9242 33.8797 93.2168 33.1742 92.2955 32.6574L97.1584 27.8177ZM88.1739 35.3265C89.0216 35.4726 90.1519 35.6719 90.7945 36.3048C91.4235 36.9232 91.6277 38.071 91.7719 38.8945C87.6852 43.3316 77.4194 55.6152 77.4194 66.9484C77.4194 76.5048 69.6048 84.2797 60 84.2797C50.3952 84.2797 42.5806 76.5048 42.5806 66.9484C42.5806 57.3919 50.3952 49.6161 60 49.6161C71.3806 49.6161 83.7223 39.391 88.1739 35.3265ZM70.1052 24.2913C70.8629 23.5374 70.8503 22.259 70.0781 21.5206C68.8761 20.369 68.7397 18.4974 69.9077 17.2771C71.0555 16.0781 72.9406 16.2116 73.9084 17.5723C74.549 18.4732 77.16 20.7494 79.2552 20.5103C79.8832 20.4406 80.4968 20.5994 80.9874 20.9594C81.8061 21.5574 82.3984 22.7806 81.6813 23.6623C80.8239 24.7161 79.1332 24.7529 77.9623 24.3213C77.2655 24.0648 76.4845 24.2284 75.9503 24.7432C74.9545 25.7013 72.7829 28.1594 70.2426 31.0771C67.5416 30.8555 65.1029 31.0258 63.2158 31.2058C66.3339 28.0713 69.1384 25.2542 70.1052 24.2913ZM101.129 103.547H33.3871C15.181 103.547 3.87097 95.0603 3.87097 81.3987C3.87097 48.5332 47.3748 36.7074 62.6148 35.1561C63.9107 35.0245 65.6187 34.8503 67.5474 34.8503C70.8155 34.8503 74.7135 35.3497 78.2932 37.4013C78.5139 37.5281 78.7403 37.6655 78.9716 37.8116C73.6974 41.6245 66.4955 45.7442 60 45.7442C48.2603 45.7442 38.7097 55.2561 38.7097 66.9484C38.7097 78.6406 48.2603 88.1516 60 88.1516C71.7397 88.1516 81.2903 78.6397 81.2903 66.9484C81.2903 60.3252 85.6365 52.9645 89.5432 47.6845C89.6516 47.8229 89.7706 47.9535 89.8761 48.0939C97.5726 62.1803 101.521 72.5835 101.614 79.0171C101.637 80.7 101.814 82.9548 102.979 85.4797C105.029 89.9197 109.343 93.2584 115.803 95.4039C115.998 95.4687 116.13 95.6477 116.13 95.85C116.129 98.5364 110.978 103.547 101.129 103.547Z" fill="#007BC2"/>
</g>
<defs>
<clipPath id="clip0_111_22342">
<rect width="120" height="120" fill="white"/>
</clipPath>
</defs>
</svg>
