<svg width="120" height="120" viewBox="0 0 120 120" fill="none" xmlns="http://www.w3.org/2000/svg">
<g clip-path="url(#clip0_111_22541)">
<path fill-rule="evenodd" clip-rule="evenodd" d="M29.7583 119.972C13.4815 119.972 10.5196 110.478 23.3916 107.848V75.045C17.0801 72.4983 12.5957 66.3253 12.5957 59.1004V21.9239C12.5957 21.0381 13.3154 20.3184 14.2012 20.3184H45.3154C46.2012 20.3184 46.921 21.0381 46.921 21.9239V59.1004C46.921 66.3253 42.4365 72.4983 36.1251 75.045V107.848C48.9971 110.478 46.0075 119.972 29.7583 119.972ZM105.8 119.972H57.3016C56.4435 119.972 55.7237 119.253 55.7237 118.367V61.481C55.7237 46.2284 70.0628 46.699 70.5057 14.2284C69.5092 14.2284 68.3742 14.0069 68.3742 12.6229V1.63325C68.3742 0.747433 69.094 0.02771 69.9798 0.02771H93.1493C94.0351 0.02771 94.7272 0.747433 94.7272 1.63325V12.6229C94.7272 14.0069 93.5922 14.2284 92.5957 14.2284C93.0663 46.699 107.405 46.2284 107.405 61.481V118.367C107.405 119.253 106.686 119.972 105.8 119.972ZM58.9071 116.761H104.222V113.633H58.9071V116.761ZM104.222 110.45V61.481C104.222 47.917 89.8552 47.391 89.4123 14.2284H73.7168C73.2739 47.391 58.9071 47.917 58.9071 61.481V71.4741H82.3812C83.267 71.4741 83.9867 72.1938 83.9867 73.0796V101.924C83.9867 102.81 83.267 103.529 82.3812 103.529H58.9071V110.45H104.222ZM58.9071 100.346H80.7756V74.6575H58.9071V100.346ZM71.5576 11.045H91.5438V3.23878H71.5576V11.045ZM25.3846 72.3599C28.8448 73.218 30.4781 73.4395 34.132 72.3599C39.696 70.5329 43.7376 65.2734 43.7376 59.1004V41.4118H15.7791V59.1004C15.7791 65.2734 19.8206 70.5052 25.3846 72.3599ZM29.7583 76.263L26.6026 75.9585V107.377C28.6787 107.211 30.8379 107.211 32.914 107.377V75.9585L29.7583 76.263ZM15.7791 23.5018V38.2007H43.7376V23.5018H15.7791ZM34.3812 110.782C29.8137 110.422 30.0351 110.201 25.1355 110.782C20.8448 111.446 18.6026 112.914 18.6026 113.606C18.6026 114.519 22.5057 116.761 29.7583 116.761C37.0109 116.761 40.914 114.519 40.914 113.606C40.914 112.914 38.6718 111.446 34.3812 110.782Z" fill="#007BC2"/>
</g>
<defs>
<clipPath id="clip0_111_22541">
<rect width="120" height="120" fill="white"/>
</clipPath>
</defs>
</svg>
