<svg width="120" height="120" viewBox="0 0 120 120" fill="none" xmlns="http://www.w3.org/2000/svg">
<g clip-path="url(#clip0_111_22941)">
<path d="M104.307 19.7745C104.855 19.9346 105.423 20.0168 105.993 20.0185C109.315 20.0187 112.008 17.3258 112.008 14.0039C112.008 10.682 109.315 7.98883 105.994 7.98883C102.672 7.9886 99.9785 10.6815 99.9785 14.0034C99.9783 16.6776 101.744 19.0308 104.312 19.7785L104.307 19.7745ZM104.065 13.4696C104.21 12.9599 104.551 12.5283 105.013 12.2698C105.482 12.0109 106.034 11.9504 106.547 12.1018C107.604 12.4205 108.203 13.5359 107.885 14.5935C107.735 15.0895 107.399 15.5081 106.947 15.7611C106.478 16.0182 105.927 16.0784 105.413 15.9292C104.362 15.6283 103.754 14.5321 104.055 13.4811C104.057 13.4759 104.058 13.4708 104.06 13.4656L104.065 13.4696Z" fill="#007BC2"/>
<path d="M14.7494 69.9472C18.0624 69.928 20.7326 67.2266 20.7134 63.9137C20.6942 60.6007 17.9928 57.9305 14.6798 57.9497C13.6856 57.9555 12.7084 58.2082 11.8362 58.6853C8.92959 60.275 7.86197 63.9202 9.45168 66.8269C10.5097 68.7617 12.5442 69.9599 14.7494 69.9472ZM13.7496 62.1906C14.7103 61.6463 15.9307 61.9837 16.4751 62.9447C16.7448 63.4209 16.8076 63.9865 16.6489 64.5103C16.5062 65.0228 16.1622 65.4556 15.6952 65.71C14.7255 66.2474 13.504 65.8968 12.9666 64.9271C12.4293 63.9575 12.7799 62.7359 13.7496 62.1986V62.1906Z" fill="#007BC2"/>
<path d="M19.3566 101.449C20.401 103.366 22.4055 104.562 24.5876 104.571C25.0855 104.571 25.5816 104.507 26.0634 104.381C29.6201 103.469 33.1062 102.302 36.4954 100.89C38.276 102.889 40.3443 104.612 42.6323 106.003H6.01094C2.69797 106.003 0.012057 108.689 0.012057 112.002V114.001C0.012057 117.314 2.69797 120 6.01094 120H113.991C117.304 120 119.99 117.314 119.99 114.001V112.002C119.99 108.689 117.304 106.003 113.991 106.003H96.5142C100.096 103.064 102.118 98.6358 101.993 94.0049C101.993 85.3285 94.7204 82.0812 91.2272 80.5194C88.0888 79.1534 85.1639 77.3418 82.5429 75.1403C84.5825 73.5928 86.5394 71.9395 88.4059 70.1872C90.3958 68.3175 90.8591 65.3337 89.5297 62.9485L81.0793 47.5374C84.4665 47.1815 86.9237 44.1469 86.5678 40.7596C86.5094 40.2038 86.3756 39.6587 86.1704 39.139L83.0969 30.9986L96.0945 23.7999C100.509 28.1678 107.264 29.1265 112.719 26.1594C119.497 22.4415 121.978 13.9329 118.26 7.15509C118.192 7.03136 118.122 6.90857 118.05 6.78695C113.995 0.253553 105.511 -1.92409 98.81 1.84795L64.1423 20.8724L6.227 52.6124C0.4212 55.8063 -1.69622 63.1017 1.49772 68.9073C1.49842 68.9087 1.49912 68.9099 1.49983 68.9113L19.3566 101.449ZM25.0614 100.509C24.1885 100.721 23.2833 100.315 22.8617 99.5218L20.8481 95.8505C24.4683 94.9664 28.0065 93.775 31.4242 92.2891C32.0831 94.1462 32.9553 95.9203 34.0236 97.5761C31.1041 98.7501 28.1103 99.7301 25.0614 100.509ZM113.991 110.002C115.095 110.002 115.99 110.897 115.99 112.001V114.001C115.99 115.105 115.095 116 113.991 116H6.01094C4.90654 116 4.01139 115.105 4.01139 114.001V112.001C4.01139 110.897 4.90677 110.002 6.01094 110.002H113.991ZM97.994 94.0047C97.994 101.293 92.495 106.002 83.9845 106.002H56.8016C44.6079 106.166 34.5007 96.5912 34.0058 84.4065C33.7795 72.2606 43.4421 62.231 55.588 62.0046C63.1696 61.8633 70.2892 65.6372 74.4282 71.9909C78.1972 77.4349 83.4664 81.6669 89.5954 84.1726C93.6587 85.9863 97.994 88.3917 97.994 94.0047ZM85.6682 67.2698C83.7685 69.0566 81.7689 70.7344 79.6794 72.2948C78.9921 71.5089 78.3582 70.6777 77.7818 69.8074C77.2772 69.0519 76.7338 68.3231 76.1541 67.6239C78.9436 65.7019 81.5718 63.5559 84.0126 61.2072L86.0302 64.8845C86.4626 65.6698 86.3142 66.6476 85.6682 67.2698ZM100.737 5.35308C105.543 2.60999 111.656 4.13854 114.605 8.82048C117.406 13.5791 115.819 19.7075 111.061 22.5087C110.976 22.5584 110.891 22.6069 110.806 22.654C106.909 24.7764 102.082 24.0928 98.9278 20.9722C97.6758 19.742 95.7634 19.4823 94.2288 20.3344L81.4191 27.369L76.5979 18.5987L100.737 5.35308ZM73.0926 20.5223L78.7716 30.8603L82.4309 40.5605C82.8309 41.6264 82.3794 42.8236 81.375 43.36C80.8435 43.6503 80.2165 43.711 79.6393 43.528C79.0633 43.3706 78.5768 42.9839 78.2935 42.4583L67.8194 23.4179L73.0926 20.5223ZM4.32938 60.8988C4.91544 58.861 6.29214 57.1425 8.15273 56.1257L64.3103 25.3315L74.7723 44.358L74.7842 44.3761L81.9969 57.5176C79.3996 60.2124 76.5164 62.616 73.3986 64.6863C62.733 55.0759 46.296 55.9312 36.6856 66.597C32.2722 71.495 29.8849 77.8869 30.0067 84.4786C30.0381 85.7855 30.1719 87.0879 30.4067 88.3739C26.6954 90.0677 22.8048 91.3375 18.809 92.1593L5.01152 66.9879C3.97999 65.1306 3.73441 62.9382 4.32938 60.8988Z" fill="#007BC2"/>
<path d="M71.083 74.1783C65.6622 65.8474 54.5141 63.4883 46.1834 68.9091C40.9782 72.2962 37.8869 78.1275 38.0052 84.3366C38.4542 94.3432 46.7863 102.175 56.8017 102.003H83.9965C93.0188 102.003 93.9948 97.1041 93.9948 95.0045C93.9948 92.6411 93.5348 90.3153 87.9638 87.8298C81.1316 85.0136 75.2663 80.2702 71.083 74.1783ZM89.9954 95.0045C89.9954 97.488 86.726 98.004 83.9846 98.004H56.8017C48.9642 98.1842 42.406 92.0958 42.0043 84.2665C41.8572 76.5373 48.0037 70.1523 55.7326 70.0051C60.5618 69.9132 65.0972 72.3175 67.7316 76.3658C72.3315 83.1014 78.7934 88.3516 86.3281 91.475C89.9954 93.1088 89.9954 93.9428 89.9954 95.0045Z" fill="#007BC2"/>
<path d="M61.0007 80.0073C57.1354 80.0073 54.002 83.1408 54.002 87.0061C54.002 90.8714 57.1354 94.0049 61.0007 94.0049C64.866 94.0049 67.9995 90.8714 67.9995 87.0061C67.9995 83.1408 64.866 80.0073 61.0007 80.0073ZM61.0007 90.0055C59.3442 90.0055 58.0013 88.6626 58.0013 87.0061C58.0013 85.3496 59.3442 84.0067 61.0007 84.0067C62.6572 84.0067 64.0002 85.3496 64.0002 87.0061C64.0002 88.6626 62.6572 90.0055 61.0007 90.0055Z" fill="#007BC2"/>
</g>
<defs>
<clipPath id="clip0_111_22941">
<rect width="120" height="120" fill="white"/>
</clipPath>
</defs>
</svg>
