<svg width="120" height="120" viewBox="0 0 120 120" fill="none" xmlns="http://www.w3.org/2000/svg">
<path d="M49.9342 54.2433C50.1638 54.3373 50.4098 54.3849 50.6579 54.3832C50.906 54.3814 51.1513 54.3305 51.3795 54.2333C51.6078 54.1361 51.8145 53.9946 51.9877 53.8169C52.1608 53.6392 52.297 53.4289 52.3883 53.1982C52.4796 52.9676 52.5242 52.721 52.5196 52.473C52.5149 52.2249 52.4611 51.9803 52.3612 51.7532C52.2613 51.5261 52.1173 51.3211 51.9376 51.15C51.7578 50.979 51.546 50.8453 51.3142 50.7567C46.9719 49.0376 41.4002 48.0909 35.6242 48.0909C29.8483 48.0909 24.2765 49.0376 19.9342 50.7567C19.7025 50.8453 19.4906 50.979 19.3109 51.15C19.1311 51.3211 18.9872 51.5261 18.8873 51.7532C18.7874 51.9803 18.7335 52.2249 18.7288 52.473C18.7242 52.721 18.7688 52.9676 18.8601 53.1982C18.9514 53.4289 19.0876 53.6392 19.2608 53.8169C19.4339 53.9946 19.6406 54.1361 19.8689 54.2333C20.0972 54.3305 20.3425 54.3814 20.5906 54.3832C20.8387 54.3849 21.0846 54.3373 21.3142 54.2433C25.2283 52.6941 30.31 51.8409 35.6242 51.8409C40.9384 51.8409 46.0204 52.6941 49.9342 54.2433Z" fill="#007BC2"/>
<path d="M97.5 3.75H90C84.5236 3.75 79.7782 9.71344 76.2769 20.9953C74.6175 26.3426 73.3406 32.5842 72.4887 39.375H33.75V39.4027C26.1825 39.603 19.1048 41.0105 13.6533 43.422C7.26703 46.2466 3.75 50.1879 3.75 54.5196C3.75 58.2441 6.40242 61.733 11.25 64.4257V98.9177C8.40206 101.196 6.4556 104.412 5.75742 107.992C5.55644 109.003 5.58254 110.046 5.83385 111.045C6.08515 112.045 6.55538 112.976 7.21055 113.771C7.84306 114.546 8.6397 115.17 9.54287 115.598C10.446 116.027 11.4332 116.25 12.4329 116.25H81.3171C82.8367 116.25 84.3116 115.736 85.5012 114.79C86.8191 115.719 88.3874 116.228 90 116.25H97.5C102.976 116.25 107.722 110.287 111.223 99.0047C114.465 88.5595 116.25 74.7073 116.25 60C116.25 45.2927 114.465 31.4405 111.223 20.9953C107.722 9.71344 102.976 3.75 97.5 3.75ZM12.4329 112.5C11.9869 112.499 11.5468 112.398 11.1443 112.206C10.7419 112.014 10.3871 111.734 10.1058 111.388C9.80319 111.02 9.58628 110.588 9.47072 110.126C9.35516 109.663 9.34384 109.18 9.43758 108.713C9.79754 106.846 10.611 105.097 11.8063 103.618C13.0016 102.14 14.5421 100.979 16.2921 100.236C15.7814 101.689 15.3997 103.184 15.1514 104.704C14.6912 107.409 15.257 110.189 16.7381 112.5H12.4329ZM24.375 112.5H23.2877C22.1794 112.5 21.108 111.959 20.2739 110.977C19.0404 109.525 18.5088 107.406 18.852 105.31C19.7895 99.5791 22.766 94.782 26.8048 92.1558C26.1016 95.0812 26.0612 98.1267 26.6864 101.07L28.9364 111.781C28.9893 112.025 29.0587 112.265 29.1441 112.5L24.375 112.5ZM28.8141 87.0593C24.5377 88.4618 20.8753 91.5977 18.3666 95.7921C17.2118 95.9659 16.0818 96.276 15 96.7158V63.2955C15 62.9477 14.9032 62.6066 14.7205 62.3106C14.5377 62.0145 14.2762 61.7752 13.9652 61.6193C9.79687 59.5296 7.5 57.0082 7.5 54.5196C7.5 51.8025 10.2959 49.0078 15.1704 46.8516C20.6027 44.4483 27.8672 43.125 35.625 43.125C43.3828 43.125 50.6484 44.4483 56.0796 46.8516C60.9546 49.0078 63.75 51.8027 63.75 54.5198C63.75 57.0084 61.4531 59.5298 57.2848 61.6195C56.9738 61.7754 56.7123 62.0147 56.5296 62.3107C56.3468 62.6067 56.25 62.9477 56.25 63.2955V78.8658C54.825 78.1875 53.3227 77.6853 51.7762 77.3702C48.5425 76.7065 45.2075 76.7065 41.9737 77.3702C39.4465 77.8848 37.0469 78.8974 34.9151 80.3491C32.7833 81.8007 30.9618 83.6623 29.557 85.8253C29.292 86.2289 29.048 86.6421 28.8141 87.0593ZM63.3935 100.298L61.1435 111.011C61.0535 111.431 60.8225 111.808 60.4887 112.079C60.1549 112.35 59.7385 112.498 59.3086 112.5H34.4414C34.0115 112.498 33.5951 112.35 33.2613 112.079C32.9275 111.808 32.6965 111.431 32.6065 111.011L30.3565 100.298C29.9021 98.1775 29.8745 95.9877 30.2754 93.8564C30.6762 91.7251 31.4975 89.695 32.6913 87.8845C33.8256 86.1356 35.2968 84.6301 37.0191 83.4557C38.7413 82.2814 40.6802 81.4617 42.7226 81.0445C45.4617 80.4823 48.2864 80.4823 51.0255 81.0445C53.0679 81.4617 55.0068 82.2814 56.729 83.4557C58.4513 84.6301 59.9225 86.1356 61.0568 87.8845C62.2509 89.6949 63.0725 91.7249 63.4737 93.8562C63.8749 95.9875 63.8477 98.1773 63.3935 100.298ZM73.4766 110.977C72.6415 111.959 71.5711 112.5 70.4627 112.5H64.6057C64.6911 112.265 64.7604 112.025 64.8134 111.781L67.0634 101.069C67.689 98.1261 67.649 95.0806 66.9462 92.1551C70.9852 94.7801 73.9608 99.5787 74.899 105.31C75.2412 107.406 74.7096 109.523 73.4766 110.977ZM64.9359 87.0593C64.7016 86.6421 64.458 86.2289 64.193 85.8253C63.0469 84.0781 61.6318 82.5231 60 81.218V64.4257C64.8476 61.733 67.5 58.2441 67.5 54.5196C67.5 50.1879 63.983 46.2462 57.5967 43.422C57.3666 43.32 57.128 43.2232 56.8936 43.125H72.0682C71.5298 48.5119 71.25 54.1887 71.25 60C71.25 73.2551 72.6867 85.7302 75.3281 95.6998C72.8215 91.5513 69.1809 88.4515 64.9359 87.0593ZM83.6442 111.387C83.3629 111.734 83.0083 112.013 82.6058 112.205C82.2034 112.398 81.7632 112.498 81.3171 112.5H77.0119C78.493 110.189 79.0588 107.409 78.5986 104.704C78.3502 103.184 77.9685 101.689 77.4579 100.236C79.2079 100.979 80.7484 102.14 81.9438 103.618C83.1391 105.097 83.9525 106.846 84.3124 108.713C84.4061 109.181 84.3948 109.663 84.2792 110.126C84.1637 110.589 83.9468 111.02 83.6442 111.388V111.387ZM90 112.5C89.1766 112.475 88.3779 112.213 87.6998 111.746C88.1391 110.545 88.2404 109.246 87.9926 107.992C87.5376 105.651 86.5442 103.449 85.0908 101.559C83.6375 99.6686 81.7641 98.1426 79.6191 97.1016C78.6702 93.8543 77.8972 90.5582 77.3037 87.2276C79.8928 86.501 85.6357 85.523 93.157 88.0298C93.3928 88.1174 93.6438 88.1565 93.8951 88.145C94.1464 88.1335 94.3927 88.0716 94.6196 87.9629C94.8464 87.8543 95.049 87.7011 95.2154 87.5124C95.3818 87.3238 95.5086 87.1037 95.5881 86.8651C95.6677 86.6265 95.6984 86.3743 95.6785 86.1236C95.6586 85.8728 95.5884 85.6287 95.4722 85.4056C95.356 85.1825 95.1961 84.9851 95.002 84.8252C94.8079 84.6652 94.5836 84.5459 94.3425 84.4744L94.3216 84.4676L94.2952 84.4594C86.2245 81.7805 79.9514 82.6402 76.6837 83.5022C75.6041 76.1405 75.043 68.7121 75.0047 61.2717C77.2966 60.4922 83.2259 59.0965 91.2816 61.7817C91.5174 61.8692 91.7684 61.9084 92.0196 61.8969C92.2709 61.8854 92.5173 61.8235 92.7441 61.7148C92.9709 61.6061 93.1736 61.4529 93.34 61.2643C93.5064 61.0757 93.6331 60.8555 93.7127 60.6169C93.7922 60.3783 93.823 60.1262 93.803 59.8754C93.7831 59.6247 93.713 59.3805 93.5968 59.1575C93.4805 58.9344 93.3206 58.737 93.1265 58.577C92.9325 58.4171 92.7082 58.2978 92.467 58.2263L92.4464 58.2197L92.4192 58.211C84.5271 55.5921 78.3539 56.4464 75.019 57.3544C75.1021 50.4795 75.6373 43.6176 76.6212 36.813C78.7584 36.1099 84.8815 34.6505 93.1561 37.4086C93.3919 37.4961 93.6429 37.5353 93.8942 37.5238C94.1454 37.5123 94.3918 37.4504 94.6186 37.3417C94.8455 37.233 95.0481 37.0798 95.2145 36.8912C95.3809 36.7026 95.5076 36.4824 95.5872 36.2438C95.6668 36.0052 95.6975 35.753 95.6776 35.5023C95.6577 35.2516 95.5875 35.0074 95.4713 34.7843C95.3551 34.5613 95.1952 34.3639 95.0011 34.2039C94.807 34.0439 94.5827 33.9246 94.3416 33.8531L94.3207 33.8463L94.2942 33.8381C86.7021 31.3181 80.703 31.9296 77.298 32.7288C77.9407 29.143 78.7952 25.5983 79.857 22.1135C82.6969 12.9609 86.4881 7.5 90 7.5C93.5119 7.5 97.3031 12.9609 100.142 22.1067C103.275 32.2031 105 45.6591 105 60C105 74.3409 103.275 87.7981 100.142 97.8933C97.3031 107.039 93.5119 112.5 90 112.5ZM107.642 97.8933C104.803 107.039 101.012 112.5 97.5 112.5H97.0643C99.5911 109.61 101.838 105.08 103.723 99.0047C106.965 88.5595 108.75 74.7073 108.75 60C108.75 45.2927 106.965 31.4405 103.723 20.9953C101.838 14.9201 99.5911 10.3901 97.0643 7.5H97.5C101.012 7.5 104.803 12.9609 107.642 22.1067C110.775 32.2031 112.5 45.6591 112.5 60C112.5 74.3409 110.775 87.7981 107.642 97.8933Z" fill="#007BC2"/>
</svg>
