<svg width="60" height="60" viewBox="0 0 60 60" fill="none" xmlns="http://www.w3.org/2000/svg">
<path d="M20.0278 26.0249H24.939V32.6867C24.939 33.1013 25.2747 33.4374 25.6897 33.4374H35.1718C35.5868 33.4374 35.9225 33.1013 35.9225 32.6867V26.0249H40.8732C41.1687 26.0249 41.437 25.8511 41.558 25.5813C41.6789 25.3112 41.6306 24.9956 41.4333 24.7745L31.0106 13.0784C30.7262 12.7588 30.1749 12.7588 29.8904 13.0784L19.4677 24.7745C19.2705 24.9956 19.2221 25.3112 19.3431 25.5813C19.4641 25.8511 19.7324 26.0249 20.0278 26.0249ZM30.4505 14.7063L39.1988 24.5234H35.1718C34.7569 24.5234 34.4211 24.8596 34.4211 25.2742V31.936H26.4404V25.2742C26.4404 24.8596 26.1046 24.5234 25.6897 24.5234H21.7023L30.4505 14.7063Z" fill="#007BC2"/>
<path d="M30.149 42.7769C35.1158 42.7769 39.7858 40.843 43.2974 37.3306C46.8098 33.8183 48.7445 29.1487 48.7445 24.1818C48.7445 19.2146 46.8098 14.545 43.2974 11.033C39.7858 7.52069 35.1158 5.58673 30.149 5.58673C25.1821 5.58673 20.5122 7.52069 16.9998 11.033C9.75006 18.2832 9.75006 30.0801 16.9998 37.3306C20.5122 40.843 25.1821 42.7769 30.149 42.7769ZM18.0614 12.0946C21.29 8.86596 25.5831 7.08815 30.149 7.08815C34.7148 7.08815 39.0072 8.86596 42.2359 12.0946C45.4645 15.3232 47.243 19.6156 47.243 24.1818C47.243 28.7477 45.4645 33.0404 42.2359 36.2691C39.0072 39.4977 34.7148 41.2755 30.149 41.2755C25.5831 41.2755 21.29 39.4977 18.0614 36.2691C11.3974 29.604 11.3974 18.7593 18.0614 12.0946Z" fill="#007BC2"/>
<path d="M3.09242 49.7305C3.21998 49.964 3.46191 50.1125 3.72803 50.1205L14.6192 50.4482L19.5083 59.5543C19.6359 59.7922 19.8822 59.9432 20.152 59.9494C20.1579 59.9498 20.1637 59.9498 20.1696 59.9498C20.4335 59.9498 20.6777 59.8116 20.814 59.5847L27.6107 48.2297C28.449 48.3167 29.2958 48.3636 30.1502 48.3636C31.0931 48.3636 32.0263 48.3036 32.9493 48.1978L39.7958 59.6349C39.9322 59.8618 40.1763 60 40.4403 60C40.4461 60 40.452 60 40.4578 59.9996C40.7276 59.9934 40.974 59.8424 41.1015 59.6045L45.9907 50.4985L56.8818 50.1708C57.1479 50.1627 57.3899 50.0142 57.5174 49.7807C57.6457 49.5472 57.6399 49.2632 57.5035 49.0348L50.4707 37.2868C56.5111 27.9244 55.4403 15.2735 47.2494 7.08263C42.6821 2.51532 36.609 0 30.1502 0C23.6908 0 17.6184 2.51532 13.0511 7.08263C8.48375 11.6499 5.96843 17.7227 5.96843 24.1818C5.96843 28.9962 7.36763 33.5951 9.97069 37.5168L3.10635 48.9846C2.96999 49.2129 2.96412 49.497 3.09242 49.7305ZM55.5578 48.7086L45.5119 49.011C45.2436 49.019 45.0002 49.1697 44.8734 49.4061L40.4051 57.7284L34.557 47.9593C39.3378 47.0836 43.7391 44.7913 47.2494 41.281C48.0852 40.4452 48.8431 39.5611 49.5307 38.6406L55.5578 48.7086ZM14.1126 8.14418C18.3962 3.86059 24.0918 1.50142 30.1502 1.50142C36.208 1.50142 41.9035 3.86059 46.1879 8.14418C55.0307 16.9874 55.0307 31.3762 46.1879 40.2194C41.9035 44.503 36.208 46.8622 30.1502 46.8622C24.0918 46.8622 18.3962 44.503 14.1126 40.2194C9.82902 35.9355 7.46985 30.2399 7.46985 24.1818C7.46985 18.1237 9.82902 12.4281 14.1126 8.14418ZM10.9251 38.8467C11.5758 39.6962 12.2817 40.5116 13.0511 41.281C16.6231 44.853 21.1175 47.1629 25.9959 48.003L20.2048 57.6782L15.7365 49.3559C15.6096 49.1195 15.3662 48.9688 15.0979 48.9607L5.05204 48.6583L10.9251 38.8467Z" fill="#007BC2"/>
</svg>
