<svg width="60" height="60" viewBox="0 0 60 60" fill="none" xmlns="http://www.w3.org/2000/svg">
<path d="M59.8202 33.9943C59.6714 33.6967 59.2993 33.5478 59.0017 33.4734C57.2904 33.4734 42.5582 32.8782 42.5582 15.765C42.5582 15.2442 42.1117 14.7977 41.5909 14.7977C41.0701 14.7977 40.6236 15.2442 40.6236 15.765C40.6236 32.8782 25.8914 33.4734 24.2545 33.4734C24.0313 33.4734 23.808 33.5478 23.6592 33.6967C23.5104 33.7711 23.436 33.9199 23.3616 33.9943C23.2128 34.2919 23.2128 34.6639 23.3616 34.9615C23.5104 35.2592 23.8824 35.4824 24.2545 35.4824C24.2545 35.4824 24.2545 35.4824 24.3289 35.4824C26.0402 35.4824 40.698 36.0776 40.698 53.1908C40.698 53.7117 41.1445 54.1581 41.6653 54.1581C42.1861 54.1581 42.6326 53.7117 42.6326 53.1908C42.6326 36.152 57.2904 35.4824 59.0017 35.4824C59.3737 35.4824 59.6714 35.2592 59.8946 34.9615C60.0434 34.6639 60.0434 34.2919 59.8202 33.9943ZM41.5909 45.8991C39.4331 38.8306 34.1504 35.78 29.9837 34.4407C34.1504 33.1014 39.4331 30.0508 41.5909 22.9823C43.7486 30.0508 49.0314 33.1014 53.1981 34.4407C49.0314 35.78 43.7486 38.8306 41.5909 45.8991Z" fill="#007BC2"/>
<path d="M29.3137 14.6489C29.8346 14.6489 30.281 14.2025 30.281 13.6072C30.281 13.0864 29.8346 12.6399 29.3137 12.6399C28.4209 12.6399 20.3851 12.3423 20.3851 2.96727C20.3851 2.44643 19.9387 2 19.4178 2C18.897 2 18.4506 2.44643 18.4506 2.96727C18.4506 12.3423 10.4148 12.6399 9.52196 12.6399C9.44755 12.6399 9.44755 12.6399 9.44755 12.6399C8.92671 12.7144 8.55469 13.0864 8.55469 13.6072C8.55469 14.1281 9.00112 14.5745 9.52196 14.5745C10.4892 14.5745 18.4506 14.8721 18.4506 24.2472C18.4506 24.768 18.897 25.2144 19.4178 25.2144C19.8643 25.2888 20.3107 24.8424 20.3107 24.3216C20.3107 14.9465 28.3465 14.6489 29.2393 14.6489H29.3137ZM19.3434 18.89C18.153 16.0626 15.9952 14.5001 13.9863 13.6072C16.144 12.7144 18.153 11.003 19.3434 8.32444C20.5339 11.1518 22.6917 12.7144 24.7006 13.6072C22.5429 14.5001 20.5339 16.2114 19.3434 18.89Z" fill="#007BC2"/>
<path d="M20.7591 46.1967C19.8662 46.1967 11.8304 45.8991 11.8304 36.524C11.8304 36.0032 11.384 35.5568 10.8632 35.5568C10.3423 35.5568 9.89589 36.0032 9.89589 36.524C9.89589 45.8991 1.86013 46.1967 0.967268 46.1967C0.892863 46.1967 0.892863 46.1967 0.892863 46.1967C0.372026 46.2711 0 46.6431 0 47.164C0 47.6848 0.446431 48.1312 0.967268 48.1312C1.93454 48.1312 9.89589 48.4289 9.89589 57.8039C9.89589 58.3248 10.3423 58.7712 10.8632 58.7712C11.3096 58.92 11.756 58.4736 11.756 57.8783C11.756 48.5033 19.7918 48.2057 20.6847 48.2057H20.7591C21.2799 48.2057 21.7263 47.7592 21.7263 47.164C21.7263 46.6431 21.2799 46.1967 20.7591 46.1967ZM10.7888 52.5212C9.52387 49.6938 7.44052 48.1312 5.43158 47.2384C7.58933 46.3455 9.59827 44.6342 10.7888 41.9556C11.9792 44.783 14.137 46.3455 16.1459 47.2384C13.9882 48.1312 11.9792 49.8426 10.7888 52.5212Z" fill="#007BC2"/>
</svg>
