<svg width="60" height="60" viewBox="0 0 60 60" fill="none" xmlns="http://www.w3.org/2000/svg">
<g clip-path="url(#clip0_119_10800)">
<path d="M33.4001 44.8C33.7851 45.0889 34.3213 45.0624 34.6761 44.737L46.6761 33.737C47.0831 33.3637 47.1104 32.7311 46.7371 32.324C46.3637 31.917 45.7311 31.8897 45.3241 32.263L33.9361 42.7L30.6001 40.2C30.1582 39.8686 29.5314 39.9582 29.2001 40.4C28.8687 40.8418 28.9582 41.4686 29.4001 41.8L33.4001 44.8Z" fill="#007BC2"/>
<path d="M1 15C2.41375 15.1025 3.77028 15.6001 4.915 16.436C5.49767 16.8668 6.01882 17.3752 6.464 17.947C2.62 24.71 0.454 31.116 0.052 36.991C-0.337907 42.8904 1.67345 48.6969 5.629 53.091C9.35686 57.2989 14.6478 59.7931 20.266 59.991C20.501 59.999 20.735 60.002 20.966 60.002C26.5191 59.9966 31.8426 57.7859 35.766 53.856C39.3573 54.4014 43.0262 53.6722 46.136 51.795L53.17 58.828C54.7449 60.3059 57.2085 60.2667 58.7356 58.7396C60.2627 57.2125 60.3018 54.7489 58.824 53.174L51.791 46.14C54.7248 41.1953 54.7768 35.0558 51.9272 30.0621C49.0776 25.0683 43.7656 21.9898 38.016 22C37.881 22 37.75 22.017 37.616 22.02C33.6661 14.1437 28.5348 6.91777 22.4 0.593001C22.024 0.213121 21.5115 -0.000429332 20.977 6.48062e-07H20.964C20.4358 0.00431939 19.9314 0.22048 19.564 0.600001C17.0847 3.14742 14.7643 5.84484 12.616 8.677C11.458 6.28855 10.9031 3.65262 11 1C11 0.447716 10.5523 6.48062e-07 10 6.48062e-07C9.44771 6.48062e-07 9 0.447716 9 1C9 12.769 1.34 13 1 13C0.447715 13 0 13.4477 0 14C0 14.5523 0.447715 15 1 15ZM57.413 54.587C58.1392 55.376 58.1139 56.5974 57.3556 57.3556C56.5974 58.1139 55.376 58.1392 54.587 57.413L47.823 50.649C48.8788 49.8282 49.8282 48.8788 50.649 47.823L57.413 54.587ZM52.031 38.016C52.031 43.685 48.616 48.7958 43.3785 50.9652C38.1409 53.1345 32.1123 51.9352 28.1038 47.9265C24.0954 43.9177 22.8965 37.889 25.0662 32.6516C27.2359 27.4142 32.347 23.9996 38.016 24C45.753 24.0088 52.0227 30.279 52.031 38.016ZM20.981 2.005C26.7846 7.99302 31.6732 14.8043 35.489 22.219C28.1161 23.3888 22.5319 29.5016 22.032 36.95C21.5322 44.3984 26.2495 51.2026 33.4 53.347C29.7906 56.4956 25.1199 58.1555 20.333 57.991C15.2586 57.8105 10.4803 55.5564 7.114 51.755C3.52016 47.763 1.69273 42.4877 2.047 37.128C2.409 31.836 4.308 26.051 7.659 19.918C8.60977 22.1549 9.06715 24.5704 9 27C9 27.5523 9.44771 28 10 28C10.5523 28 11 27.5523 11 27C11 15.217 18.678 15 19 15C19.5523 15 20 14.5523 20 14C20 13.4477 19.5523 13 19 13C17.5863 12.8975 16.2297 12.3999 15.085 11.564C14.6234 11.2198 14.2009 10.8262 13.825 10.39C16.0275 7.44402 18.4178 4.6432 20.981 2.005ZM10 7.684C10.3921 8.83553 10.9543 9.92189 11.668 10.907C11.6832 10.933 11.6998 10.958 11.718 10.982C12.6606 12.2603 13.8948 13.2949 15.318 14C12.7652 15.3009 10.8471 17.5789 10 20.316C9.64076 19.2737 9.14297 18.2845 8.52 17.375C8.48682 17.3123 8.44656 17.2536 8.4 17.2C7.44516 15.8416 6.16749 14.7419 4.682 14C7.23481 12.6992 9.15293 10.4211 10 7.684Z" fill="#007BC2"/>
<path d="M18.1786 53.016C8.08163 51.18 7.03563 40.375 6.99963 39.916C6.95351 39.3637 6.46841 38.9534 5.91613 38.9995C5.36385 39.0456 4.95351 39.5307 4.99963 40.083C5.01063 40.21 6.19963 52.871 17.8176 54.983C17.8777 54.9942 17.9386 54.9998 17.9996 55C18.5172 54.9999 18.9492 54.6049 18.9955 54.0894C19.0417 53.5738 18.6869 53.1082 18.1776 53.016H18.1786Z" fill="#007BC2"/>
</g>
<defs>
<clipPath id="clip0_119_10800">
<rect width="60" height="60" fill="white"/>
</clipPath>
</defs>
</svg>
