<svg width="60" height="60" viewBox="0 0 60 60" fill="none" xmlns="http://www.w3.org/2000/svg">
<g clip-path="url(#clip0_119_10804)">
<path d="M37.6055 33.9785C37.1201 33.9785 36.7266 34.372 36.7266 34.8573C36.7266 35.3427 37.1201 35.7361 37.6055 35.7361C38.0909 35.7361 38.4843 35.3426 38.4843 34.8573C38.4844 34.3719 38.0909 33.9785 37.6055 33.9785Z" fill="#007BC2"/>
<path d="M37.6055 39.1104C37.6055 39.5958 37.999 39.9892 38.4843 39.9892C38.9697 39.9892 39.3632 39.5957 39.3632 39.1104C39.3632 38.6251 38.9697 38.2316 38.4843 38.2316C37.999 38.2315 37.6055 38.625 37.6055 39.1104Z" fill="#007BC2"/>
<path d="M34.8516 38.7783C34.8997 38.2954 34.5471 37.865 34.0641 37.8169C33.5812 37.7689 33.1507 38.1214 33.1026 38.6043C33.0546 39.0872 33.4072 39.5177 33.8901 39.5657C34.3731 39.6138 34.8036 39.2612 34.8516 38.7783Z" fill="#007BC2"/>
<path d="M56.1381 15.2654C53.6889 10.9298 50.1643 7.23633 45.9454 4.58391C45.5343 4.32562 44.9918 4.44926 44.7335 4.86012C44.4752 5.27098 44.599 5.81355 45.0097 6.07195C48.9826 8.56957 52.3015 12.0476 54.6076 16.1299C56.9855 20.3391 58.2422 25.1353 58.2422 29.9999C58.2422 37.5436 55.3044 44.6359 49.9703 49.9703C44.6359 55.3045 37.5436 58.2422 29.9999 58.2422C22.4561 58.2422 15.3638 55.3045 10.0295 49.9703C4.69535 44.636 1.7577 37.5438 1.7577 30C1.7577 22.4562 4.69535 15.3639 10.0296 10.0296C15.3639 4.69535 22.4562 1.7577 30 1.7577C33.9979 1.7577 37.8609 2.57578 41.482 4.1891C41.9254 4.3868 42.4448 4.18746 42.6424 3.74402C42.84 3.30059 42.6407 2.78109 42.1975 2.58352C38.3496 0.86918 34.2459 0 30 0C21.9866 0 14.4531 3.12059 8.78684 8.78684C3.12059 14.453 0 21.9866 0 30C0 38.0133 3.12059 45.5469 8.78684 51.2132C14.4531 56.8794 21.9866 60 30 60C38.0133 60 45.5469 56.8794 51.2133 51.2132C56.8794 45.5469 60 38.0133 60 30C60 24.8331 58.6645 19.7379 56.1381 15.2654Z" fill="#007BC2"/>
<path d="M23.6714 17.3502C20.7768 17.3502 18.4219 19.7051 18.4219 22.5998C18.4219 25.4944 20.7768 27.8493 23.6714 27.8493C26.5661 27.8493 28.9209 25.4944 28.9209 22.5998C28.9209 19.7051 26.5661 17.3502 23.6714 17.3502ZM23.6714 26.0917C21.746 26.0917 20.1795 24.5253 20.1795 22.5999C20.1795 20.6745 21.7459 19.1079 23.6714 19.1079C25.5969 19.1079 27.1634 20.6744 27.1634 22.5999C27.1632 24.5253 25.5968 26.0917 23.6714 26.0917Z" fill="#007BC2"/>
<path d="M49.0707 13.8977C48.7575 13.5268 48.2032 13.4801 47.8321 13.7932L34.9618 24.6604C33.879 23.168 33.333 21.5307 32.7463 19.7677C32.715 19.6737 32.6834 19.5793 32.6519 19.485L34.7505 18.0667C35.1527 17.7949 35.2584 17.2486 34.9866 16.8465C34.7149 16.4443 34.1686 16.3385 33.7665 16.6105L32.0429 17.7754C31.2163 15.9757 29.8556 14.5245 28.2007 13.5743L29.081 11.5366C29.2735 11.0911 29.0684 10.5738 28.6228 10.3813C28.1768 10.1885 27.6598 10.3941 27.4674 10.8395L26.6008 12.8454C25.6377 12.5121 24.6124 12.3328 23.5604 12.3328C22.119 12.3328 20.7063 12.6715 19.4329 13.2991L18.4593 11.4776C18.2306 11.0496 17.698 10.8879 17.27 11.1168C16.8419 11.3455 16.6803 11.878 16.9092 12.3061L17.9345 14.2243C17.5052 14.548 17.1007 14.9077 16.7302 15.3054C15.5004 16.6254 14.7102 18.3087 14.3868 20.2609L12.3017 19.7822C11.829 19.6737 11.3572 19.9691 11.2486 20.4421C11.1399 20.915 11.4355 21.3866 11.9084 21.4952L14.2237 22.0268C14.2149 22.4002 14.2205 22.7809 14.242 23.1691C14.3541 25.1956 14.7375 27.2261 15.3634 29.2011L13.2659 30.0681C12.8173 30.2536 12.6041 30.7675 12.7895 31.2161C12.9295 31.5547 13.2569 31.7593 13.602 31.7593C13.7138 31.7593 13.8276 31.7378 13.9374 31.6925L15.9512 30.8602C16.8789 33.2225 18.1568 35.4771 19.7367 37.5157L11.0345 44.8635C10.6637 45.1766 10.6169 45.7311 10.93 46.102C11.1038 46.3079 11.352 46.4139 11.602 46.4139C11.8023 46.4139 12.0036 46.3458 12.1686 46.2066L20.8585 38.8691C21.1071 39.1497 21.3615 39.4255 21.6221 39.6956C21.8621 39.9443 22.1139 40.195 22.3708 40.4411C22.7212 40.7768 23.2776 40.7648 23.6134 40.4143C23.9491 40.0638 23.937 39.5075 23.5865 39.1718C23.3463 38.9416 23.111 38.7073 22.8869 38.4751C22.6532 38.233 22.4253 37.9857 22.2021 37.7347C22.2021 37.7347 34.7552 27.1354 34.7732 27.1201C34.7302 27.1565 36.5724 28.5996 36.7366 28.7093C38.8515 30.1218 41.2661 30.6425 42.7501 32.873C45.108 36.4172 44.0574 41.503 40.3743 43.6736C35.9906 46.257 30.5236 44.3784 26.6564 41.6868C26.2579 41.4094 25.7102 41.5079 25.4332 41.9065C25.156 42.3049 25.2545 42.8527 25.6529 43.1298C26.1686 43.4885 26.6895 43.8211 27.2128 44.1294L26.1608 45.902C25.9132 46.3194 26.0507 46.8586 26.468 47.1065C26.6088 47.1899 26.7632 47.2296 26.9158 47.2296C27.2159 47.2296 27.5081 47.076 27.6725 46.7992L28.762 44.9634C30.2512 45.6902 31.7408 46.2036 33.1735 46.4745C33.9039 46.6125 34.6194 46.6902 35.3188 46.7082L35.3079 48.8074C35.3054 49.2928 35.6968 49.6883 36.1821 49.6909H36.1868C36.6699 49.6909 37.063 49.3004 37.0654 48.8167L37.0768 46.6223C38.5604 46.4356 39.9611 45.9572 41.2665 45.1879C41.7897 44.8795 42.2762 44.5228 42.722 44.126L44.3825 45.7013C44.5525 45.8625 44.77 45.9424 44.9873 45.9424C45.2199 45.9424 45.4523 45.8506 45.625 45.6684C45.9591 45.3162 45.9445 44.76 45.5923 44.4259L43.919 42.8386C45.1584 41.2268 45.8663 39.2265 45.8663 37.1423C45.8663 36.7751 45.8445 36.4114 45.8023 36.0529L48.2224 35.0825C48.6729 34.902 48.8916 34.3903 48.7109 33.9398C48.5303 33.4893 48.0181 33.2705 47.5682 33.4512L45.4249 34.3105C44.7448 32.1819 43.3148 30.3499 41.3928 29.1757L42.3995 27.377C42.6364 26.9535 42.4852 26.4179 42.0616 26.181C41.6384 25.9441 41.1025 26.0952 40.8656 26.5188L39.8102 28.4048C39.7666 28.3884 39.7236 28.371 39.6797 28.3552C38.1465 27.623 37.0023 26.8311 36.1179 25.9846L48.9657 15.1364C49.3371 14.8232 49.3837 14.2686 49.0707 13.8977ZM21.0807 36.3812C18.0799 32.4879 16.257 27.7649 15.9972 23.0719C15.8923 21.1767 16.1574 18.4989 18.0164 16.5035C19.4216 14.9952 21.4727 14.0906 23.5605 14.0906C26.5316 14.0907 29.2422 15.8425 30.4664 18.5534C30.4706 18.5629 30.4752 18.5723 30.4794 18.582C30.7252 19.1327 30.8882 19.7507 31.0787 20.3228C31.692 22.166 32.3176 24.0428 33.6194 25.794L21.0807 36.3812Z" fill="#007BC2"/>
</g>
<defs>
<clipPath id="clip0_119_10804">
<rect width="60" height="60" fill="white"/>
</clipPath>
</defs>
</svg>
