<svg width="60" height="60" viewBox="0 0 60 60" fill="none" xmlns="http://www.w3.org/2000/svg">
<path d="M21.2257 23.373C17.2959 30.0479 20.5213 35.39 21.5982 36.8671C20.2812 39.2901 19.2663 41.9538 18.9117 44.7528C18.831 45.3903 19.2829 45.9726 19.9203 46.0533C19.97 46.0602 20.019 46.063 20.068 46.063C20.6454 46.063 21.147 45.6332 21.2215 45.0453C22.4792 35.1105 33.4482 26.5266 33.5586 26.441C34.0671 26.0478 34.1609 25.3165 33.7683 24.808C33.3751 24.2995 32.6445 24.2043 32.136 24.5976C31.8166 24.8439 26.7202 28.8295 22.9166 34.6614C21.9018 32.9207 20.5006 29.1938 23.2319 24.5541C24.9326 21.6634 27.5812 21.2039 30.6485 20.6713C32.8997 20.2815 35.3945 19.8482 37.6367 18.3338C38.3563 21.7772 39.4588 29.487 36.1582 34.0253C34.5121 36.2889 31.898 37.4935 28.3884 37.6046C27.7461 37.6246 27.241 38.1614 27.2617 38.8037C27.2817 39.4342 27.7985 39.9317 28.4249 39.9317H28.4622C32.7307 39.7971 35.954 38.269 38.0451 35.3906C43.0346 28.5205 39.6037 16.4448 39.4553 15.9336C39.3401 15.5404 39.0269 15.2347 38.6302 15.1319C38.2314 15.0298 37.8106 15.1423 37.5187 15.432C35.4531 17.4756 32.9266 17.9144 30.2505 18.378C26.9189 18.9555 23.4734 19.5529 21.2257 23.373Z" fill="#007BC2"/>
<path d="M20.1009 52.8594C20.2492 52.9228 20.4044 52.9525 20.5562 52.9525C21.0088 52.9525 21.4393 52.6869 21.6284 52.2439C21.8802 51.6527 21.6049 50.969 21.013 50.7172C11.8384 46.8081 6.39293 37.5142 7.46161 27.5884C8.68414 16.2358 18.1905 7.75123 29.3161 7.49596L26.4412 9.81132C25.9403 10.2149 25.8617 10.9476 26.2646 11.4485C26.4943 11.7341 26.8317 11.8824 27.1718 11.8824C27.4285 11.8824 27.6865 11.7983 27.9018 11.6251L33.1941 7.3628C33.4349 7.16894 33.5881 6.88814 33.6212 6.58044C33.6543 6.27273 33.5639 5.96572 33.3707 5.72563L29.1077 0.433969C28.7048 -0.0669101 27.9721 -0.145561 27.4706 0.257351C26.9697 0.660952 26.891 1.39364 27.2946 1.89452L29.9212 5.15507C17.3633 5.10678 6.51987 14.5883 5.14694 27.3387C3.96718 38.2904 9.97704 48.546 20.1009 52.8594Z" fill="#007BC2"/>
<path d="M38.4654 9.19179C47.6365 12.9843 53.2986 22.5327 52.2354 32.413C51.0115 43.7642 41.501 52.2426 30.3803 52.5027L33.2545 50.1887C33.7553 49.7844 33.834 49.0531 33.4311 48.5515C33.0275 48.05 32.2955 47.972 31.7939 48.3749L26.5009 52.6372C26.2601 52.8311 26.1062 53.1119 26.0731 53.4189C26.04 53.7259 26.1304 54.0336 26.3242 54.2744L30.5879 59.5661C30.8184 59.8517 31.155 60 31.4945 60C31.7511 60 32.0092 59.9152 32.2251 59.7427C32.726 59.3384 32.8046 58.6057 32.401 58.1055L29.7724 54.8429C29.8035 54.8429 29.8345 54.8457 29.8656 54.8457C42.3807 54.8443 53.1793 45.3807 54.5501 32.6621C55.723 21.7614 49.4751 11.225 39.3554 7.03994C38.7621 6.79571 38.0797 7.0772 37.8348 7.67122C37.5892 8.26523 37.8714 8.94549 38.4654 9.19179Z" fill="#007BC2"/>
</svg>
