<svg width="89" height="101" viewBox="0 0 89 101" fill="none" xmlns="http://www.w3.org/2000/svg">
<g clip-path="url(#clip0_111_23908)">
<path d="M5.11188 22.9879L40.3866 2.60205L5.11188 22.9879ZM5.11188 22.9879C5.11181 22.9879 5.11175 22.988 5.11168 22.988M5.11188 22.9879L5.11168 22.988M5.11168 22.988C2.56585 24.4602 1 27.1754 1 30.1152L1 70.8857C1 73.8252 2.56581 76.5399 5.11216 78.0134L40.3866 98.3978C42.932 99.8673 46.0639 99.8674 48.6098 98.398C48.6099 98.3979 48.61 98.3979 48.6102 98.3978L83.8877 78.0134C86.4341 76.5398 88.0001 73.8251 88.0001 70.8857V30.1154C88.0001 27.1753 86.4339 24.4601 83.888 22.9881L48.6102 2.60208C48.6101 2.602 48.6099 2.60191 48.6098 2.60182C46.064 1.13271 42.9323 1.13276 40.387 2.60181L5.11168 22.988Z" fill="white" stroke="#75C5F0" stroke-width="2"/>
<g clip-path="url(#clip1_111_23908)">
<path d="M67.3706 49.1729L64.1021 47.7584L61.3265 42.3572C60.5764 40.8784 59.0546 39.9567 57.3936 39.9675H52.614V38.6172C52.614 36.1738 50.6636 34.1805 48.2202 34.1805H25.3726C22.9293 34.1805 21.0003 36.1845 21.0003 38.6172V59.3C20.9789 60.7896 22.1684 62.0113 23.658 62.0328C23.6687 62.0328 23.6794 62.0328 23.7008 62.0328H24.2688C24.2688 62.1399 24.2581 62.1828 24.2581 62.2471C24.2474 65.312 26.7229 67.809 29.7878 67.8197C32.8527 67.8304 35.3497 65.3549 35.3604 62.2899C35.3604 62.2685 35.3604 62.2578 35.3604 62.2364C35.3604 62.1614 35.3604 62.1292 35.3497 62.022H53.8142C53.8142 62.1292 53.8142 62.1721 53.8142 62.2364C53.8035 65.3013 56.279 67.7982 59.344 67.809C62.4089 67.8197 64.9058 65.3442 64.9165 62.2792C64.9165 62.2578 64.9165 62.2471 64.9165 62.2257C64.9165 62.1506 64.9165 62.1185 64.9165 62.0113H66.299C67.7886 62.0113 68.9995 60.8004 68.9995 59.3108C68.9995 59.3 68.9995 59.2893 68.9995 59.2679V51.6592C69.021 50.609 68.378 49.6123 67.3706 49.1729ZM29.82 65.6871C27.9339 65.6871 26.4121 64.1653 26.4121 62.2792C26.4121 60.3931 27.9339 58.8714 29.82 58.8714C31.7061 58.8714 33.2278 60.3931 33.2278 62.2792C33.2278 64.1546 31.6954 65.6871 29.82 65.6871ZM50.4707 59.9109H34.846C33.9458 57.9498 31.974 56.6959 29.82 56.7066C27.6552 56.6959 25.6941 57.939 24.7939 59.9109H23.7008C23.3686 59.9109 23.1436 59.6537 23.1436 59.3215V53.8025H50.4707V59.9109ZM50.4707 38.6279V51.6592H23.1436V38.6279C23.1436 37.3741 24.1188 36.3346 25.3726 36.3346H48.2202C49.4741 36.3453 50.4814 37.3741 50.4707 38.6172V38.6279ZM52.614 42.1215H57.3936C58.2402 42.1108 59.0332 42.5716 59.4297 43.3324L61.573 47.4797H52.614V42.1215ZM59.3761 65.6871C57.49 65.6871 55.9683 64.1653 55.9683 62.2792C55.9683 60.3931 57.49 58.8714 59.3761 58.8714C61.2622 58.8714 62.784 60.3931 62.784 62.2792C62.784 64.1546 61.2622 65.6871 59.3761 65.6871ZM66.8669 59.3215C66.8669 59.6537 66.6419 59.9109 66.3097 59.9109H64.4021C63.1054 57.1353 59.8048 55.9351 57.0292 57.2318C55.8504 57.7783 54.8966 58.7321 54.3501 59.9109H52.614V49.623H63.1162L66.524 51.1233C66.7383 51.2305 66.8777 51.4663 66.8669 51.702V59.3215Z" fill="#007BC2"/>
</g>
</g>
<defs>
<clipPath id="clip0_111_23908">
<rect width="89.0001" height="100" fill="white" transform="translate(0 0.5)"/>
</clipPath>
<clipPath id="clip1_111_23908">
<rect width="48" height="48" fill="white" transform="translate(21 27)"/>
</clipPath>
</defs>
</svg>
