<svg width="89" height="101" viewBox="0 0 89 101" fill="none" xmlns="http://www.w3.org/2000/svg">
<path d="M5.11188 22.9879L40.3866 2.60205L5.11188 22.9879ZM5.11188 22.9879C5.11181 22.9879 5.11175 22.988 5.11168 22.988M5.11188 22.9879L5.11168 22.988M5.11168 22.988C2.56585 24.4602 1 27.1754 1 30.1152L1 70.8857C1 73.8252 2.56581 76.5399 5.11216 78.0134L40.3866 98.3978C42.932 99.8673 46.0639 99.8674 48.6098 98.398C48.6099 98.3979 48.61 98.3979 48.6102 98.3978L83.8877 78.0134C86.4341 76.5398 88.0001 73.8251 88.0001 70.8857V30.1154C88.0001 27.1753 86.4339 24.4601 83.888 22.9881L48.6102 2.60208C48.6101 2.602 48.6099 2.60191 48.6098 2.60182C46.064 1.13271 42.9323 1.13276 40.387 2.60181L5.11168 22.988Z" fill="white" stroke="#75C5F0" stroke-width="2"/>
<g clip-path="url(#clip0_111_23896)">
<path d="M67.2391 40.0617L67.2293 40.0519C66.8296 39.6912 66.2154 39.6912 65.8352 40.0714C65.455 40.4517 65.455 41.0658 65.8352 41.446C67.434 43.0449 67.434 45.6381 65.8352 47.2369C64.2364 48.8357 61.6432 48.8357 60.0444 47.2369C60.0249 47.2174 60.0151 47.2076 59.9956 47.1979C58.5333 45.1506 56.6615 43.4348 54.507 42.1577C56.7395 36.8933 54.273 30.8197 49.0086 28.597C43.7442 26.3742 37.6706 28.831 35.4479 34.0954C34.9994 35.1677 34.7265 36.3084 34.6485 37.4685C33.6151 37.176 32.7864 37.0395 32.143 37.059C31.1096 37.0688 30.3492 37.7122 30.2322 38.6579C30.164 39.0771 30.2127 39.6912 30.4369 41.6898L30.6417 43.6005C28.7699 45.1214 27.2978 46.8957 26.2352 48.8845L23.408 49.4401C22.0041 49.7229 21 50.961 21 52.3843V58.6529C21 60.0859 22.0041 61.3143 23.408 61.597L26.2449 62.1625C26.8006 63.2543 27.483 64.278 28.2824 65.2139C27.2295 67.8266 28.0095 70.8195 30.1932 72.6035C31.4898 73.6564 33.1179 74.2316 34.785 74.2219C36.686 74.2219 38.5188 73.5004 39.9129 72.2038L40.5953 71.5604C43.1105 71.9406 45.6842 71.8529 48.1702 71.3264L49.1353 72.2526C50.4709 73.5102 52.2452 74.2121 54.078 74.1926H54.2828C54.2925 74.1926 54.3023 74.1926 54.312 74.1926C56.2228 74.1439 58.0361 73.3445 59.3619 71.9601C61.4092 69.7959 61.6529 66.5397 60.0346 63.9855C61.8674 61.4313 62.8326 58.5066 62.8326 55.4845V54.7728C62.8326 54.7533 62.8326 54.7338 62.8326 54.7143C62.7448 53.2617 62.3646 51.7604 61.7017 50.2396C63.7002 50.6685 65.7865 50.0543 67.2293 48.6017C69.5885 46.2425 69.5885 42.4209 67.2391 40.0617ZM44.9823 29.7181C49.613 29.7084 53.3761 33.4519 53.3859 38.0827C53.3956 40.8806 52.0015 43.5031 49.6715 45.0629C49.5935 45.1214 49.5155 45.2384 49.4571 45.2384H40.5466C40.5076 45.2384 40.4588 45.1799 40.4101 45.1409C38.1971 43.7078 36.7932 41.3193 36.5982 38.6968C36.5788 38.4726 36.5788 38.2776 36.5788 38.1022C36.5885 33.4812 40.3418 29.7279 44.9823 29.7181ZM58.1433 63.2641C57.9776 63.4591 57.7241 63.9075 58.0263 64.512C58.0556 64.5704 58.0848 64.6192 58.1238 64.6679C59.5374 66.5105 59.4594 69.0062 57.9386 70.6148C56.9735 71.6189 55.6671 72.2428 54.2535 72.2428H54.0683C52.7327 72.2526 51.4458 71.7554 50.4709 70.839L49.2036 69.6301C48.9794 69.4157 48.6771 69.2987 48.3749 69.3084C48.2969 69.3084 48.2287 69.3182 48.1507 69.3377C45.6452 69.9323 43.052 70.0103 40.5076 69.5814C40.4491 69.5716 40.4003 69.5716 40.3418 69.5716C40.0299 69.5619 39.7374 69.6789 39.5132 69.8933L38.5578 70.8C37.5829 71.7066 36.3253 72.2233 34.9994 72.2818C33.7028 72.3501 32.416 71.9309 31.4021 71.1217C29.7838 69.7959 29.2866 67.5244 30.2127 65.6428C30.3589 65.3991 30.3979 65.0969 30.32 64.8142C30.281 64.6387 30.203 64.4827 30.086 64.356C29.1696 63.3518 28.3994 62.2112 27.8047 60.9828C27.756 60.8854 27.6975 60.7976 27.6195 60.7196C27.4343 60.5149 27.1906 60.3882 26.9273 60.3394L23.7882 59.7057C23.3007 59.6083 22.9498 59.1696 22.9498 58.6724V52.3843C22.94 51.8871 23.291 51.4484 23.7882 51.3509L26.9371 50.7173C27.2003 50.6685 27.444 50.5418 27.6293 50.337C27.7072 50.2591 27.7657 50.1811 27.8145 50.0836C28.8089 48.0948 30.2907 46.3205 32.2112 44.8387C32.2405 44.8094 32.2697 44.7899 32.299 44.7607C32.5232 44.5364 32.6402 44.2342 32.6304 43.9223C32.6304 43.8833 32.6304 43.854 32.6207 43.815L32.3672 41.4753C32.2795 40.7246 32.1333 39.3695 32.1527 38.9991C32.1625 38.9991 32.182 38.9991 32.1917 38.9991C32.5817 38.9893 33.3324 39.0576 34.7167 39.506C35.0092 41.6703 35.9841 43.6785 37.4951 45.2481H36.569C36.0328 45.2481 35.5941 45.6868 35.5941 46.223C35.5941 46.7592 36.0328 47.1979 36.569 47.1979H53.4639C54 47.1979 54.4387 46.7592 54.4387 46.223C54.4387 45.6868 54 45.2481 53.4639 45.2481H52.45C52.8789 44.8289 53.2591 44.361 53.5808 43.854C55.8328 45.2189 57.6851 47.0517 58.9622 49.1574L59.6544 50.493C60.3661 51.9651 60.7755 53.4567 60.873 54.8215V55.4942C60.873 58.2727 59.9274 60.9536 58.1433 63.2641Z" fill="#007BC2"/>
<path d="M34.5016 50.61C33.1172 50.61 32.0059 51.7311 32.0059 53.1057C32.0059 54.4901 33.127 55.6014 34.5016 55.6014C35.8762 55.6014 36.9973 54.4803 36.9973 53.1057C37.007 51.7311 35.8859 50.61 34.5016 50.61ZM34.5016 53.6614C34.1994 53.6614 33.9556 53.4177 33.9556 53.1155C33.9556 52.8132 34.1994 52.5695 34.5016 52.5695C34.8038 52.5695 35.0475 52.8132 35.0475 53.1155C35.0573 53.4177 34.8135 53.6614 34.5016 53.6614Z" fill="#007BC2"/>
<path d="M44.9821 32.1943C41.7162 32.1943 39.0742 34.8363 39.0742 38.1022C39.084 41.3583 41.7259 44.0003 44.9821 44.01C48.2479 44.01 50.8899 41.3681 50.8899 38.1022C50.8899 34.8363 48.2479 32.1943 44.9821 32.1943ZM44.9821 42.0602C42.7983 42.0602 41.024 40.2859 41.024 38.1022C41.024 35.9184 42.7983 34.1441 44.9821 34.1441C47.1658 34.1441 48.9401 35.9184 48.9401 38.1022C48.9401 40.2859 47.1658 42.0602 44.9821 42.0602Z" fill="#007BC2"/>
</g>
<defs>
<clipPath id="clip0_111_23896">
<rect width="48" height="48" fill="white" transform="translate(21 27)"/>
</clipPath>
</defs>
</svg>
