<svg width="89" height="101" viewBox="0 0 89 101" fill="none" xmlns="http://www.w3.org/2000/svg">
<g clip-path="url(#clip0_111_23878)">
<path d="M5.11188 22.9879L40.3866 2.60205L5.11188 22.9879ZM5.11188 22.9879C5.11181 22.9879 5.11175 22.988 5.11168 22.988M5.11188 22.9879L5.11168 22.988M5.11168 22.988C2.56585 24.4602 1 27.1754 1 30.1152L1 70.8857C1 73.8252 2.56581 76.5399 5.11216 78.0134L40.3866 98.3978C42.932 99.8673 46.0639 99.8674 48.6098 98.398C48.6099 98.3979 48.61 98.3979 48.6102 98.3978L83.8877 78.0134C86.4341 76.5398 88.0001 73.8251 88.0001 70.8857V30.1154C88.0001 27.1753 86.4339 24.4601 83.888 22.9881L48.6102 2.60208C48.6101 2.602 48.6099 2.60191 48.6098 2.60182C46.064 1.13271 42.9323 1.13276 40.387 2.60181L5.11168 22.988Z" fill="white" stroke="#75C5F0" stroke-width="2"/>
<g clip-path="url(#clip1_111_23878)">
<path d="M65 33.4V29.4C65 28.9582 64.6418 28.6 64.2 28.6H56.2C55.7582 28.6 55.4 28.9582 55.4 29.4V33.4H53.8C53.553 33.3998 53.3197 33.5138 53.168 33.7088L47.568 40.9088C47.459 41.0493 47.3998 41.2221 47.4 41.4V44.6H42.6V41.4C42.6 41.2154 42.5361 41.0365 42.4192 40.8936L35.4 32.3144V27.8C35.4 27.3582 35.0418 27 34.6 27H29C28.5582 27 28.2 27.3582 28.2 27.8V32.3144L21.1808 40.8936C21.0639 41.0365 21 41.2154 21 41.4V71C21.0026 73.208 22.792 74.9974 25 75H65C67.208 74.9974 68.9974 73.208 69 71V37.4C68.9974 35.192 67.208 33.4026 65 33.4ZM57 30.2H63.4V33.4H57V30.2ZM42.6 49.4V46.2H44.2V49.4H45.8V46.2H47.4V49.4H49V46.2H50.6V51H39.4V46.2H41V49.4H42.6ZM29.8 28.6H33.8V31.8H29.8V28.6ZM22.6 41.6856L29.3792 33.4H34.2208L41 41.6856V44.6H38.6C38.1582 44.6 37.8 44.9582 37.8 45.4V46.2H22.6V41.6856ZM36.2 73.4H25C23.6745 73.4 22.6 72.3255 22.6 71V69.4H36.2V73.4ZM36.2 51.8V67.8H22.6V66.2H30.6V64.6H22.6V47.8H37.8V51H37C36.5582 51 36.2 51.3582 36.2 51.8ZM52.2 73.4H37.8V52.6H52.2V73.4ZM67.4 71C67.4 72.3255 66.3255 73.4 65 73.4H53.8V69.4H67.4V71ZM67.4 67.8H53.8V66.2H62.6V64.6H53.8V51.8C53.8 51.3582 53.4418 51 53 51H52.2V45.4C52.2 44.9582 51.8418 44.6 51.4 44.6H49V42.2H67.4V67.8ZM67.4 40.6H49.836L54.1912 35H65C66.3255 35 67.4 36.0745 67.4 37.4V40.6Z" fill="#007BC2"/>
<path d="M45.0004 56.6C41.9076 56.6 39.4004 59.1072 39.4004 62.2C39.4004 65.2928 41.9076 67.8 45.0004 67.8C48.0932 67.8 50.6004 65.2928 50.6004 62.2C50.5969 59.1087 48.0917 56.6035 45.0004 56.6ZM45.0004 66.2C43.4095 66.1983 41.9708 65.2541 41.3364 63.7952L42.566 62.5656C43.2481 61.8847 44.3527 61.8847 45.0348 62.5656C46.0453 63.5698 47.5816 63.8223 48.8604 63.1944C48.4078 64.958 46.8212 66.1934 45.0004 66.2ZM48.6348 61.4344C47.9439 62.0937 46.8569 62.0937 46.166 61.4344C44.8588 60.1298 42.742 60.1298 41.4348 61.4344L41.0348 61.8344C41.2192 59.7803 42.9381 58.205 45.0004 58.2C46.8222 58.2065 48.4094 59.4431 48.8612 61.208L48.6348 61.4344Z" fill="#007BC2"/>
<path d="M33.7992 64.6H32.1992V66.2H33.7992V64.6Z" fill="#007BC2"/>
<path d="M65.7992 64.6H64.1992V66.2H65.7992V64.6Z" fill="#007BC2"/>
<path d="M64.2008 44.6H58.6008C58.159 44.6 57.8008 44.9582 57.8008 45.4V51C57.8008 51.4418 58.159 51.8 58.6008 51.8H64.2008C64.6426 51.8 65.0008 51.4418 65.0008 51V45.4C65.0008 44.9582 64.6426 44.6 64.2008 44.6ZM63.4008 50.2H59.4008V46.2H63.4008V50.2Z" fill="#007BC2"/>
</g>
</g>
<defs>
<clipPath id="clip0_111_23878">
<rect width="89.0001" height="100" fill="white" transform="translate(0 0.5)"/>
</clipPath>
<clipPath id="clip1_111_23878">
<rect width="48" height="48" fill="white" transform="translate(21 27)"/>
</clipPath>
</defs>
</svg>
