<svg width="89" height="101" viewBox="0 0 89 101" fill="none" xmlns="http://www.w3.org/2000/svg">
<g clip-path="url(#clip0_111_23840)">
<path d="M5.11188 22.9879L40.3866 2.60205L5.11188 22.9879ZM5.11188 22.9879C5.11181 22.9879 5.11175 22.988 5.11168 22.988M5.11188 22.9879L5.11168 22.988M5.11168 22.988C2.56585 24.4602 1 27.1754 1 30.1152L1 70.8857C1 73.8252 2.56581 76.5399 5.11216 78.0134L40.3866 98.3978C42.932 99.8673 46.0639 99.8674 48.6098 98.398C48.6099 98.3979 48.61 98.3979 48.6102 98.3978L83.8877 78.0134C86.4341 76.5398 88.0001 73.8251 88.0001 70.8857V30.1154C88.0001 27.1753 86.4339 24.4601 83.888 22.9881L48.6102 2.60208C48.6101 2.602 48.6099 2.60191 48.6098 2.60182C46.064 1.13271 42.9323 1.13276 40.387 2.60181L5.11168 22.988Z" fill="white" stroke="#75C5F0" stroke-width="2"/>
<g clip-path="url(#clip1_111_23840)">
<path d="M37.16 63.8713C37.7585 63.1439 38.1888 62.2932 38.42 61.3801C39.8471 61.2893 40.9737 60.1325 41.0268 58.7034C41.0798 57.2743 40.0421 56.0372 38.6256 55.8408V55.8001C38.6256 52.2654 35.7602 49.4 32.2255 49.4C28.6909 49.4 25.8256 52.2654 25.8256 55.8001V55.8408C24.409 56.0372 23.3713 57.2743 23.4244 58.7034C23.4774 60.1325 24.604 61.2893 26.0312 61.3801C26.2615 62.2905 26.6898 63.1389 27.2856 63.8649C23.6959 64.3274 21.0061 67.3807 21 71V72.6001C21 73.9256 22.0746 75.0001 23.4 75.0001H41C42.3254 75.0001 43.4 73.9256 43.4 72.6001V71C43.3938 67.3983 40.7292 64.3543 37.16 63.8713ZM27.424 57.4649C29.4016 57.5737 32.424 57.4513 33.8345 56.0761C34.5657 57.175 35.7213 57.9202 37.024 58.1328V59.8C37.024 62.451 34.875 64.6 32.224 64.6C29.5731 64.6 27.424 62.451 27.424 59.8V57.4649ZM29 65.4001H29.132C29.8408 65.7917 30.6179 66.0441 31.4215 66.1441L31.4167 67.9409L29.9559 68.2329C29.7213 68.2787 29.4784 68.218 29.2928 68.0673C29.1075 67.9155 29.0001 67.6885 29 67.449V65.4001ZM33.0216 66.1449C33.8267 66.0454 34.6053 65.7927 35.3152 65.4001H35.4V67.4489C35.3999 67.6884 35.2925 67.9154 35.1072 68.0672C34.9212 68.2178 34.6781 68.2784 34.4432 68.2328L33.0168 67.9472L33.0216 66.1449ZM39.4216 58.6001C39.4215 59.1086 39.101 59.5618 38.6216 59.7313V57.4689C39.102 57.6376 39.4236 58.091 39.424 58.6001H39.4216ZM32.2216 51.0001C34.8713 51.0031 37.0185 53.1504 37.0216 55.8001V56.5049C35.8394 56.1424 34.9253 55.1994 34.6 54.0064C34.5019 53.6147 34.1272 53.3577 33.7265 53.4069C33.3257 53.4561 33.0245 53.7962 33.024 54.2C33.0318 54.4996 32.9007 54.7861 32.6688 54.976C31.7288 55.8184 29.2024 55.968 27.4239 55.864V55.8001C27.4266 53.1502 29.5741 51.0027 32.2239 51.0001H32.2216ZM25.0216 58.6001C25.0217 58.0916 25.3422 57.6384 25.8216 57.4689V59.7313C25.3432 59.5609 25.0237 59.1079 25.0239 58.6001H25.0216ZM22.6 72.6001V71C22.6033 68.2187 24.6472 65.8613 27.4 65.464V67.4488C27.3983 68.1682 27.7204 68.8502 28.2769 69.3061C28.8334 69.762 29.5655 69.9433 30.2705 69.8L31.4129 69.5712L31.4001 73.4H23.4C22.9582 73.4 22.6 73.0419 22.6 72.6001ZM41.8 72.6001C41.8 73.0419 41.4418 73.4 41.0001 73.4H33L33.0104 69.5784L34.1304 69.8016C34.8352 69.9422 35.5659 69.7596 36.1217 69.3039C36.6774 68.8482 36.9998 68.1675 37 67.4488V65.464C39.7528 65.8613 41.7968 68.2187 41.8 71V72.6001Z" fill="#007BC2"/>
<path d="M62.7596 41.4712C63.3581 40.7438 63.7884 39.8931 64.0196 38.9799C65.4467 38.8892 66.5733 37.7324 66.6264 36.3033C66.6795 34.8742 65.6417 33.6371 64.2252 33.4407V33.3999C64.2252 29.8654 61.3598 27 57.8251 27C54.2905 27 51.4252 29.8654 51.4252 33.4V33.4408C50.0086 33.6371 48.9709 34.8743 49.024 36.3034C49.077 37.7325 50.2036 38.8893 51.6308 38.98C51.8611 39.8904 52.2894 40.7389 52.8852 41.4649C49.2955 41.9273 46.6057 44.9807 46.5996 48.6001V50.2001C46.5996 51.5256 47.6742 52.6001 48.9996 52.6001H66.5996C67.925 52.6001 68.9996 51.5256 68.9996 50.2001V48.6C68.9933 44.9982 66.3288 41.9542 62.7596 41.4712ZM53.0235 35.0648C55.002 35.1728 58.0235 35.0513 59.434 33.676C60.1652 34.775 61.3208 35.5202 62.6235 35.7328V37.4C62.6235 40.0509 60.4745 42.2 57.8235 42.2C55.1726 42.2 53.0235 40.0509 53.0235 37.4V35.0648ZM54.5996 43H54.7316C55.4404 43.3916 56.2175 43.6441 57.0211 43.744L57.0164 45.5408L55.5555 45.8329C55.3201 45.881 55.0756 45.8206 54.8895 45.6686C54.7035 45.5167 54.5955 45.2891 54.5955 45.0488L54.5996 43ZM58.6212 43.7448C59.4263 43.6453 60.2049 43.3926 60.9148 42.9999H60.9996V45.0488C60.9997 45.289 60.8917 45.5166 60.7056 45.6685C60.5195 45.8205 60.275 45.8808 60.0396 45.8328L58.6132 45.5472L58.6212 43.7448ZM65.0212 36.2C65.0211 36.7085 64.7006 37.1617 64.2212 37.3312V35.0688C64.7016 35.2374 65.0232 35.6909 65.0236 36.2H65.0212ZM57.8212 28.6C60.4709 28.6031 62.6181 30.7504 62.6212 33.4V34.1048C61.439 33.7424 60.525 32.7994 60.1996 31.6064C60.1015 31.2147 59.7269 30.9577 59.3261 31.0069C58.9253 31.0561 58.6241 31.3962 58.6236 31.8C58.6314 32.0996 58.5003 32.386 58.2684 32.576C57.3276 33.4184 54.802 33.5672 53.0235 33.464V33.3999C53.0262 30.7501 55.1737 28.6026 57.8235 28.5999L57.8212 28.6ZM50.6212 36.2C50.6213 35.6915 50.9418 35.2383 51.4212 35.0688V37.3312C50.9428 37.1608 50.6233 36.7078 50.6235 36.2H50.6212ZM48.1995 50.2V48.6C48.2028 45.8187 50.2468 43.4613 52.9995 43.064V45.0488C52.9979 45.7682 53.3199 46.4501 53.8764 46.906C54.4329 47.3619 55.165 47.5433 55.87 47.4L57.0124 47.1712L56.9996 51H48.9996C48.5578 51 48.1995 50.6419 48.1995 50.2ZM67.3995 50.2C67.3995 50.6419 67.0414 51 66.5996 51H58.5996L58.61 47.1784L59.73 47.4016C60.4349 47.5422 61.1655 47.3596 61.7213 46.9039C62.277 46.4482 62.5994 45.7674 62.5996 45.0488V43.064C65.3524 43.4613 67.3964 45.8187 67.3996 48.6L67.3995 50.2Z" fill="#007BC2"/>
<path d="M64.9996 57.4H52.1996C49.9916 57.4026 48.2023 59.192 48.1996 61.4001H44.1996C43.8875 61.4003 43.604 61.5821 43.4736 61.8657C43.3432 62.1493 43.3896 62.4829 43.5925 62.7201L48.1996 68.0961V71.0001C48.2022 73.2081 49.9915 74.9974 52.1996 75.0001H64.9996C67.2076 74.9975 68.9969 73.2082 68.9996 71.0001V61.4001C68.997 59.192 67.2077 57.4026 64.9996 57.4ZM67.3996 71C67.3996 72.3254 66.325 73.4 64.9996 73.4H52.1996C50.8742 73.4 49.7996 72.3254 49.7996 71V68.096C49.7987 67.7146 49.6624 67.3461 49.4148 67.056L45.9388 63H48.1996C49.0833 63 49.7996 62.2837 49.7996 61.4C49.7996 60.0745 50.8742 59 52.1996 59H64.9996C66.325 59 67.3996 60.0745 67.3996 61.4V71Z" fill="#007BC2"/>
<path d="M52.9992 63H55.3992C55.841 63 56.1992 62.6417 56.1992 62.2C56.1992 61.7582 55.841 61.4 55.3992 61.4H52.9992C52.5573 61.4 52.1992 61.7582 52.1992 62.2C52.1992 62.6418 52.5574 63 52.9992 63Z" fill="#007BC2"/>
<path d="M64.2007 61.4H58.6007C58.1589 61.4 57.8008 61.7582 57.8008 62.2C57.8008 62.6418 58.1589 63 58.6007 63H64.2007C64.6426 63 65.0007 62.6417 65.0007 62.2C65.0007 61.7582 64.6426 61.4 64.2007 61.4Z" fill="#007BC2"/>
<path d="M64.1992 65.4H52.9992C52.5573 65.4 52.1992 65.7581 52.1992 66.2C52.1992 66.6418 52.5573 67 52.9992 67H64.1992C64.6411 67 64.9992 66.6418 64.9992 66.2C64.9992 65.7581 64.6411 65.4 64.1992 65.4Z" fill="#007BC2"/>
<path d="M56.1992 69.4H52.9992C52.5573 69.4 52.1992 69.7581 52.1992 70.2C52.1992 70.6418 52.5573 71 52.9992 71H56.1992C56.641 71 56.9991 70.6418 56.9991 70.2C56.9991 69.7581 56.641 69.4 56.1992 69.4Z" fill="#007BC2"/>
<path d="M25 44.6H37.8C40.008 44.5973 41.7973 42.808 41.8 40.5999V37.6951L46.4072 32.3199C46.6101 32.0828 46.6565 31.7492 46.5261 31.4656C46.3957 31.182 46.1122 31.0002 45.8001 30.9999H41.8C41.7973 28.7919 40.008 27.0026 37.8 27H25C22.7919 27.0026 21.0026 28.7919 21 31V40.6C21.0026 42.808 22.7919 44.5973 25 44.6ZM22.6 31C22.6 29.6746 23.6746 28.6 25 28.6H37.8C39.1254 28.6 40.2 29.6746 40.2 31C40.2 31.8837 40.9163 32.6001 41.8 32.6001H44.0608L40.584 36.6552C40.3368 36.9454 40.2007 37.314 40.2 37.6952V40.6C40.2 41.9255 39.1254 43 37.8 43H25C23.6746 43 22.6 41.9255 22.6 40.6V31Z" fill="#007BC2"/>
<path d="M25.8 32.5999H28.2C28.6418 32.5999 28.9999 32.2417 28.9999 31.8C28.9999 31.3582 28.6418 31 28.2 31H25.8C25.3581 31 25 31.3582 25 31.8C25 32.2417 25.3581 32.5999 25.8 32.5999Z" fill="#007BC2"/>
<path d="M31.3996 32.5999H36.9995C37.4414 32.5999 37.7995 32.2417 37.7995 31.8C37.7995 31.3582 37.4413 31 36.9995 31H31.3996C30.9577 31 30.5996 31.3582 30.5996 31.8C30.5996 32.2417 30.9578 32.5999 31.3996 32.5999Z" fill="#007BC2"/>
<path d="M25.8 36.6001H37C37.4418 36.6001 37.8 36.2418 37.8 35.8001C37.8 35.3582 37.4417 35.0001 37 35.0001H25.8C25.3581 35.0001 25 35.3583 25 35.8001C25 36.2418 25.3581 36.6001 25.8 36.6001Z" fill="#007BC2"/>
<path d="M25.8 40.6H28.9999C29.4418 40.6 29.7999 40.2418 29.7999 39.8001C29.7999 39.3583 29.4418 39 28.9999 39H25.8C25.3581 39 25 39.3582 25 39.8C25 40.2417 25.3581 40.6 25.8 40.6Z" fill="#007BC2"/>
</g>
</g>
<defs>
<clipPath id="clip0_111_23840">
<rect width="89.0001" height="100" fill="white" transform="translate(0 0.5)"/>
</clipPath>
<clipPath id="clip1_111_23840">
<rect width="48" height="48" fill="white" transform="translate(21 27)"/>
</clipPath>
</defs>
</svg>
