<svg width="89" height="100" viewBox="0 0 89 100" fill="none" xmlns="http://www.w3.org/2000/svg">
<g clip-path="url(#clip0_111_23858)">
<path d="M5.11188 22.4879L40.3866 2.10205L5.11188 22.4879ZM5.11188 22.4879C5.11181 22.4879 5.11175 22.488 5.11168 22.488M5.11188 22.4879L5.11168 22.488M5.11168 22.488C2.56585 23.9602 1 26.6754 1 29.6152L1 70.3857C1 73.3252 2.56581 76.0399 5.11216 77.5134L40.3866 97.8978C42.932 99.3673 46.0639 99.3674 48.6098 97.898C48.6099 97.8979 48.61 97.8979 48.6102 97.8978L83.8877 77.5134C86.4341 76.0398 88.0001 73.3251 88.0001 70.3857V29.6154C88.0001 26.6753 86.4339 23.9601 83.888 22.4881L48.6102 2.10208C48.6101 2.102 48.6099 2.10191 48.6098 2.10182C46.064 0.632713 42.9323 0.632759 40.387 2.10181L5.11168 22.488Z" fill="white" stroke="#75C5F0" stroke-width="2"/>
<mask id="mask0_111_23858" style="mask-type:luminance" maskUnits="userSpaceOnUse" x="19" y="24" width="52" height="52">
<path d="M70.25 75.25V24.75H19.75V75.25H70.25Z" fill="white" stroke="white" stroke-width="1.5"/>
</mask>
<g mask="url(#mask0_111_23858)">
<path d="M49.6554 41.5949V47.9199L62.3716 69.9467C63.7247 72.3017 61.9743 75.241 59.32 75.2383H30.6975C27.7984 75.2383 26.1748 71.9561 27.813 69.6532L29.31 67.0648M31.0344 64.0765C34.138 58.6929 37.2414 53.315 40.3477 47.9344V31.8181H49.6554V38.1432" stroke="#007BC2" stroke-width="1.5" stroke-miterlimit="10" stroke-linecap="round" stroke-linejoin="round"/>
<path d="M46.7264 24.7624H49.6572V28.7498H40.3496V24.7624H43.2775" stroke="#007BC2" stroke-width="1.5" stroke-miterlimit="10" stroke-linecap="round" stroke-linejoin="round"/>
<path d="M40.3489 28.7486H49.6566C50.5 28.7486 51.191 29.4398 51.191 30.2831C51.191 31.1266 50.5 31.8177 49.6566 31.8177H40.3489C39.5053 31.8177 38.8145 31.1266 38.8145 30.2831C38.8145 29.4398 39.5053 28.7486 40.3489 28.7486Z" stroke="#007BC2" stroke-width="1.5" stroke-miterlimit="10" stroke-linecap="round" stroke-linejoin="round"/>
<path d="M45.0003 69.6538C49.2639 69.6538 52.7388 66.1759 52.7388 61.9122C52.7388 57.6514 49.2639 54.1737 45.0003 54.1737C40.7394 54.1737 37.2617 57.6514 37.2617 61.9122C37.2617 66.1759 40.7394 69.6538 45.0003 69.6538Z" stroke="#007BC2" stroke-width="1.5" stroke-miterlimit="10" stroke-linecap="round" stroke-linejoin="round"/>
<path d="M44.998 67.0823V67.0275M45.0068 56.7441V64.592" stroke="#007BC2" stroke-width="1.5" stroke-miterlimit="10" stroke-linecap="round" stroke-linejoin="round"/>
<path d="M37.2703 61.5653C36.7607 61.764 36.2511 61.9108 35.7415 61.9108C34.7684 61.9108 33.7953 61.3725 32.8223 60.9723M57.1896 60.9694C56.2108 61.3696 55.2349 61.9108 54.2589 61.9108C53.7493 61.9108 53.2397 61.764 52.733 61.5653" stroke="#007BC2" stroke-width="1.5" stroke-miterlimit="10" stroke-linecap="round" stroke-linejoin="round"/>
</g>
</g>
<defs>
<clipPath id="clip0_111_23858">
<rect width="89.0001" height="100" fill="white"/>
</clipPath>
</defs>
</svg>
