<svg width="40" height="40" viewBox="0 0 40 40" fill="none" xmlns="http://www.w3.org/2000/svg">
<mask id="mask0_944_98" style="mask-type:luminance" maskUnits="userSpaceOnUse" x="0" y="0" width="40" height="40">
<path d="M40 0H0V40H40V0Z" fill="white"/>
</mask>
<g mask="url(#mask0_944_98)">
<path d="M31.6128 24.7784C30.7939 23.9257 29.8062 23.4698 28.7593 23.4698C27.7209 23.4698 26.7247 23.9173 25.8721 24.7699L23.2043 27.4292C22.9848 27.311 22.7653 27.2013 22.5543 27.0915C22.2503 26.9396 21.9633 26.7961 21.7185 26.6441C19.2196 25.057 16.9486 22.9886 14.7705 20.3124C13.7152 18.9785 13.006 17.8557 12.4911 16.716C13.1833 16.0828 13.8249 15.4243 14.4497 14.7912C14.6861 14.5548 14.9224 14.3099 15.1588 14.0736C16.9317 12.3007 16.9317 10.0044 15.1588 8.23148L12.8541 5.92678C12.5924 5.66508 12.3222 5.39488 12.0689 5.12478C11.5624 4.60128 11.0305 4.06098 10.4818 3.55448C9.66293 2.74398 8.68363 2.31348 7.65363 2.31348C6.62373 2.31348 5.62753 2.74398 4.78333 3.55448C4.77483 3.56288 4.77483 3.56288 4.76643 3.57138L1.89603 6.46708C0.815429 7.54768 0.199129 8.86468 0.0640287 10.3927C-0.138571 12.8579 0.587529 15.1542 1.14463 16.6569C2.51233 20.3462 4.55533 23.7653 7.60303 27.4292C11.3007 31.8445 15.7498 35.3312 20.832 37.7879C22.7738 38.7081 25.3655 39.7972 28.2612 39.9829C28.4385 39.9913 28.6242 39.9998 28.7931 39.9998C30.7433 39.9998 32.3811 39.2991 33.6643 37.9061C33.6727 37.8892 33.6896 37.8808 33.6981 37.8639C34.1371 37.332 34.6436 36.8508 35.1755 36.3358C35.5385 35.9897 35.9099 35.6267 36.2729 35.2468C37.1087 34.3772 37.5477 33.3642 37.5477 32.3258C37.5477 31.2789 37.1003 30.2743 36.2476 29.4301L31.6128 24.7784ZM34.6351 33.6681C34.6267 33.6765 34.6267 33.6681 34.6351 33.6681C34.3059 34.0226 33.9682 34.3435 33.6052 34.698C33.0564 35.2215 32.4993 35.7702 31.9758 36.3865C31.1232 37.2983 30.1185 37.7288 28.8015 37.7288C28.6749 37.7288 28.5398 37.7288 28.4132 37.7204C25.9058 37.56 23.5758 36.5807 21.8282 35.7449C17.0499 33.4317 12.8541 30.1476 9.36743 25.9856C6.48863 22.5158 4.56383 19.3078 3.28903 15.8633C2.50393 13.7612 2.21683 12.1234 2.34343 10.5785C2.42793 9.59068 2.80783 8.77178 3.50853 8.07108L6.38733 5.19228C6.80103 4.80388 7.24003 4.59288 7.67053 4.59288C8.20243 4.59288 8.63293 4.91368 8.90313 5.18378C8.91153 5.19228 8.92003 5.20068 8.92843 5.20918C9.44343 5.69038 9.93313 6.18848 10.448 6.72028C10.7097 6.99048 10.9799 7.26058 11.25 7.53918L13.5548 9.84398C14.4497 10.7389 14.4497 11.5662 13.5548 12.4611C13.31 12.7059 13.0736 12.9507 12.8288 13.1871C12.1196 13.9132 11.4442 14.5885 10.7097 15.247C10.6929 15.2639 10.676 15.2724 10.6675 15.2892C9.94153 16.0153 10.0766 16.7244 10.2285 17.2056C10.237 17.231 10.2454 17.2563 10.2539 17.2816C10.8533 18.7337 11.6975 20.1013 12.9807 21.7307L12.9892 21.7391C15.3192 24.6095 17.7759 26.8467 20.4859 28.5605C20.832 28.78 21.1866 28.9573 21.5243 29.1261C21.8282 29.2781 22.1153 29.4216 22.3601 29.5736C22.3938 29.5905 22.4276 29.6158 22.4614 29.6327C22.7484 29.7762 23.0186 29.8437 23.2972 29.8437C23.9979 29.8437 24.4369 29.4047 24.5804 29.2612L27.4677 26.374C27.7547 26.0869 28.2106 25.7408 28.7424 25.7408C29.2659 25.7408 29.6964 26.07 29.9581 26.3571C29.9666 26.3655 29.9666 26.3655 29.975 26.374L34.6267 31.0256C35.4963 31.8868 35.4963 32.7732 34.6351 33.6681Z" fill="#F5CB5C"/>
<path d="M21.6178 9.51477C23.8297 9.88627 25.839 10.9331 27.443 12.5371C29.047 14.1412 30.0854 16.1504 30.4653 18.3623C30.5582 18.9195 31.0394 19.3078 31.5881 19.3078C31.6557 19.3078 31.7148 19.2994 31.7823 19.291C32.407 19.1897 32.8207 18.5987 32.7194 17.974C32.2635 15.2978 30.9972 12.858 29.0639 10.9247C27.1306 8.99137 24.6908 7.72496 22.0146 7.26916C21.3899 7.16786 20.8074 7.58146 20.6976 8.19776C20.5879 8.81406 20.9931 9.41347 21.6178 9.51477Z" fill="#F5CB5C"/>
<path d="M39.9532 17.6448C39.2019 13.238 37.1251 9.22789 33.9339 6.03669C30.7427 2.84549 26.7326 0.76869 22.3258 0.0173904C21.7095 -0.0924096 21.127 0.329691 21.0172 0.945991C20.9159 1.57079 21.3296 2.15329 21.9543 2.26299C25.8884 2.92999 29.4764 4.79569 32.3299 7.64069C35.1833 10.4942 37.0406 14.0822 37.7076 18.0163C37.8004 18.5735 38.2817 18.9618 38.8304 18.9618C38.8979 18.9618 38.957 18.9534 39.0246 18.945C39.6409 18.8521 40.063 18.2611 39.9532 17.6448Z" fill="#F5CB5C"/>
</g>
</svg>
