<svg width="40" height="40" viewBox="0 0 40 40" fill="none" xmlns="http://www.w3.org/2000/svg">
<mask id="mask0_932_1202" style="mask-type:luminance" maskUnits="userSpaceOnUse" x="0" y="0" width="40" height="40">
<path d="M40 0H0V40H40V0Z" fill="white"/>
</mask>
<g mask="url(#mask0_932_1202)">
<path d="M35.1169 4.97778H4.89138C2.19324 4.97778 0 7.17103 0 9.86907V30.5271C0 33.2253 2.19324 35.4185 4.89138 35.4185H35.1086C37.8068 35.4185 40 33.2253 40 30.5271V9.87743C40.0083 7.17929 37.815 4.97778 35.1169 4.97778ZM37.7736 30.5271C37.7736 31.992 36.5819 33.1838 35.1169 33.1838H4.89138C3.4264 33.1838 2.23467 31.992 2.23467 30.5271V9.87743C2.23467 8.41245 3.4264 7.22063 4.89138 7.22063H35.1086C36.5736 7.22063 37.7653 8.41245 37.7653 9.87743V30.5271H37.7736Z" fill="#F5CB5C"/>
<path d="M25.2275 19.9413L35.0102 11.1684C35.4654 10.7545 35.5068 10.051 35.093 9.58756C34.6791 9.13236 33.9757 9.09094 33.5122 9.50481L20.0216 21.6132L17.3897 19.2627C17.3814 19.2544 17.3732 19.2461 17.3732 19.2379C17.3152 19.1799 17.2573 19.1302 17.191 19.0806L6.48136 9.49654C6.01789 9.08268 5.31443 9.1241 4.90056 9.58756C4.48678 10.051 4.52811 10.7545 4.99158 11.1684L14.8902 20.0158L5.033 29.2441C4.58607 29.6661 4.56127 30.3697 4.98331 30.8249C5.20678 31.0566 5.50474 31.1807 5.80269 31.1807C6.07585 31.1807 6.34891 31.0814 6.56411 30.8828L16.5703 21.5221L19.285 23.9471C19.5002 24.1375 19.765 24.2285 20.0299 24.2285C20.2947 24.2285 20.5678 24.1293 20.7748 23.9389L23.5639 21.4394L33.5122 30.8911C33.7274 31.098 34.0088 31.1973 34.2819 31.1973C34.5798 31.1973 34.8695 31.0814 35.093 30.8497C35.5151 30.4028 35.4985 29.691 35.0516 29.2689L25.2275 19.9413Z" fill="#F5CB5C"/>
</g>
</svg>
