<svg width="25" height="25" viewBox="0 0 25 25" fill="none" xmlns="http://www.w3.org/2000/svg">
<path d="M12.5 0.78125C10.2208 0.78125 8.03494 1.68666 6.4233 3.2983C4.81166 4.90994 3.90625 7.0958 3.90625 9.375C3.90625 13.9141 11.5625 23.5156 11.8906 23.9297C11.9638 24.0209 12.0566 24.0946 12.1621 24.1452C12.2675 24.1958 12.383 24.222 12.5 24.222C12.617 24.222 12.7325 24.1958 12.8379 24.1452C12.9434 24.0946 13.0362 24.0209 13.1094 23.9297C13.4375 23.5156 21.0938 13.9141 21.0938 9.375C21.0938 7.0958 20.1883 4.90994 18.5767 3.2983C16.9651 1.68666 14.7792 0.78125 12.5 0.78125ZM12.5 11.7188C11.8819 11.7188 11.2777 11.5355 10.7638 11.1921C10.2499 10.8487 9.8494 10.3607 9.61288 9.78964C9.37635 9.21862 9.31447 8.59028 9.43505 7.98409C9.55562 7.3779 9.85325 6.82108 10.2903 6.38404C10.7273 5.947 11.2842 5.64937 11.8903 5.5288C12.4965 5.40822 13.1249 5.4701 13.6959 5.70663C14.2669 5.94315 14.755 6.34369 15.0983 6.85759C15.4417 7.3715 15.625 7.97568 15.625 8.59375C15.625 9.42255 15.2958 10.2174 14.7097 10.8035C14.1237 11.3895 13.3288 11.7188 12.5 11.7188Z" fill="#007BC2"/>
</svg>
