<svg width="40" height="40" viewBox="0 0 40 40" fill="none" xmlns="http://www.w3.org/2000/svg">
<path d="M32.4053 25.6977C29.9648 25.6977 27.7886 26.794 26.3965 28.4884L14.7401 22.3505C15.0132 21.6113 15.163 20.814 15.163 19.9917C15.163 19.1611 15.0132 18.3721 14.7312 17.6246L26.3789 11.495C27.7621 13.1977 29.9472 14.3023 32.3965 14.3023C36.5727 14.3023 39.9824 11.0963 39.9824 7.1512C39.9824 3.206 36.5815 0 32.3965 0C28.2115 0 24.8106 3.206 24.8106 7.1512C24.8106 7.9817 24.9604 8.7791 25.2423 9.5183L13.6035 15.6478C12.2202 13.9369 10.0352 12.8405 7.58584 12.8405C3.40971 12.8405 0 16.0465 0 19.9917C0 23.9369 3.40971 27.1429 7.59475 27.1429C10.044 27.1429 12.229 26.0382 13.6211 24.3272L25.2687 30.4651C24.9868 31.2126 24.8282 32.0183 24.8282 32.8488C24.8282 36.7857 28.2291 40 32.4142 40C36.5991 40 40 36.794 40 32.8488C40 28.9037 36.5903 25.6977 32.4053 25.6977ZM32.4053 2.2508C35.2776 2.2508 37.6124 4.4518 37.6124 7.1595C37.6124 9.8671 35.2776 12.0681 32.4053 12.0681C29.533 12.0681 27.1982 9.8671 27.1982 7.1595C27.1982 4.4518 29.5418 2.2508 32.4053 2.2508ZM7.59475 24.9003C4.72244 24.9003 2.38764 22.6993 2.38764 19.9917C2.38764 17.2841 4.72244 15.0831 7.59475 15.0831C10.467 15.0831 12.8018 17.2841 12.8018 19.9917C12.8018 22.6993 10.4582 24.9003 7.59475 24.9003ZM32.4053 37.7492C29.533 37.7492 27.1982 35.5482 27.1982 32.8405C27.1982 30.1329 29.533 27.9319 32.4053 27.9319C35.2776 27.9319 37.6124 30.1329 37.6124 32.8405C37.6124 35.5482 35.2776 37.7492 32.4053 37.7492Z" fill="#F5CB5C"/>
</svg>
