<svg width="30" height="30" viewBox="0 0 30 30" fill="none" xmlns="http://www.w3.org/2000/svg">
<g clip-path="url(#clip0_832_227)">
<path d="M28.8754 17.7749C29.0254 16.8749 29.1004 15.9749 29.1004 15.0749C29.1004 7.2749 22.8004 1.0499 15.0754 1.0499C14.1754 1.0499 13.2754 1.1249 12.3754 1.2749C11.1754 0.599902 9.75039 0.149902 8.25039 0.149902C3.82539 0.149902 0.150391 3.7499 0.150391 8.2499C0.150391 9.7499 0.525391 11.1749 1.27539 12.3749C1.12539 13.2749 1.05039 14.1749 1.05039 15.0749C1.05039 22.8749 7.35039 29.0999 15.0754 29.0999C15.9754 29.0999 16.8754 29.0249 17.7754 28.8749C18.9754 29.5499 20.4004 29.9999 21.9004 29.9999C26.4004 29.9999 30.0004 26.3999 30.0004 21.8999C30.0004 20.3249 29.5504 18.9749 28.8754 17.7749ZM15.3754 24.6749C10.3504 24.6749 7.87539 22.7999 7.12539 20.4749C6.37539 18.1499 8.02539 17.4749 8.55039 17.3999C9.07539 17.3249 10.2004 17.4749 10.5004 18.4499C10.8004 19.4999 11.9254 21.4499 14.3254 21.7499C16.7254 21.9749 18.3004 20.8499 18.8254 19.7249C19.2754 18.5999 18.4504 16.9499 14.7754 16.4249C11.0254 15.8999 7.20039 14.2499 7.20039 10.5749C7.20039 6.8999 11.4004 5.3999 15.4504 5.3999C19.5004 5.3999 21.5254 7.6499 21.9754 8.5499C22.5004 9.6749 22.3504 11.4749 21.0004 11.8499C19.5754 12.1499 18.9004 11.3999 17.8504 9.5249C16.8004 7.5749 13.1254 8.0999 11.8504 9.2249C10.5754 10.3499 10.9504 11.9249 16.1254 12.8999C21.3004 13.8749 23.2504 15.7499 23.2504 18.6749C23.2504 21.5999 20.3254 24.6749 15.3754 24.6749Z" fill="#D8D3CF"/>
</g>
<defs>
<clipPath id="clip0_832_227">
<rect width="30" height="30" fill="white"/>
</clipPath>
</defs>
</svg>
