<svg width="30" height="30" viewBox="0 0 30 30" fill="none" xmlns="http://www.w3.org/2000/svg">
<g clip-path="url(#clip0_916_737)">
<path d="M29.473 1.99991L0.450448 13.9117C-0.151056 14.1499 -0.0758681 15.0234 0.525636 15.1823L7.74368 17.4058C8.04443 17.4852 8.34518 17.4852 8.57075 17.3264C8.94669 17.0881 9.473 16.7705 9.62338 16.6911L24.2098 7.16168C24.5106 6.92344 24.8865 7.39991 24.5858 7.71756L12.1798 19.3117C12.0294 19.3911 11.9542 19.5499 11.9542 19.7881C11.9542 19.7881 11.5031 25.9029 11.5031 26.2999C11.4279 27.2529 12.255 26.697 12.4805 26.4587L16.0144 22.8852L23.8339 28.9999C24.2098 29.3176 24.7362 29.0793 24.8113 28.6029L29.9241 2.63521C30.0745 2.15874 29.7738 1.9205 29.473 1.99991Z" fill="#D8D3CF"/>
</g>
<defs>
<clipPath id="clip0_916_737">
<rect width="30" height="27" fill="white" transform="translate(0 2)"/>
</clipPath>
</defs>
</svg>
