<svg width="30" height="30" viewBox="0 0 30 30" fill="none" xmlns="http://www.w3.org/2000/svg">
<g clip-path="url(#clip0_832_229)">
<path d="M15.0754 29.925C12.3004 29.925 9.60039 29.175 7.27539 27.75L0.450391 29.925L2.62539 23.325C1.05039 20.85 0.150391 18 0.150391 15C0.150391 6.74995 6.82539 0.0749512 15.0754 0.0749512C23.2504 0.0749512 29.9254 6.74995 29.9254 15C29.9254 23.25 23.2504 29.925 15.0754 29.925ZM7.57539 25.425L7.95039 25.725C10.0504 27.15 12.4504 27.825 15.0004 27.825C22.0504 27.825 27.8254 22.05 27.8254 15C27.8254 7.94995 22.0504 2.17495 15.0004 2.17495C7.95039 2.17495 2.17539 7.94995 2.17539 15C2.17539 17.7 3.00039 20.325 4.65039 22.5L4.95039 22.95L3.67539 26.7L7.57539 25.425Z" fill="#D8D3CF"/>
<path d="M23.0996 20.7C22.7996 21.675 21.4496 22.425 20.3996 22.65C19.6496 22.8 18.7496 22.95 15.5246 21.6C11.4746 19.875 8.84961 15.75 8.62461 15.525C8.39961 15.225 6.97461 13.35 6.97461 11.325C6.97461 9.30005 7.94961 8.40005 8.39961 7.95005C8.69961 7.57505 9.29961 7.42505 9.82461 7.42505C9.97461 7.42505 10.1246 7.42505 10.2746 7.42505C10.6496 7.42505 10.8746 7.50005 11.1746 8.10005C11.4746 8.92505 12.2996 10.875 12.4496 11.1C12.5246 11.325 12.6746 11.55 12.5246 11.85C12.3746 12.15 12.2996 12.225 12.0746 12.45C11.8496 12.675 11.6996 12.9 11.4746 13.125C11.3246 13.35 11.0996 13.575 11.3246 14.025C11.5496 14.4 12.3746 15.75 13.5746 16.8C15.1496 18.15 16.3496 18.6 16.7996 18.825C17.0996 18.975 17.5496 18.9 17.7746 18.675C18.0746 18.375 18.4496 17.775 18.8246 17.25C19.1246 16.875 19.4246 16.8 19.7996 16.95C20.1746 17.1 22.1246 18.075 22.5746 18.3C22.9496 18.525 23.2496 18.6 23.3246 18.75C23.4746 18.975 23.4746 19.8 23.0996 20.7Z" fill="#D8D3CF"/>
</g>
<defs>
<clipPath id="clip0_832_229">
<rect width="30" height="30" fill="white"/>
</clipPath>
</defs>
</svg>
