<svg width="50" height="50" viewBox="0 0 50 50" fill="none" xmlns="http://www.w3.org/2000/svg">
<path d="M44.2857 0H5.71429C2.56218 0 0 2.56218 0 5.71429V44.2857C0 47.4378 2.56218 50 5.71429 50H44.2857C47.4378 50 50 47.4378 50 44.2857V5.71429C50 2.56282 47.4372 0 44.2857 0ZM48.2145 44.2857C48.2145 46.4555 46.4557 48.2145 44.2857 48.2145H5.71429C3.54448 48.2145 1.78556 46.4557 1.78556 44.2857V5.71429C1.78556 3.54448 3.54432 1.78556 5.71429 1.78556H44.2857C46.4555 1.78556 48.2145 3.54432 48.2145 5.71429V44.2857Z" fill="url(#paint0_linear_986_105)" fill-opacity="0.8"/>
<path d="M21.3664 25.955H7.33088C6.24159 25.955 5.35782 26.8388 5.35782 27.9281V42.6693C5.35782 43.7586 6.24159 44.6424 7.33088 44.6424H21.3664C22.4557 44.6424 23.3395 43.7586 23.3395 42.6693L23.3401 27.9281C23.3401 26.8388 22.4557 25.955 21.3664 25.955ZM21.5539 42.669C21.5539 42.7674 21.4736 42.8565 21.3664 42.8565H7.33088C7.22375 42.8565 7.14341 42.7761 7.14341 42.669V27.9278C7.14341 27.8294 7.22375 27.7403 7.33088 27.7403H21.3664C21.4648 27.7403 21.5539 27.8206 21.5539 27.9278V42.669Z" fill="url(#paint1_linear_986_105)" fill-opacity="0.8"/>
<path d="M21.3664 5.35712H7.33088C6.24159 5.35712 5.35782 6.24089 5.35782 7.33018V20.2859C5.35782 21.3751 6.24159 22.2589 7.33088 22.2589H21.3664C22.4557 22.2589 23.3395 21.3751 23.3395 20.2859L23.3401 7.33018C23.3401 6.24089 22.4557 5.35712 21.3664 5.35712ZM21.5539 20.2859C21.5539 20.3843 21.4736 20.4733 21.3664 20.4733H7.33088C7.23247 20.4733 7.14341 20.393 7.14341 20.2859V7.33018C7.14341 7.23177 7.22375 7.14271 7.33088 7.14271H21.3664C21.4648 7.14271 21.5539 7.22305 21.5539 7.33018V20.2859Z" fill="url(#paint2_linear_986_105)" fill-opacity="0.8"/>
<path d="M42.669 5.35712H28.6335C27.5442 5.35712 26.6604 6.24089 26.6604 7.33018V10.5893C26.6604 11.6785 27.5442 12.5623 28.6335 12.5623H42.669C43.7583 12.5623 44.6421 11.6785 44.6421 10.5893V7.33018C44.6421 6.24089 43.7583 5.35712 42.669 5.35712ZM42.8565 10.5893C42.8565 10.6877 42.7762 10.7767 42.669 10.7767H28.6335C28.5351 10.7767 28.446 10.6964 28.446 10.5893V7.33018C28.446 7.23177 28.5263 7.14271 28.6335 7.14271H42.669C42.7674 7.14271 42.8565 7.22305 42.8565 7.33018V10.5893Z" fill="url(#paint3_linear_986_105)" fill-opacity="0.8"/>
<path d="M42.669 16.1336H28.6335C27.5442 16.1336 26.6604 17.0174 26.6604 18.1067V42.6682C26.6604 43.7575 27.5442 44.6413 28.6335 44.6413H42.669C43.7583 44.6413 44.6421 43.7575 44.6421 42.6682V18.1067C44.6421 17.0174 43.7583 16.1336 42.669 16.1336ZM42.8565 42.669C42.8565 42.7674 42.7762 42.8565 42.669 42.8565H28.6335C28.5351 42.8565 28.446 42.7761 28.446 42.669V18.1075C28.446 18.009 28.5263 17.92 28.6335 17.92H42.669C42.7674 17.92 42.8565 18.0003 42.8565 18.1075V42.669Z" fill="url(#paint4_linear_986_105)" fill-opacity="0.8"/>
<defs>
<linearGradient id="paint0_linear_986_105" x1="50.5716" y1="25.3969" x2="-0.0153675" y2="25.4548" gradientUnits="userSpaceOnUse">
<stop stop-color="#F5CB5C"/>
<stop offset="0.744792" stop-color="#D8D3CF"/>
</linearGradient>
<linearGradient id="paint1_linear_986_105" x1="50.5716" y1="25.3969" x2="-0.0153675" y2="25.4548" gradientUnits="userSpaceOnUse">
<stop stop-color="#F5CB5C"/>
<stop offset="0.744792" stop-color="#D8D3CF"/>
</linearGradient>
<linearGradient id="paint2_linear_986_105" x1="50.5716" y1="25.3969" x2="-0.0153675" y2="25.4548" gradientUnits="userSpaceOnUse">
<stop stop-color="#F5CB5C"/>
<stop offset="0.744792" stop-color="#D8D3CF"/>
</linearGradient>
<linearGradient id="paint3_linear_986_105" x1="50.5716" y1="25.3969" x2="-0.0153675" y2="25.4548" gradientUnits="userSpaceOnUse">
<stop stop-color="#F5CB5C"/>
<stop offset="0.744792" stop-color="#D8D3CF"/>
</linearGradient>
<linearGradient id="paint4_linear_986_105" x1="50.5716" y1="25.3969" x2="-0.0153675" y2="25.4548" gradientUnits="userSpaceOnUse">
<stop stop-color="#F5CB5C"/>
<stop offset="0.744792" stop-color="#D8D3CF"/>
</linearGradient>
</defs>
</svg>
