<svg width="50" height="50" viewBox="0 0 50 50" fill="none" xmlns="http://www.w3.org/2000/svg">
<path d="M44.2857 0H5.71429C2.56218 0 0 2.56218 0 5.71429V44.2857C0 47.4378 2.56218 50 5.71429 50H44.2857C47.4378 50 50 47.4378 50 44.2857V5.71429C50 2.56282 47.4372 0 44.2857 0V0ZM48.2144 44.2857C48.2144 46.4555 46.4557 48.2144 44.2857 48.2144H5.71429C3.54448 48.2144 1.78556 46.4557 1.78556 44.2857V5.71429C1.78556 3.54448 3.54432 1.78556 5.71429 1.78556H44.2857C46.4555 1.78556 48.2144 3.54432 48.2144 5.71429V44.2857ZM25.0002 8.16008C15.7148 8.16008 8.16024 15.7135 8.16024 25C8.16024 34.2854 15.7143 41.8399 25.0002 41.8399C34.286 41.8399 41.8401 34.2859 41.8401 25C41.8401 15.7141 34.286 8.16008 25.0002 8.16008V8.16008ZM25.0002 40.0526C16.6969 40.0526 9.94691 33.3026 9.94691 24.9994C9.94691 16.9994 16.2235 10.4549 24.1076 9.99027L24.107 24.9994C24.107 25.4901 24.5087 25.8925 25.0001 25.8925H40.0092C39.5446 33.7759 33.0001 40.0526 25.0001 40.0526L25.0002 40.0526ZM25.8933 24.1056V9.98964C33.4829 10.4362 39.5626 16.5167 40.0092 24.1056H25.8933ZM41.4647 4.75765C39.4468 4.75765 37.8038 6.40067 37.8038 8.41853C37.8038 10.4364 39.4468 12.0794 41.4647 12.0794C43.4826 12.0794 45.1256 10.4364 45.1256 8.41853C45.125 6.40067 43.4826 4.75765 41.4647 4.75765V4.75765ZM41.4647 10.2938C40.429 10.2938 39.5894 9.45431 39.5894 8.41853C39.5894 7.3828 40.4289 6.54321 41.4647 6.54321C42.5005 6.54321 43.34 7.38275 43.34 8.41853C43.3394 9.45426 42.5005 10.2938 41.4647 10.2938Z" fill="url(#paint0_linear_986_101)" fill-opacity="0.8"/>
<defs>
<linearGradient id="paint0_linear_986_101" x1="50.5716" y1="25.3969" x2="-0.0153675" y2="25.4548" gradientUnits="userSpaceOnUse">
<stop stop-color="#F5CB5C"/>
<stop offset="0.744792" stop-color="#D8D3CF"/>
</linearGradient>
</defs>
</svg>
