<svg width="50" height="50" viewBox="0 0 50 50" fill="none" xmlns="http://www.w3.org/2000/svg">
<path d="M44.2857 0H5.71429C2.56218 0 0 2.56218 0 5.71429V44.2857C0 47.4378 2.56218 50 5.71429 50H44.2857C47.4378 50 50 47.4378 50 44.2857V5.71429C50 2.56282 47.4372 0 44.2857 0V0ZM48.2144 44.2857C48.2144 46.4555 46.4557 48.2144 44.2857 48.2144H5.71429C3.54448 48.2144 1.78556 46.4557 1.78556 44.2857V5.71429C1.78556 3.54448 3.54432 1.78556 5.71429 1.78556H44.2857C46.4555 1.78556 48.2144 3.54432 48.2144 5.71429V44.2857ZM31.4909 38.4731H12.0888C11.7762 38.4731 11.5264 38.2233 11.5264 37.9107V15.1428C13.4553 14.8569 14.9462 13.2053 14.9462 11.1961C14.9462 8.99071 13.1513 7.19574 10.9459 7.19574C8.74055 7.19574 6.94558 8.99071 6.94558 11.1961C6.94558 12.9816 8.12393 14.4727 9.74007 14.9909V37.9102C9.74007 39.205 10.7939 40.2582 12.0881 40.2582H31.4902C31.981 40.2582 32.3833 39.8565 32.3833 39.3651C32.384 38.8744 31.9823 38.4726 31.4909 38.4726L31.4909 38.4731ZM8.73262 11.1963C8.73262 9.97307 9.7235 8.98214 10.9467 8.98214C12.17 8.98214 13.1609 9.97302 13.1609 11.1963C13.1609 12.4195 12.17 13.4104 10.9467 13.4104C9.7235 13.4104 8.73262 12.4195 8.73262 11.1963ZM40.2585 34.9638V12.0891C40.2585 10.7943 39.2047 9.74107 37.9104 9.74107H18.5258C18.0351 9.74107 17.6327 10.1428 17.6327 10.6342C17.6327 11.125 18.0344 11.5273 18.5258 11.5273H37.9088C38.2214 11.5273 38.4712 11.777 38.4712 12.0897L38.4718 34.8209C36.5429 35.1067 35.0613 36.7584 35.0613 38.7582C35.0613 40.9636 36.8562 42.7585 39.0616 42.7585C41.2669 42.7585 43.0619 40.9636 43.0619 38.7582C43.0613 36.9813 41.8736 35.481 40.2574 34.9634L40.2585 34.9638ZM39.062 40.9813C37.8388 40.9813 36.8479 39.9905 36.8479 38.7672C36.8479 37.544 37.8388 36.5531 39.062 36.5531C40.2853 36.5531 41.2762 37.544 41.2762 38.7672C41.2768 39.9904 40.2853 40.9813 39.062 40.9813ZM25.8927 18.6519V24.1071H31.3479C31.8387 24.1071 32.241 24.5088 32.241 25.0003C32.241 25.491 31.8393 25.8934 31.3479 25.8934H25.8927V31.3486C25.8927 31.8393 25.491 32.2417 24.9996 32.2417C24.5088 32.2417 24.1065 31.84 24.1065 31.3486V25.8934H18.6513C18.1605 25.8934 17.7582 25.4917 17.7582 25.0003C17.7582 24.5095 18.1599 24.1071 18.6513 24.1071H24.1065V18.6519C24.1065 18.1612 24.5082 17.7588 24.9996 17.7588C25.4904 17.7595 25.8927 18.1612 25.8927 18.6519V18.6519Z" fill="url(#paint0_linear_986_102)" fill-opacity="0.8"/>
<defs>
<linearGradient id="paint0_linear_986_102" x1="50.5716" y1="25.3969" x2="-0.0153675" y2="25.4548" gradientUnits="userSpaceOnUse">
<stop stop-color="#F5CB5C"/>
<stop offset="0.744792" stop-color="#D8D3CF"/>
</linearGradient>
</defs>
</svg>
