<svg width="50" height="50" viewBox="0 0 50 50" fill="none" xmlns="http://www.w3.org/2000/svg">
<path d="M5.71429 50H44.2857C47.4378 50 50 47.4378 50 44.2857V5.71429C50 2.56218 47.4378 0 44.2857 0H5.71429C2.56218 0 0 2.56218 0 5.71429V44.2857C0 47.4372 2.56282 50 5.71429 50ZM1.78556 5.71429C1.78556 3.54448 3.54432 1.78556 5.71429 1.78556H44.2857C46.4555 1.78556 48.2145 3.54432 48.2145 5.71429V44.2857C48.2145 46.4555 46.4557 48.2145 44.2857 48.2145H5.71429C3.54448 48.2145 1.78556 46.4557 1.78556 44.2857V5.71429ZM12.5359 34.0274L23.4201 40.3135C23.9022 40.59 24.4471 40.7332 24.9915 40.7332H25.0002H25.0089C25.5533 40.7332 26.0982 40.5906 26.5803 40.3135L37.4645 34.0274C38.438 33.465 39.0446 32.4112 39.0446 31.2865L39.0452 18.7144C39.0452 18.2679 38.9468 17.8307 38.7687 17.4377C38.7506 17.3661 38.7332 17.2951 38.697 17.2234C38.679 17.1879 38.6435 17.1699 38.6167 17.1344C38.3402 16.661 37.9472 16.2593 37.4558 15.9735L26.5716 9.68744C25.5981 9.12505 24.3842 9.12505 23.4108 9.68744L12.5266 15.9735C11.5531 16.5359 10.9465 17.5897 10.9465 18.7144V31.2858C10.9465 32.4112 11.5537 33.4651 12.5359 34.0274ZM12.7321 18.7144C12.7321 18.2237 12.9999 17.7678 13.4196 17.518L24.3039 11.232C24.5181 11.1068 24.7504 11.0445 24.9915 11.0445C25.2325 11.0445 25.4648 11.1068 25.6791 11.232L36.4735 17.4645L28.2774 22.1966C27.8489 22.4464 27.7057 22.9913 27.9473 23.4198C28.1167 23.7057 28.4113 23.8664 28.724 23.8664C28.8759 23.8664 29.0273 23.8309 29.1705 23.7505L37.2509 19.0901V31.2953C37.2509 31.7861 36.9831 32.242 36.5633 32.4917L25.8934 38.6432V25.0007C25.8934 24.6793 25.724 24.3847 25.4468 24.2327L16.1614 18.8399C15.7329 18.5901 15.1879 18.7328 14.9382 19.1612C14.6885 19.5897 14.8311 20.1347 15.2596 20.3844L24.099 25.5182V38.652L13.4203 32.4825C12.9918 32.2415 12.7327 31.7769 12.7327 31.2861L12.7321 18.7144Z" fill="url(#paint0_linear_986_99)" fill-opacity="0.8"/>
<defs>
<linearGradient id="paint0_linear_986_99" x1="50.5716" y1="25.3969" x2="-0.0153675" y2="25.4548" gradientUnits="userSpaceOnUse">
<stop stop-color="#F5CB5C"/>
<stop offset="0.744792" stop-color="#D8D3CF"/>
</linearGradient>
</defs>
</svg>
