<svg width="50" height="50" viewBox="0 0 50 50" fill="none" xmlns="http://www.w3.org/2000/svg">
<path d="M44.2857 0H5.71429C2.56218 0 0 2.56218 0 5.71429V44.2857C0 47.4378 2.56218 50 5.71429 50H44.2857C47.4378 50 50 47.4378 50 44.2857V5.71429C50 2.56282 47.4372 0 44.2857 0ZM48.2145 44.2857C48.2145 46.4555 46.4557 48.2145 44.2857 48.2145H5.71429C3.54448 48.2145 1.78556 46.4557 1.78556 44.2857V10.5979H48.2141L48.2145 44.2857ZM48.2145 8.81218H1.78587V5.71365C1.78587 3.54385 3.54464 1.78492 5.71461 1.78492H44.286C46.4558 1.78492 48.2148 3.54369 48.2148 5.71365L48.2145 8.81218ZM32.8927 35.6425L40.0357 28.4995L32.8927 21.3565C32.5445 21.0084 32.5445 20.446 32.8927 20.0978C33.2408 19.7497 33.8032 19.7497 34.1514 20.0978L41.9283 27.8748C42.0977 28.0442 42.1874 28.2677 42.1874 28.5088C42.1874 28.7498 42.089 28.9728 41.9283 29.1428L34.1514 36.9198C33.9726 37.0985 33.7497 37.1788 33.5174 37.1788C33.285 37.1788 33.0621 37.0898 32.8833 36.9198C32.5445 36.5529 32.5445 35.9905 32.8927 35.6424L32.8927 35.6425ZM8.37421 29.2046C8.02605 28.8564 8.02605 28.294 8.37421 27.9459L16.1511 20.1689C16.4993 19.8208 17.0617 19.8208 17.4098 20.1689C17.758 20.5171 17.758 21.0795 17.4098 21.4276L10.2668 28.5706L17.4098 35.7137C17.758 36.0618 17.758 36.6242 17.4098 36.9723C17.2311 37.1511 17.0081 37.2314 16.7758 37.2314C16.5435 37.2314 16.3205 37.1424 16.1418 36.9723L8.37421 29.2046ZM18.7671 43.0708L28.8117 14.6333C28.9724 14.1693 29.4812 13.9276 29.9546 14.089C30.4186 14.2496 30.6602 14.7678 30.4989 15.2318L20.4549 43.6597C20.321 44.026 19.9816 44.2583 19.6154 44.2583C19.517 44.2583 19.4192 44.2402 19.3208 44.2047C18.8474 44.044 18.6064 43.5352 18.7671 43.0706L18.7671 43.0708Z" fill="url(#paint0_linear_986_100)" fill-opacity="0.8"/>
<defs>
<linearGradient id="paint0_linear_986_100" x1="50.5716" y1="25.3969" x2="-0.0153675" y2="25.4548" gradientUnits="userSpaceOnUse">
<stop stop-color="#F5CB5C"/>
<stop offset="0.744792" stop-color="#D8D3CF"/>
</linearGradient>
</defs>
</svg>
