<svg width="50" height="50" viewBox="0 0 50 50" fill="none" xmlns="http://www.w3.org/2000/svg">
<path d="M44.2854 0.000637405H40.3386C39.8479 0.000637405 39.4455 0.402345 39.4455 0.893751C39.4455 1.38452 39.8472 1.78686 40.3386 1.78686H44.2854C46.4552 1.78686 48.2141 3.54563 48.2141 5.71559V13.2958H1.78556V5.71496C1.78556 3.54515 3.54433 1.78622 5.71429 1.78622H9.83913C10.3299 1.78622 10.7322 1.38452 10.7322 0.893114C10.7322 0.402345 10.3305 0 9.83913 0L5.71429 0.000622808C2.56218 0.000622808 0 2.5628 0 5.71491V44.2863C0 47.4384 2.56218 50.0006 5.71429 50.0006H44.2857C47.4378 50.0006 50 47.4384 50 44.2863V5.71491C50 2.56344 47.4369 0.000637405 44.2854 0.000637405ZM48.2141 44.2863C48.2141 46.4561 46.4554 48.2151 44.2854 48.2151H5.71397C3.54416 48.2151 1.78524 46.4563 1.78524 44.2863V15.0804H48.2138L48.2141 44.2863ZM17.393 1.78635C16.9022 1.78635 16.4999 1.38465 16.4999 0.89324C16.4999 0.402472 16.9016 0.000127724 17.393 0.000127724H32.3391C32.8299 0.000127724 33.2322 0.401834 33.2322 0.89324C33.2322 1.38401 32.8305 1.78635 32.3391 1.78635H17.393ZM13.7141 9.13489C13.2234 9.13489 12.821 8.73318 12.821 8.24177L12.8216 0.893877C12.8216 0.403109 13.2233 0.000765129 13.7148 0.000765129C14.2055 0.000765129 14.6079 0.402471 14.6079 0.893877V8.24241C14.6072 8.73318 14.2055 9.13489 13.7141 9.13489ZM36.2859 9.13489C35.7951 9.13489 35.3928 8.73318 35.3928 8.24177V0.893877C35.3928 0.403109 35.7945 0.000765129 36.2859 0.000765129C36.7766 0.000765129 37.179 0.402471 37.179 0.893877V8.24241C37.1784 8.73318 36.7767 9.13489 36.2859 9.13489ZM9.14302 22.8042C9.14302 22.3134 9.54472 21.9111 10.0361 21.9111H39.9644C40.4552 21.9111 40.8575 22.3128 40.8575 22.8042C40.8575 23.295 40.4558 23.6973 39.9644 23.6973H10.0361C9.54474 23.6973 9.14302 23.2956 9.14302 22.8042ZM9.14302 31.3578C9.14302 30.867 9.54472 30.4647 10.0361 30.4647H39.9644C40.4552 30.4647 40.8575 30.8664 40.8575 31.3578C40.8575 31.8486 40.4558 32.2509 39.9644 32.2509H10.0361C9.54474 32.2509 9.14302 31.8492 9.14302 31.3578ZM9.14302 39.9114C9.14302 39.4206 9.54472 39.0182 10.0361 39.0182H39.9644C40.4552 39.0182 40.8575 39.4199 40.8575 39.9114C40.8575 40.4021 40.4558 40.8045 39.9644 40.8045H10.0361C9.54474 40.8045 9.14302 40.4028 9.14302 39.9114Z" fill="url(#paint0_linear_986_103)" fill-opacity="0.8"/>
<defs>
<linearGradient id="paint0_linear_986_103" x1="50.5716" y1="25.3972" x2="-0.0153675" y2="25.4551" gradientUnits="userSpaceOnUse">
<stop stop-color="#F5CB5C"/>
<stop offset="0.744792" stop-color="#D8D3CF"/>
</linearGradient>
</defs>
</svg>
