<svg width="33" height="32" viewBox="0 0 33 32" fill="none" xmlns="http://www.w3.org/2000/svg">
<path d="M31.4372 32C31.7463 32.0001 32.0484 31.9084 32.3054 31.7368C32.5624 31.5651 32.7628 31.321 32.881 31.0355C32.9993 30.7499 33.0303 30.4357 32.97 30.1326C32.9096 29.8294 32.7608 29.551 32.5422 29.3325L3.66673 0.456981C3.37366 0.163912 2.97617 -0.000732422 2.56171 -0.000732422C2.14725 -0.000732422 1.74976 0.163912 1.45669 0.456981C1.16362 0.75005 0.998974 1.14754 0.998974 1.562C0.998974 1.97646 1.16362 2.37395 1.45669 2.66702L30.3322 31.5425C30.4771 31.6878 30.6494 31.803 30.839 31.8815C31.0287 31.96 31.2319 32.0003 31.4372 32Z" fill="#F5CB5C"/>
<path d="M2.56179 32C2.76704 32.0003 2.97031 31.96 3.15995 31.8815C3.34958 31.803 3.52183 31.6878 3.66681 31.5425L32.5423 2.66702C32.8354 2.37395 33 1.97646 33 1.562C33 1.14754 32.8354 0.75005 32.5423 0.456981C32.2492 0.163912 31.8517 -0.000732422 31.4373 -0.000732422C31.0228 -0.000732422 30.6253 0.163912 30.3323 0.456981L1.45678 29.3325C1.23819 29.551 1.08933 29.8294 1.02902 30.1326C0.968701 30.4357 0.999645 30.7499 1.11793 31.0355C1.23622 31.321 1.43654 31.5651 1.69355 31.7368C1.95056 31.9084 2.25271 32.0001 2.56179 32Z" fill="#F5CB5C"/>
</svg>
