<svg width="40" height="40" viewBox="0 0 40 40" fill="none" xmlns="http://www.w3.org/2000/svg">
<path fill-rule="evenodd" clip-rule="evenodd" d="M17.342 37.3401C7.77723 37.3401 0.00195312 29.5648 0.00195312 20C0.00195312 10.4353 7.77723 2.65991 17.342 2.65991C22.1569 2.65991 26.6465 4.57939 29.9649 8.09291C30.1327 8.28207 30.1142 8.49393 30.0068 8.64793L31.0246 9.97815C31.2186 9.87933 31.4708 9.89972 31.6242 10.1424C33.6412 13.0379 34.6824 16.4538 34.6824 19.9999C34.6822 29.5648 26.9068 37.3401 17.342 37.3401ZM17.342 33.7616C9.76176 33.7616 3.58052 27.5802 3.58052 20C3.58052 12.4198 9.76176 6.23848 17.342 6.23848C20.9531 6.23848 24.3692 7.63735 26.9393 10.1425C27.1459 10.3464 27.1137 10.5897 26.9792 10.7534L28.2677 12.3525C28.4642 12.2375 28.7359 12.2486 28.8912 12.4849C34.7398 21.3851 28.3926 33.7616 17.342 33.7616Z" fill="#5A5A5A"/>
<path fill-rule="evenodd" clip-rule="evenodd" d="M17.7983 28.914C17.6031 28.914 17.4404 28.7839 17.3754 28.6213C17.3429 28.5562 14.545 21.3338 10.2181 18.601C9.37219 18.0805 8.72166 17.5274 8.98187 16.2912C9.24208 15.0874 10.0555 14.4042 11.5194 14.0789C14.122 13.5258 16.9198 17.5599 17.961 19.2192C21.6046 13.9163 28.892 5.58775 39.4978 4.61177C40.0094 4.55179 40.1986 5.31019 39.7255 5.52269C39.5628 5.58775 24.4023 12.5174 18.2536 28.6538C18.1561 28.8164 17.9934 28.914 17.7983 28.914Z" fill="#75C5F0"/>
</svg>
